<svg width="25" height="34" viewBox="0 0 25 34" fill="none" xmlns="http://www.w3.org/2000/svg">
<path d="M21.6204 13.8576H21.2661V8.65046C21.2661 3.88038 17.3337 0 12.5 0C7.66633 0 3.73385 3.88038 3.73385 8.65046V13.8576H3.37963C1.51399 13.8576 0 15.3506 0 17.1927V30.6648C0 32.507 1.51362 34 3.37963 34H21.6204C23.486 34 25 32.5074 25 30.6648V17.1927C24.9996 15.3506 23.486 13.8576 21.6204 13.8576ZM7.04433 8.65046C7.04433 5.68191 9.49151 3.26693 12.5 3.26693C15.5085 3.26693 17.9557 5.68191 17.9557 8.65046V13.8576H7.04433V8.65046ZM13.9103 25.4457V28.9482C13.9103 29.7167 13.2787 30.34 12.5 30.34C11.7213 30.34 11.0897 29.7167 11.0897 28.9482V25.4457C9.96528 24.9227 9.18584 23.7974 9.18584 22.4892C9.18584 20.6826 10.6693 19.2182 12.5 19.2182C14.3307 19.2182 15.8142 20.6826 15.8142 22.4892C15.8142 23.7974 15.0347 24.9223 13.9103 25.4457Z" fill="#C1C1C1"/>
</svg>
