<svg width="26" height="27" viewBox="0 0 26 27" fill="none" xmlns="http://www.w3.org/2000/svg">
<path d="M12.5508 12.8429C13.8208 12.8429 15.0624 12.4663 16.1184 11.7607C17.1744 11.0551 17.9974 10.0522 18.4835 8.87885C18.9695 7.70548 19.0966 6.41434 18.8489 5.1687C18.6011 3.92306 17.9895 2.77886 17.0915 1.88081C16.1934 0.982748 15.0492 0.371163 13.8036 0.12339C12.5579 -0.124384 11.2668 0.00278232 10.0934 0.488808C8.92004 0.974833 7.91714 1.79789 7.21154 2.85389C6.50595 3.9099 6.12933 5.15142 6.12933 6.42147C6.13129 8.12394 6.80846 9.75613 8.0123 10.96C9.21613 12.1638 10.8483 12.841 12.5508 12.8429V12.8429Z" fill="#C1C1C1"/>
<path d="M1.03522 27H25.1016C25.1014 24.5179 24.3651 22.0915 22.986 20.0278C21.6069 17.964 19.6468 16.3556 17.3536 15.4057C15.0604 14.4559 12.5371 14.2073 10.1026 14.6915C7.66817 15.1757 5.43194 16.3708 3.67668 18.1259C2.50752 19.2884 1.58056 20.6714 0.94946 22.1946C0.318363 23.7179 -0.00433543 25.3512 4.39843e-05 27H1.03522Z" fill="#C1C1C1"/>
</svg>
