<svg width="42" height="42" viewBox="0 0 42 42" fill="none" xmlns="http://www.w3.org/2000/svg">
<path fill-rule="evenodd" clip-rule="evenodd" d="M25.2326 1.1707C20.7136 0.116119 15.9709 0.62122 11.7754 2.60387C7.58 4.58652 4.17863 7.93012 2.1244 12.091C0.0701655 16.2518 -0.516106 20.9853 0.460908 25.5216C1.43792 30.0579 3.92076 34.1303 7.50571 37.0766C11.0907 40.0229 15.5669 41.6699 20.2065 41.7496C24.8462 41.8294 29.3764 40.3373 33.0605 37.516C33.88 36.8884 34.0356 35.7152 33.408 34.8957C32.7804 34.0761 31.6072 33.9205 30.7877 34.5482C27.7734 36.8565 24.0669 38.0773 20.2708 38.012C16.4747 37.9467 12.8124 36.5992 9.87922 34.1886C6.94608 31.778 4.91467 28.446 4.11529 24.7345C3.31592 21.023 3.79559 17.1502 5.47633 13.7458C7.15706 10.3415 9.94 7.60583 13.3726 5.98366C16.8053 4.36149 20.6857 3.94822 24.383 4.81106C28.0803 5.6739 31.377 7.76209 33.737 10.7361C36.097 13.7101 37.3816 17.395 37.3818 21.1916V23.0606C37.3818 24.052 36.988 25.0029 36.2869 25.7039C35.5859 26.4049 34.6351 26.7988 33.6436 26.7988C32.6522 26.7988 31.7014 26.4049 31.0003 25.7039C30.2993 25.0029 29.9055 24.052 29.9055 23.0606V13.7152C29.9055 12.6829 29.0686 11.8461 28.0364 11.8461C27.0043 11.8461 26.1676 12.6825 26.1673 13.7145C24.6054 12.5413 22.6639 11.8461 20.56 11.8461C15.3986 11.8461 11.2145 16.0302 11.2145 21.1915C11.2145 26.3529 15.3986 30.537 20.56 30.537C23.3414 30.537 25.839 29.3219 27.5509 27.3936C27.791 27.7312 28.0603 28.0504 28.3571 28.3472C29.7591 29.7493 31.6608 30.537 33.6436 30.537C35.6265 30.537 37.5281 29.7493 38.9302 28.3472C40.3323 26.9451 41.12 25.0435 41.12 23.0606V21.1914C41.1197 16.5511 39.5497 12.0473 36.6652 8.41241C33.7807 4.77751 29.7515 2.22528 25.2326 1.1707ZM14.9527 21.1915C14.9527 18.0947 17.4632 15.5843 20.56 15.5843C23.6568 15.5843 26.1673 18.0947 26.1673 21.1915C26.1673 24.2883 23.6568 26.7988 20.56 26.7988C17.4632 26.7988 14.9527 24.2883 14.9527 21.1915Z" fill="#4470C7"/>
</svg>
