<svg width="1209" height="484" viewBox="0 0 1209 484" fill="none" xmlns="http://www.w3.org/2000/svg">
<path d="M911.285 89.3453H1006V116.283H911.285C909.255 116.283 907.309 115.477 905.874 114.042C904.439 112.607 903.633 110.661 903.633 108.631V96.9821C903.637 94.9554 904.445 93.0129 905.879 91.5812C907.314 90.1494 909.258 89.3453 911.285 89.3453Z" fill="#4470C7"/>
<path d="M1006 55.7402H917.102C913.541 55.7402 910.127 57.1545 907.609 59.672C905.092 62.1895 903.678 65.604 903.678 69.1643C903.678 72.7246 905.092 76.1391 907.609 78.6566C910.127 81.1741 913.541 82.5885 917.102 82.5885H1006V55.7402Z" fill="#4470C7"/>
<path d="M1046.41 24.7603H1014.08V115H1046.41V24.7603Z" fill="#4470C7"/>
<path d="M1086.81 24.7603H1054.49V115H1086.81V24.7603Z" fill="#4470C7"/>
<path d="M1127.22 24.7603H1094.9V115H1127.22V24.7603Z" fill="#4470C7"/>
<path opacity="0.4" d="M911.285 89.3453H1006V116.283H911.285C909.255 116.283 907.309 115.477 905.874 114.042C904.439 112.607 903.633 110.661 903.633 108.631V96.9821C903.637 94.9554 904.445 93.0129 905.879 91.5812C907.314 90.1494 909.258 89.3453 911.285 89.3453Z" fill="white"/>
<path opacity="0.4" d="M1006 55.7402H917.102C913.541 55.7402 910.127 57.1545 907.609 59.672C905.092 62.1895 903.678 65.604 903.678 69.1643C903.678 72.7246 905.092 76.1391 907.609 78.6566C910.127 81.1741 913.541 82.5885 917.102 82.5885H1006V55.7402Z" fill="white"/>
<path opacity="0.4" d="M1046.41 24.7603H1014.08V115H1046.41V24.7603Z" fill="white"/>
<path opacity="0.4" d="M1086.81 24.7603H1054.49V115H1086.81V24.7603Z" fill="white"/>
<path opacity="0.4" d="M1127.22 24.7603H1094.9V115H1127.22V24.7603Z" fill="white"/>
<path d="M1146.74 117.417H892.908V132.452H913.507V169.741H925.768V132.452H1107.9V169.741H1120.16V132.452H1146.74V117.417Z" fill="#4470C7"/>
<path opacity="0.1" d="M1146.74 117.417H892.908V132.452H913.507V169.741H925.768V132.452H1107.9V169.741H1120.16V132.452H1146.74V117.417Z" fill="black"/>
<path d="M837.033 190.861C834.498 191.685 832.012 192.65 829.585 193.754C830.894 192.772 832.203 191.777 833.512 190.743C839.43 186.005 845.055 180.913 850.358 175.495C844.118 181.55 837.452 187.149 830.41 192.249C831.375 190.561 832.228 188.812 832.962 187.013C834.271 183.715 834.52 180.469 831.366 178.623C827.439 176.45 822.792 179.709 824.036 185.298C824.778 188.4 826.24 191.283 828.303 193.715C823.728 196.888 818.949 199.757 813.997 202.301L813.525 202.536C814.573 200.725 815.496 198.845 816.287 196.908C817.596 193.61 817.858 190.298 814.703 188.518C810.777 186.332 806.117 189.592 807.374 195.194C808.105 198.256 809.539 201.106 811.562 203.518C805.607 206.45 799.455 208.937 793.329 211.646L792.439 212.052C793.635 210.765 794.746 209.401 795.764 207.968C797.753 205.05 798.827 201.895 796.17 199.434C792.91 196.411 787.57 198.492 787.478 204.225C787.484 207.404 788.223 210.54 789.638 213.387C783.915 216.039 778.477 219.267 773.408 223.021L773.251 223.138C773.944 222.057 774.569 220.933 775.123 219.775C776.628 216.581 777.177 213.23 774.167 211.293C773.553 210.866 772.851 210.585 772.112 210.471C771.373 210.356 770.619 210.412 769.905 210.632C769.191 210.853 768.536 211.234 767.991 211.745C767.446 212.256 767.025 212.885 766.759 213.584C766.366 212.956 765.821 212.438 765.175 212.078C762.138 210.324 759.154 212.222 756.602 214.905C755.934 215.599 755.293 216.345 754.704 217.104C756.682 211.619 759.167 206.331 762.125 201.306C764.934 202.547 767.968 203.198 771.039 203.217C777.086 203.217 779.638 198.178 776.667 195.05C774.259 192.51 770.856 193.479 767.649 195.324C766.589 195.94 765.555 196.633 764.586 197.34C767.672 192.709 771.177 188.372 775.057 184.382C777.585 186.425 780.522 187.903 783.67 188.715C789.547 190.167 793.238 185.9 791.104 182.17C789.376 179.12 785.869 179.238 782.282 180.259C780.607 180.766 778.963 181.374 777.361 182.079C778.958 180.521 780.62 179.016 782.295 177.537C784.507 175.652 786.785 173.832 789.102 172.065C791.601 174.055 794.49 175.495 797.583 176.293C803.447 177.746 807.138 173.479 805.018 169.749C803.29 166.699 799.782 166.83 796.196 167.851C795.371 168.086 794.533 168.374 793.722 168.675C796.785 166.49 799.9 164.356 803.015 162.223L805.895 160.259C808.495 162.427 811.544 163.991 814.821 164.84C820.698 166.293 824.376 162.026 822.256 158.296C820.528 155.233 817.02 155.364 813.434 156.385C812.041 156.795 810.673 157.284 809.337 157.851C809.939 157.432 810.528 157 811.117 156.542C812.217 155.757 813.29 154.958 814.363 154.134C815.672 153.139 816.981 152.026 818.29 150.979C819.023 150.39 819.73 149.762 820.436 149.121C823.033 151.328 826.1 152.912 829.402 153.754C835.279 155.207 838.97 150.953 836.85 147.21C835.122 144.16 831.614 144.278 828.015 145.299C826.047 145.906 824.119 146.636 822.243 147.485C824.638 145.259 826.955 142.943 829.154 140.521C829.311 140.351 829.442 140.181 829.585 140.011C830.541 138.964 831.47 137.903 832.373 136.817C833.277 135.731 834.428 134.199 835.423 132.89C839.454 127.604 842.769 121.808 845.279 115.652C842.659 121.756 839.229 127.479 835.083 132.668C830.999 137.877 826.442 142.696 821.47 147.066L820.934 147.524C822.072 145.565 823.078 143.531 823.944 141.437C825.253 138.139 825.515 134.828 822.36 133.047C818.434 130.875 813.774 134.121 815.031 139.723C815.83 143.016 817.426 146.064 819.677 148.597L818.512 149.592C818.054 149.971 817.583 150.364 817.112 150.731C816.34 151.359 815.554 151.961 814.769 152.55L813.46 153.518C812.334 154.343 811.182 155.168 810.031 155.966L808.237 157.066L806.353 158.374C807.449 156.492 808.416 154.538 809.245 152.524C810.554 149.225 810.816 145.914 807.662 144.134C803.735 141.948 799.075 145.207 800.319 150.809C801.094 153.998 802.62 156.955 804.769 159.435L803.368 160.338L798.133 163.715L797.125 164.382C796.156 165.011 795.201 165.691 794.245 166.306C793.827 166.581 793.408 166.856 793.002 167.144C791.693 168.06 790.319 168.99 788.997 169.945C790.108 168.031 791.092 166.046 791.942 164.003C793.251 160.704 793.512 157.38 790.358 155.613C786.431 153.427 781.772 156.686 783.015 162.275C783.8 165.514 785.358 168.514 787.557 171.018C785.306 172.668 783.081 174.369 780.908 176.136C779.337 177.445 777.78 178.832 776.261 180.22C776.924 178.995 777.514 177.731 778.028 176.437C779.337 173.139 779.599 169.893 776.445 168.047C772.518 165.874 767.858 169.12 769.102 174.723C769.846 177.787 771.283 180.639 773.303 183.06C769.006 187.329 765.135 192.006 761.746 197.026C762.133 195.581 762.426 194.112 762.623 192.628C763.055 189.12 762.544 185.822 759.062 184.866C754.769 183.688 750.987 187.982 753.552 193.112C755.024 195.93 757.13 198.367 759.704 200.233C756.369 205.677 753.58 211.438 751.379 217.432C751.324 216.178 751.197 214.928 751 213.688C750.411 210.207 748.997 207.144 745.385 207.262C740.934 207.34 738.526 212.497 742.44 216.725C744.529 218.9 747.078 220.581 749.9 221.646C748.393 226.286 747.161 231.011 746.209 235.795C746.065 236.555 745.934 237.314 745.803 238.073C745.634 238.207 745.476 238.356 745.332 238.518C745.175 237.863 744.992 237.209 744.782 236.568C743.657 233.217 741.798 230.455 738.238 231.083C733.853 231.856 732.283 237.353 736.785 240.887C739.08 242.643 741.728 243.88 744.547 244.513C744.588 244.644 744.64 244.771 744.704 244.892C744.22 248.492 743.853 252.104 743.631 255.743C743.465 258.448 743.356 261.166 743.303 263.897C739.508 263.897 736.759 268.046 739.455 272.562C740.552 274.432 741.96 276.1 743.618 277.497C743.945 282.601 744.442 287.706 745.123 292.771C744.586 292.276 743.929 291.93 743.218 291.767C742.506 291.604 741.764 291.63 741.065 291.842C738.67 292.483 737.597 294.46 737.217 296.777C736.383 297.657 735.915 298.823 735.908 300.036C734.128 297.418 732.453 294.682 730.83 291.934C733.315 290.024 735.375 287.617 736.877 284.866C739.73 279.539 736.523 274.905 732.361 276.044C728.971 276.96 728.225 280.415 728.33 284.12C728.387 285.522 728.518 286.92 728.722 288.308L727.086 285.127C725.62 282.51 724.377 279.892 723.002 277.169C722.649 276.528 722.348 275.861 722.06 275.193C724.858 273.785 727.332 271.811 729.324 269.395C733.12 264.696 730.83 259.539 726.537 259.879C723.029 260.141 721.654 263.4 721.065 267.052C720.828 268.647 720.683 270.256 720.633 271.868L719.325 268.989C716.666 262.466 714.479 255.76 712.78 248.924C715.931 247.815 718.799 246.027 721.183 243.688C725.437 239.382 723.683 234.028 719.364 233.924C715.856 233.845 714.128 236.947 713.199 240.468C712.731 242.391 712.381 244.34 712.152 246.306C711.222 242.379 710.424 238.452 709.77 234.434C709.311 231.96 709.024 229.46 708.709 226.96C712.115 226.3 715.322 224.862 718.081 222.759C722.859 219.055 721.798 213.518 717.531 212.851C714.076 212.314 711.982 215.167 710.568 218.597C709.741 220.772 709.05 222.997 708.5 225.259C708.225 222.353 707.924 219.46 707.793 216.555C707.414 210.556 707.44 204.539 707.872 198.544C707.257 204.536 707.047 210.561 707.243 216.581C707.243 219.356 707.479 222.117 707.649 224.892C706.906 223.005 706.032 221.172 705.031 219.408C703.225 216.371 700.804 214.081 697.466 215.481C693.343 217.17 692.99 222.89 698.147 225.377C701.187 226.769 704.52 227.402 707.859 227.222C708.094 229.696 708.304 232.17 708.67 234.617C709.194 238.544 709.861 242.471 710.633 246.28C709.79 244.801 708.85 243.38 707.819 242.026C705.62 239.251 702.937 237.288 699.796 239.081C695.869 241.293 696.314 246.999 701.759 248.793C704.845 249.756 708.114 249.976 711.301 249.434C712.802 256.351 714.792 263.152 717.256 269.787L718.042 271.777C717.335 270.874 716.576 269.944 715.777 269.159C713.317 266.62 710.45 264.944 707.505 267.039C703.88 269.656 704.887 275.272 710.424 276.515C713.523 277.147 716.726 277.053 719.783 276.24C720.057 276.921 720.332 277.549 720.66 278.269C721.968 280.991 723.173 283.792 724.586 286.476C724.979 287.248 725.385 288.007 725.79 288.766C725.097 288.177 724.377 287.601 723.631 287.078C720.751 285.036 717.61 283.923 715.11 286.541C712.047 289.761 714.037 295.127 719.77 295.298C722.722 295.337 725.647 294.734 728.343 293.531C729.979 296.502 731.68 299.434 733.5 302.313C734.18 303.413 734.887 304.499 735.594 305.585C734.555 304.616 733.458 303.711 732.309 302.876C729.416 300.834 726.275 299.722 723.788 302.339C720.712 305.559 722.701 310.926 728.434 311.096C731.713 311.134 734.952 310.389 737.885 308.923C738.827 310.232 739.809 311.541 740.83 312.85C738.696 315.324 739.39 319.525 743.722 321.384C745.848 322.263 748.112 322.76 750.411 322.85C750.672 323.072 750.947 323.282 751.222 323.478L751.366 323.583C752.374 327.352 753.473 331.096 754.625 334.813H735.201V396.475H783.84V334.774H761.183C759.233 328.111 757.596 322.313 757.256 322.156L756.576 321.829C759.129 320.955 761.501 319.625 763.578 317.902C768.185 313.975 766.877 308.491 762.596 308.033C759.102 307.64 757.138 310.585 755.895 314.08C755.536 315.076 755.231 316.089 754.979 317.117C754.73 316.187 754.481 315.258 754.246 314.329C753.539 311.58 752.937 308.805 752.282 306.044C755.055 305.156 757.629 303.737 759.861 301.868C764.468 297.942 763.159 292.47 758.879 291.999C755.384 291.62 753.434 294.617 752.178 298.046C751.816 299.06 751.506 300.091 751.248 301.135C750.843 299.12 750.463 297.104 750.11 295.075C749.848 293.557 749.612 292.052 749.39 290.546C749.298 288.4 749.272 286.24 749.298 284.093C749.298 282.902 749.298 281.724 749.403 280.533C751.999 281.373 754.728 281.724 757.453 281.567C763.5 281.175 765.725 276.005 762.57 273.06C759.952 270.677 756.667 271.855 753.578 273.897C752.212 274.842 750.901 275.865 749.652 276.96C750.023 271.898 750.793 266.874 751.955 261.934C752.644 259.036 753.492 256.178 754.494 253.374C757.268 254.333 760.203 254.742 763.133 254.578C769.167 254.198 771.405 249.015 768.251 246.083C765.633 243.688 762.348 244.879 759.259 246.921C758.163 247.665 757.105 248.464 756.091 249.316C757.254 246.575 758.61 243.92 760.149 241.371C763.232 236.24 767.091 231.618 771.589 227.667C773.905 229.79 776.637 231.407 779.612 232.418C785.371 234.303 789.363 230.324 787.465 226.424C785.973 223.256 782.439 223.112 778.801 223.806C777.425 224.112 776.067 224.487 774.73 224.932H774.821C779.757 221.071 785.078 217.728 790.698 214.958C792.688 217.557 795.215 219.695 798.107 221.227C803.486 224.002 808.067 220.73 806.876 216.581C805.908 213.204 802.439 212.51 798.735 212.654C797.283 212.735 795.837 212.897 794.402 213.138C800.384 210.311 806.484 207.641 812.374 204.526L812.504 204.461C815.152 206.734 818.287 208.369 821.667 209.238C827.544 210.691 831.235 206.424 829.101 202.694C827.387 199.631 823.866 199.762 820.279 200.783C819.285 201.057 818.303 201.424 817.334 201.79C821.262 199.502 825.072 197.017 828.748 194.343L829.062 194.67C829.055 194.622 829.055 194.574 829.062 194.526C831.706 196.82 834.84 198.476 838.224 199.369C844.101 200.809 847.792 196.555 845.672 192.825C844.075 189.788 840.541 189.788 837.033 190.861ZM744.298 311.03C743.107 309.63 741.955 308.164 740.843 306.685C741.118 306.436 741.406 306.161 741.693 305.873C743.349 306.394 745.065 306.702 746.798 306.79V307.065L747.61 306.907C748.028 308.989 748.474 311.083 748.919 313.164C748.373 312.454 747.662 311.888 746.847 311.516C746.033 311.144 745.14 310.978 744.246 311.03H744.298ZM748.631 261.109C748.225 262.667 747.871 264.238 747.544 265.808L747.348 265.533C747.348 262.305 747.396 259.081 747.492 255.861C747.583 253.596 747.754 251.345 747.95 249.107C749.031 250.223 750.229 251.219 751.523 252.078C750.378 255.033 749.395 258.048 748.578 261.109H748.631ZM754.076 246.253C754.076 245.664 754.206 245.062 754.246 244.486C754.246 244.185 754.246 243.884 754.246 243.596C754.717 243.452 755.201 243.282 755.686 243.086C755.083 244.133 754.573 245.18 754.023 246.253H754.076ZM760.973 235.036C760.743 234.514 760.41 234.042 759.994 233.651C759.578 233.26 759.088 232.956 758.552 232.759C755.28 231.45 752.623 233.832 750.515 236.869L750.411 237.026L750.201 236.96L749.521 236.869C749.521 236.685 749.586 236.502 749.612 236.319C750.454 231.534 751.586 226.804 753.002 222.157C756.047 222.536 759.137 222.296 762.086 221.45C763.89 220.992 765.47 219.9 766.536 218.374C767.129 221.043 768.241 223.569 769.808 225.809C766.539 228.573 763.561 231.665 760.921 235.036H760.973Z" fill="#4470C7"/>
<path d="M874.383 186.685H1139.54C1142.7 186.685 1145.74 187.942 1147.98 190.18C1150.22 192.418 1151.47 195.453 1151.47 198.618V384.677H862.495V198.573C862.507 195.424 863.763 192.407 865.99 190.18C868.217 187.953 871.234 186.697 874.383 186.685Z" fill="#263238" stroke="#263238" strokeWidth="1.02609" strokeLinecap="round" strokeLinejoin="round"/>
<path d="M1194.77 472.187H819.15L862.495 384.662H1151.43L1194.77 472.187Z" fill="white" stroke="#263238" strokeWidth="1.02609" strokeLinecap="round" strokeLinejoin="round"/>
<path d="M1133.93 202.362H879.991V368.985H1133.93V202.362Z" fill="#4470C7" stroke="#263238" strokeWidth="1.02609" strokeLinecap="round" strokeLinejoin="round"/>
<path d="M994.902 412.36L995.409 401.695H980.136L979.121 412.36H994.902Z" fill="#263238" stroke="white" strokeWidth="1.02609" strokeLinecap="round" strokeLinejoin="round"/>
<path d="M1026.46 412.36L1025.94 401.695H1010.67L1010.68 412.36H1026.46Z" fill="#263238" stroke="white" strokeWidth="1.02609" strokeLinecap="round" strokeLinejoin="round"/>
<path d="M1108.63 423.771H1124.95L1121.12 412.36H1105.35L1108.63 423.771Z" fill="#263238" stroke="white" strokeWidth="1.02609" strokeLinecap="round" strokeLinejoin="round"/>
<path d="M979.121 412.36L980.135 401.695H964.877L963.355 412.36H979.121Z" fill="#263238" stroke="white" strokeWidth="1.02609" strokeLinecap="round" strokeLinejoin="round"/>
<path d="M947.574 412.36L949.603 401.695H934.344L931.794 412.36H947.574Z" fill="#263238" stroke="white" strokeWidth="1.02609" strokeLinecap="round" strokeLinejoin="round"/>
<path d="M1089.57 412.36L1087.01 401.695H1071.75L1073.79 412.36H1089.57Z" fill="#263238" stroke="white" strokeWidth="1.02609" strokeLinecap="round" strokeLinejoin="round"/>
<path d="M1105.35 412.36L1102.28 401.695H1087.01L1089.57 412.36H1105.35Z" fill="#263238" stroke="white" strokeWidth="1.02609" strokeLinecap="round" strokeLinejoin="round"/>
<path d="M931.794 412.36L934.344 401.695H919.07L916.013 412.36H931.794Z" fill="#263238" stroke="white" strokeWidth="1.02609" strokeLinecap="round" strokeLinejoin="round"/>
<path d="M1042.23 412.36L1041.2 401.695H1025.94L1026.46 412.36H1042.23Z" fill="#263238" stroke="white" strokeWidth="1.02609" strokeLinecap="round" strokeLinejoin="round"/>
<path d="M1121.12 412.36L1117.54 401.695H1102.28L1105.35 412.36H1121.12Z" fill="#263238" stroke="white" strokeWidth="1.02609" strokeLinecap="round" strokeLinejoin="round"/>
<path d="M1073.79 412.36L1071.75 401.695H1056.47L1058.01 412.36H1073.79Z" fill="#263238" stroke="white" strokeWidth="1.02609" strokeLinecap="round" strokeLinejoin="round"/>
<path d="M1058.01 412.36L1056.47 401.695H1041.2L1042.23 412.36H1058.01Z" fill="#263238" stroke="white" strokeWidth="1.02609" strokeLinecap="round" strokeLinejoin="round"/>
<path d="M1010.68 412.36L1010.67 401.695H995.409L994.902 412.36H1010.68Z" fill="#263238" stroke="white" strokeWidth="1.02609" strokeLinecap="round" strokeLinejoin="round"/>
<path d="M900.247 412.36H884.466L880.111 423.771H896.429L900.247 412.36Z" fill="#263238" stroke="white" strokeWidth="1.02609" strokeLinecap="round" strokeLinejoin="round"/>
<path d="M903.797 401.695H888.538L884.466 412.36H900.247L903.797 401.695Z" fill="#263238" stroke="white" strokeWidth="1.02609" strokeLinecap="round" strokeLinejoin="round"/>
<path d="M916.013 412.36L919.071 401.695H903.797L900.247 412.36H916.013Z" fill="#263238" stroke="white" strokeWidth="1.02609" strokeLinecap="round" strokeLinejoin="round"/>
<path d="M875.442 435.987L870.415 449.112H887.956L892.342 435.987H875.442Z" fill="#263238" stroke="white" strokeWidth="1.02609" strokeLinecap="round" strokeLinejoin="round"/>
<path d="M896.428 423.771H880.111L875.442 435.987H892.342L896.428 423.771Z" fill="#263238" stroke="white" strokeWidth="1.02609" strokeLinecap="round" strokeLinejoin="round"/>
<path d="M892.342 435.987L887.956 449.112H905.497L909.256 435.987H892.342Z" fill="#263238" stroke="white" strokeWidth="1.02609" strokeLinecap="round" strokeLinejoin="round"/>
<path d="M963.355 412.36L964.877 401.695H949.603L947.574 412.36H963.355Z" fill="#263238" stroke="white" strokeWidth="1.02609" strokeLinecap="round" strokeLinejoin="round"/>
<path d="M961.715 423.771L963.355 412.36H947.575L945.397 423.771H961.715Z" fill="#263238" stroke="white" strokeWidth="1.02609" strokeLinecap="round" strokeLinejoin="round"/>
<path d="M945.397 423.771L947.574 412.36H931.794L929.079 423.771H945.397Z" fill="#263238" stroke="white" strokeWidth="1.02609" strokeLinecap="round" strokeLinejoin="round"/>
<path d="M978.047 423.771L979.121 412.36H963.355L961.715 423.771H978.047Z" fill="#263238" stroke="white" strokeWidth="1.02609" strokeLinecap="round" strokeLinejoin="round"/>
<path d="M916.013 412.36H900.247L896.428 423.771H912.746L916.013 412.36Z" fill="#263238" stroke="white" strokeWidth="1.02609" strokeLinecap="round" strokeLinejoin="round"/>
<path d="M1112.15 435.987H1129.07L1124.95 423.771H1108.63L1112.15 435.987Z" fill="#263238" stroke="white" strokeWidth="1.02609" strokeLinecap="round" strokeLinejoin="round"/>
<path d="M929.079 423.771L931.793 412.36H916.013L912.746 423.771H929.079Z" fill="#263238" stroke="white" strokeWidth="1.02609" strokeLinecap="round" strokeLinejoin="round"/>
<path d="M896.428 423.771L892.341 435.987H909.256L912.746 423.771H896.428Z" fill="#263238" stroke="white" strokeWidth="1.02609" strokeLinecap="round" strokeLinejoin="round"/>
<path d="M1075.98 423.771L1073.79 412.36H1058.01L1059.67 423.771H1075.98Z" fill="#263238" stroke="white" strokeWidth="1.02609" strokeLinecap="round" strokeLinejoin="round"/>
<path d="M1059.67 423.771L1058.01 412.36H1042.23L1043.33 423.771H1059.67Z" fill="#263238" stroke="white" strokeWidth="1.02609" strokeLinecap="round" strokeLinejoin="round"/>
<path d="M1108.63 423.771L1105.35 412.36H1089.57L1092.3 423.771H1108.63Z" fill="#263238" stroke="white" strokeWidth="1.02609" strokeLinecap="round" strokeLinejoin="round"/>
<path d="M1010.7 423.771L1010.68 412.36H994.902L994.365 423.771H1010.7Z" fill="#263238" stroke="white" strokeWidth="1.02609" strokeLinecap="round" strokeLinejoin="round"/>
<path d="M1043.33 423.771L1042.23 412.36H1026.46L1027.02 423.771H1043.33Z" fill="#263238" stroke="white" strokeWidth="1.02609" strokeLinecap="round" strokeLinejoin="round"/>
<path d="M1027.02 423.771L1026.46 412.36H1010.68L1010.7 423.771H1027.02Z" fill="#263238" stroke="white" strokeWidth="1.02609" strokeLinecap="round" strokeLinejoin="round"/>
<path d="M994.365 423.771L994.902 412.36H979.121L978.047 423.771H994.365Z" fill="#263238" stroke="white" strokeWidth="1.02609" strokeLinecap="round" strokeLinejoin="round"/>
<path d="M1043.33 423.771L1044.53 435.987H1061.43L1059.67 423.771H1043.33Z" fill="#263238" stroke="white" strokeWidth="1.02609" strokeLinecap="round" strokeLinejoin="round"/>
<path d="M1059.67 423.771L1061.43 435.987H1078.34L1075.98 423.771H1059.67Z" fill="#263238" stroke="white" strokeWidth="1.02609" strokeLinecap="round" strokeLinejoin="round"/>
<path d="M912.746 423.771L909.256 435.987H926.17L929.079 423.771H912.746Z" fill="#263238" stroke="white" strokeWidth="1.02609" strokeLinecap="round" strokeLinejoin="round"/>
<path d="M1075.98 423.771L1078.34 435.987H1095.24L1092.3 423.771H1075.98Z" fill="#263238" stroke="white" strokeWidth="1.02609" strokeLinecap="round" strokeLinejoin="round"/>
<path d="M1010.7 423.771V435.987H1027.61L1027.02 423.771H1010.7Z" fill="#263238" stroke="white" strokeWidth="1.02609" strokeLinecap="round" strokeLinejoin="round"/>
<path d="M1092.3 423.771L1095.24 435.987H1112.15L1108.63 423.771H1092.3Z" fill="#263238" stroke="white" strokeWidth="1.02609" strokeLinecap="round" strokeLinejoin="round"/>
<path d="M1027.02 423.771L1027.61 435.987H1044.53L1043.33 423.771H1027.02Z" fill="#263238" stroke="white" strokeWidth="1.02609" strokeLinecap="round" strokeLinejoin="round"/>
<path d="M945.396 423.771L943.07 435.987H959.984L961.714 423.771H945.396Z" fill="#263238" stroke="white" strokeWidth="1.02609" strokeLinecap="round" strokeLinejoin="round"/>
<path d="M929.079 423.771L926.17 435.987H943.07L945.397 423.771H929.079Z" fill="#263238" stroke="white" strokeWidth="1.02609" strokeLinecap="round" strokeLinejoin="round"/>
<path d="M994.365 423.771L993.798 435.987H1010.7V423.771H994.365Z" fill="#263238" stroke="white" strokeWidth="1.02609" strokeLinecap="round" strokeLinejoin="round"/>
<path d="M978.047 423.771L976.884 435.987H993.798L994.365 423.771H978.047Z" fill="#263238" stroke="white" strokeWidth="1.02609" strokeLinecap="round" strokeLinejoin="round"/>
<path d="M961.715 423.771L959.984 435.987H976.884L978.047 423.771H961.715Z" fill="#263238" stroke="white" strokeWidth="1.02609" strokeLinecap="round" strokeLinejoin="round"/>
<path d="M1092.3 423.771L1089.57 412.36H1073.79L1075.98 423.771H1092.3Z" fill="#263238" stroke="white" strokeWidth="1.02609" strokeLinecap="round" strokeLinejoin="round"/>
<path d="M903.797 401.695L907.451 390.777H892.7L888.538 401.695H903.797Z" fill="#263238" stroke="white" strokeWidth="1.02609" strokeLinecap="round" strokeLinejoin="round"/>
<path d="M888.538 401.695H874.443L869.893 412.36H884.466L888.538 401.695Z" fill="#263238" stroke="white" strokeWidth="1.02609" strokeLinecap="round" strokeLinejoin="round"/>
<path d="M892.7 390.777H879.096L874.443 401.695H888.538L892.7 390.777Z" fill="#263238" stroke="white" strokeWidth="1.02609" strokeLinecap="round" strokeLinejoin="round"/>
<path d="M884.466 412.36H869.893L865.046 423.771H880.111L884.466 412.36Z" fill="#263238" stroke="white" strokeWidth="1.02609" strokeLinecap="round" strokeLinejoin="round"/>
<path d="M880.111 423.771H865.046L859.825 435.987H875.442L880.111 423.771Z" fill="#263238" stroke="white" strokeWidth="1.02609" strokeLinecap="round" strokeLinejoin="round"/>
<path d="M875.442 435.987H859.825L854.232 449.112H870.415L875.442 435.987Z" fill="#263238" stroke="white" strokeWidth="1.02609" strokeLinecap="round" strokeLinejoin="round"/>
<path d="M1136.9 412.36L1141.28 423.771H1155.72L1150.86 412.36H1136.9Z" fill="#263238" stroke="white" strokeWidth="1.02609" strokeLinecap="round" strokeLinejoin="round"/>
<path d="M1145.97 435.987H1160.93L1155.72 423.771H1141.28L1145.97 435.987Z" fill="#263238" stroke="white" strokeWidth="1.02609" strokeLinecap="round" strokeLinejoin="round"/>
<path d="M1151.01 449.112H1166.52L1160.93 435.987H1145.97L1151.01 449.112Z" fill="#263238" stroke="white" strokeWidth="1.02609" strokeLinecap="round" strokeLinejoin="round"/>
<path d="M1025.94 401.695L1025.4 390.777H1010.67V401.695H1025.94Z" fill="#263238" stroke="white" strokeWidth="1.02609" strokeLinecap="round" strokeLinejoin="round"/>
<path d="M1136.9 412.36H1150.86L1146.31 401.695H1132.81L1136.9 412.36Z" fill="#263238" stroke="white" strokeWidth="1.02609" strokeLinecap="round" strokeLinejoin="round"/>
<path d="M1129.07 435.987H1145.97L1141.28 423.771H1124.95L1129.07 435.987Z" fill="#263238" stroke="white" strokeWidth="1.02609" strokeLinecap="round" strokeLinejoin="round"/>
<path d="M919.07 401.695L922.188 390.777H907.451L903.797 401.695H919.07Z" fill="#263238" stroke="white" strokeWidth="1.02609" strokeLinecap="round" strokeLinejoin="round"/>
<path d="M1117.54 401.695L1121.12 412.36H1136.9L1132.81 401.695H1117.54Z" fill="#263238" stroke="white" strokeWidth="1.02609" strokeLinecap="round" strokeLinejoin="round"/>
<path d="M1146.31 401.695L1141.66 390.777H1128.62L1132.81 401.695H1146.31Z" fill="#263238" stroke="white" strokeWidth="1.02609" strokeLinecap="round" strokeLinejoin="round"/>
<path d="M1132.81 401.695L1128.62 390.777H1113.87L1117.54 401.695H1132.81Z" fill="#263238" stroke="white" strokeWidth="1.02609" strokeLinecap="round" strokeLinejoin="round"/>
<path d="M1078.34 435.987L1080.86 449.112H1098.4L1095.24 435.987H1078.34Z" fill="#263238" stroke="white" strokeWidth="1.02609" strokeLinecap="round" strokeLinejoin="round"/>
<path d="M1133.47 449.112H1151.01L1145.97 435.987H1129.07L1133.47 449.112Z" fill="#263238" stroke="white" strokeWidth="1.02609" strokeLinecap="round" strokeLinejoin="round"/>
<path d="M1117.54 401.695L1113.87 390.777H1099.13L1102.28 401.695H1117.54Z" fill="#263238" stroke="white" strokeWidth="1.02609" strokeLinecap="round" strokeLinejoin="round"/>
<path d="M1112.15 435.987L1115.94 449.112H1133.47L1129.07 435.987H1112.15Z" fill="#263238" stroke="white" strokeWidth="1.02609" strokeLinecap="round" strokeLinejoin="round"/>
<path d="M1095.24 435.987L1098.4 449.112H1115.94L1112.15 435.987H1095.24Z" fill="#263238" stroke="white" strokeWidth="1.02609" strokeLinecap="round" strokeLinejoin="round"/>
<path d="M1124.95 423.771H1141.28L1136.9 412.36H1121.12L1124.95 423.771Z" fill="#263238" stroke="white" strokeWidth="1.02609" strokeLinecap="round" strokeLinejoin="round"/>
<path d="M980.135 401.695L981.18 390.777H966.428L964.877 401.695H980.135Z" fill="#263238" stroke="white" strokeWidth="1.02609" strokeLinecap="round" strokeLinejoin="round"/>
<path d="M1102.28 401.695L1099.13 390.777H1084.38L1087.01 401.695H1102.28Z" fill="#263238" stroke="white" strokeWidth="1.02609" strokeLinecap="round" strokeLinejoin="round"/>
<path d="M964.877 401.695L966.428 390.777H951.691L949.603 401.695H964.877Z" fill="#263238" stroke="white" strokeWidth="1.02609" strokeLinecap="round" strokeLinejoin="round"/>
<path d="M1010.67 401.695V390.777H995.916L995.409 401.695H1010.67Z" fill="#263238" stroke="white" strokeWidth="1.02609" strokeLinecap="round" strokeLinejoin="round"/>
<path d="M949.603 401.695L951.691 390.777H936.94L934.344 401.695H949.603Z" fill="#263238" stroke="white" strokeWidth="1.02609" strokeLinecap="round" strokeLinejoin="round"/>
<path d="M934.344 401.695L936.939 390.777H922.188L919.07 401.695H934.344Z" fill="#263238" stroke="white" strokeWidth="1.02609" strokeLinecap="round" strokeLinejoin="round"/>
<path d="M995.409 401.695L995.916 390.777H981.18L980.136 401.695H995.409Z" fill="#263238" stroke="white" strokeWidth="1.02609" strokeLinecap="round" strokeLinejoin="round"/>
<path d="M1087.01 401.695L1084.38 390.777H1069.64L1071.75 401.695H1087.01Z" fill="#263238" stroke="white" strokeWidth="1.02609" strokeLinecap="round" strokeLinejoin="round"/>
<path d="M1071.75 401.695L1069.64 390.777H1054.89L1056.47 401.695H1071.75Z" fill="#263238" stroke="white" strokeWidth="1.02609" strokeLinecap="round" strokeLinejoin="round"/>
<path d="M1041.2 401.695L1040.16 390.777H1025.4L1025.94 401.695H1041.2Z" fill="#263238" stroke="white" strokeWidth="1.02609" strokeLinecap="round" strokeLinejoin="round"/>
<path d="M1078.34 435.987H1061.43H1044.53H1027.61H1010.7H993.798H976.884H959.984H943.07H926.17H909.256L905.497 449.112H923.038H940.564H958.105H975.646H993.187H1010.71H1028.25H1045.79H1063.32H1080.86L1078.34 435.987Z" fill="#263238" stroke="white" strokeWidth="1.02609" strokeLinecap="round" strokeLinejoin="round"/>
<path d="M1056.47 401.695L1054.89 390.777H1040.16L1041.2 401.695H1056.47Z" fill="#263238" stroke="white" strokeWidth="1.02609" strokeLinecap="round" strokeLinejoin="round"/>
<path d="M1194.94 472.172H819.15V477.497H1194.94V472.172Z" fill="#263238" stroke="#263238" strokeWidth="1.02609" strokeLinecap="round" strokeLinejoin="round"/>
<path opacity="0.15" d="M1107.44 240.367V383.692L1065.78 438L1058.77 440.625L845.059 472.157V479.168L766.781 483.374V406.468H900.247V239.681L1107.44 240.367Z" fill="black"/>
<path d="M718.782 391.09C709.162 391.568 698.736 398.906 698.736 398.906L590 483.374H766.781C766.781 483.374 878.395 399.145 881.737 396.728C887.032 392.91 897.532 390.971 897.532 390.971L892.565 391.09H718.782Z" fill="white" stroke="#263238" strokeWidth="1.02609" strokeLinecap="round" strokeLinejoin="round"/>
<path d="M1125.47 240.501H888.896" stroke="#263238" strokeWidth="1.02609" strokeLinecap="round" strokeLinejoin="round"/>
<path d="M1089.8 189.519C1087.48 189.517 1085.18 189.973 1083.04 190.86C1080.89 191.747 1078.95 193.048 1077.31 194.688C1075.67 196.329 1074.37 198.277 1073.49 200.42C1072.6 202.563 1072.15 204.86 1072.15 207.179V424.069C1072.14 426.929 1071.45 429.747 1070.13 432.285C1068.82 434.824 1066.91 437.009 1064.57 438.658C1062.23 440.307 1059.54 441.372 1056.7 441.764C1053.87 442.156 1050.98 441.862 1048.29 440.909L914.447 393.372C907.427 390.872 899.835 390.448 892.58 392.149V207.179C892.58 202.5 894.439 198.012 897.748 194.702C901.058 191.393 905.546 189.534 910.225 189.534L1089.8 189.519Z" fill="white"/>
<path d="M930.884 399.219L1048.27 440.909C1050.97 441.862 1053.85 442.156 1056.69 441.764C1059.52 441.372 1062.22 440.307 1064.56 438.658C1066.89 437.009 1068.8 434.824 1070.12 432.285C1071.44 429.747 1072.13 426.929 1072.14 424.069V399.219H930.884Z" fill="#4470C7"/>
<path opacity="0.6" d="M930.884 399.219L1048.27 440.909C1050.97 441.862 1053.85 442.156 1056.69 441.764C1059.52 441.372 1062.22 440.307 1064.56 438.658C1066.89 437.009 1068.8 434.824 1070.12 432.285C1071.44 429.747 1072.13 426.929 1072.14 424.069V399.219H930.884Z" fill="white"/>
<path d="M930.884 427.783L1048.27 469.547C1050.97 470.501 1053.86 470.794 1056.69 470.402C1059.53 470.009 1062.22 468.943 1064.56 467.292C1066.9 465.641 1068.81 463.454 1070.13 460.913C1071.44 458.373 1072.13 455.554 1072.14 452.692V427.783H930.884Z" fill="#4470C7"/>
<path d="M1089.8 189.519C1087.48 189.517 1085.18 189.973 1083.04 190.86C1080.89 191.747 1078.95 193.048 1077.31 194.688C1075.67 196.329 1074.37 198.277 1073.49 200.42C1072.6 202.563 1072.15 204.86 1072.15 207.179V424.069C1072.14 426.929 1071.45 429.747 1070.13 432.285C1068.82 434.824 1066.91 437.009 1064.57 438.658C1062.23 440.307 1059.54 441.372 1056.7 441.764C1053.87 442.156 1050.98 441.862 1048.29 440.909L914.447 393.372C907.427 390.872 899.835 390.448 892.58 392.149V207.179C892.58 202.5 894.439 198.012 897.748 194.702C901.058 191.393 905.546 189.534 910.225 189.534L1089.8 189.519Z" stroke="#263238" strokeWidth="1.02609" strokeLinecap="round" strokeLinejoin="round"/>
<path d="M900.172 391.09H892.565" stroke="#263238" strokeWidth="1.02609" strokeLinecap="round" strokeLinejoin="round"/>
<path d="M1054.28 441.968H874.696C872.662 441.959 870.643 441.601 868.73 440.909L837.72 430.005L876.277 400.323C881.483 395.935 887.746 392.985 894.444 391.766C901.143 390.546 908.043 391.1 914.462 393.372L1048.3 440.909C1050.22 441.602 1052.24 441.96 1054.28 441.968Z" fill="white"/>
<path d="M1054.28 441.968H874.696C872.662 441.959 870.643 441.601 868.73 440.909L835.796 429.424L876.247 400.323C881.453 395.935 887.716 392.985 894.414 391.766C901.113 390.546 908.014 391.1 914.432 393.372L1048.27 440.909C1050.2 441.605 1052.23 441.963 1054.28 441.968Z" fill="#4470C7"/>
<path opacity="0.2" d="M1054.28 441.968H874.696C872.662 441.959 870.643 441.601 868.73 440.909L835.796 429.424L876.247 400.323C881.453 395.935 887.716 392.985 894.414 391.766C901.113 390.546 908.014 391.1 914.432 393.372L1048.27 440.909C1050.2 441.605 1052.23 441.963 1054.28 441.968Z" fill="black"/>
<path d="M1054.28 441.968H874.696C872.662 441.959 870.643 441.601 868.73 440.909L837.72 430.005L876.277 400.323C881.483 395.935 887.746 392.985 894.444 391.766C901.143 390.546 908.043 391.1 914.462 393.372L1048.3 440.909C1050.22 441.602 1052.24 441.96 1054.28 441.968V441.968Z" stroke="#263238" strokeWidth="1.02609" strokeLinecap="round" strokeLinejoin="round"/>
<path d="M874.696 441.968H874.309" stroke="#263238" strokeWidth="1.02609" strokeLinecap="round" strokeLinejoin="round"/>
<path d="M1054.62 441.968H1054.28" stroke="#263238" strokeWidth="1.02609" strokeLinecap="round" strokeLinejoin="round"/>
<path d="M1102.27 194.695C1100.63 193.05 1098.69 191.746 1096.55 190.857C1094.41 189.969 1092.11 189.514 1089.8 189.519C1071.42 189.519 1072.15 207.165 1072.15 207.165V240.367H1107.44V207.179C1107.45 204.86 1106.99 202.562 1106.1 200.419C1105.22 198.276 1103.91 196.33 1102.27 194.695Z" fill="white"/>
<path d="M1102.27 194.695C1100.63 193.05 1098.69 191.746 1096.55 190.857C1094.41 189.969 1092.11 189.514 1089.8 189.519C1071.42 189.519 1072.15 207.165 1072.15 207.165V240.367H1107.44V207.179C1107.45 204.86 1106.99 202.562 1106.1 200.419C1105.22 198.276 1103.91 196.33 1102.27 194.695Z" fill="#4470C7"/>
<path opacity="0.2" d="M1102.27 194.695C1100.63 193.05 1098.69 191.746 1096.55 190.857C1094.41 189.969 1092.11 189.514 1089.8 189.519C1071.42 189.519 1072.15 207.165 1072.15 207.165V240.367H1107.44V207.179C1107.45 204.86 1106.99 202.562 1106.1 200.419C1105.22 198.276 1103.91 196.33 1102.27 194.695Z" fill="black"/>
<path d="M1102.27 194.695C1100.63 193.05 1098.69 191.746 1096.55 190.857C1094.41 189.969 1092.11 189.514 1089.8 189.519C1071.42 189.519 1072.15 207.165 1072.15 207.165V240.367H1107.44V207.179C1107.45 204.86 1106.99 202.562 1106.1 200.419C1105.22 198.276 1103.91 196.33 1102.27 194.695V194.695Z" stroke="#263238" strokeWidth="1.02609" strokeLinecap="round" strokeLinejoin="round"/>
<g opacity="0.15">
<path opacity="0.15" d="M909.047 219.917V220.231V227.763V228.076V235.609V235.922V243.44V243.753V251.285V251.598V259.131V259.444V266.962V267.275V274.807V275.121V282.653V282.966V290.484V290.797V298.329V298.643V306.488H926.096V298.643V298.329V290.797V290.484V282.966V282.653V275.121V274.807V267.275V266.962V259.444V259.131V251.598V251.285V243.753V243.44V235.922V235.609V228.076V227.763V220.231V219.917V212.087H909.047V219.917Z" fill="black"/>
<path opacity="0.15" d="M1043.47 212.087H1043.11H1026.79H1026.42H1010.1H1009.73H993.426H993.053H976.735H976.362H960.059H959.686H943.368H942.995H926.32V220.231H942.995H943.368H959.686H960.059H976.362H976.735H993.053H993.426H1009.73H1010.1H1026.42H1026.79H1043.11H1043.47H1060.16V212.087H1043.47Z" fill="black"/>
</g>
<path d="M926.096 212.087H909.047V220.246H926.096V212.087Z" stroke="#263238" strokeWidth="0.256521" strokeLinecap="round" strokeLinejoin="round"/>
<path d="M926.096 219.917H909.047V228.076H926.096V219.917Z" stroke="#263238" strokeWidth="0.256521" strokeLinecap="round" strokeLinejoin="round"/>
<path d="M926.096 227.763H909.047V235.922H926.096V227.763Z" stroke="#263238" strokeWidth="0.256521" strokeLinecap="round" strokeLinejoin="round"/>
<path d="M926.096 235.609H909.047V243.768H926.096V235.609Z" stroke="#263238" strokeWidth="0.256521" strokeLinecap="round" strokeLinejoin="round"/>
<path d="M926.096 243.44H909.047V251.598H926.096V243.44Z" stroke="#263238" strokeWidth="0.256521" strokeLinecap="round" strokeLinejoin="round"/>
<path d="M926.096 251.285H909.047V259.444H926.096V251.285Z" stroke="#263238" strokeWidth="0.256521" strokeLinecap="round" strokeLinejoin="round"/>
<path d="M926.096 259.131H909.047V267.29H926.096V259.131Z" stroke="#263238" strokeWidth="0.256521" strokeLinecap="round" strokeLinejoin="round"/>
<path d="M926.096 266.962H909.047V275.121H926.096V266.962Z" stroke="#263238" strokeWidth="0.256521" strokeLinecap="round" strokeLinejoin="round"/>
<path d="M926.096 274.807H909.047V282.966H926.096V274.807Z" stroke="#263238" strokeWidth="0.256521" strokeLinecap="round" strokeLinejoin="round"/>
<path d="M926.096 282.653H909.047V290.812H926.096V282.653Z" stroke="#263238" strokeWidth="0.256521" strokeLinecap="round" strokeLinejoin="round"/>
<path d="M926.096 290.484H909.047V298.643H926.096V290.484Z" stroke="#263238" strokeWidth="0.256521" strokeLinecap="round" strokeLinejoin="round"/>
<path d="M926.096 298.329H909.047V306.488H926.096V298.329Z" stroke="#263238" strokeWidth="0.256521" strokeLinecap="round" strokeLinejoin="round"/>
<path d="M943.368 212.087H926.32V220.246H943.368V212.087Z" stroke="#263238" strokeWidth="0.256521" strokeLinecap="round" strokeLinejoin="round"/>
<path d="M960.044 212.087H942.995V220.246H960.044V212.087Z" stroke="#263238" strokeWidth="0.256521" strokeLinecap="round" strokeLinejoin="round"/>
<path d="M976.735 212.087H959.686V220.246H976.735V212.087Z" stroke="#263238" strokeWidth="0.256521" strokeLinecap="round" strokeLinejoin="round"/>
<path d="M993.411 212.087H976.362V220.246H993.411V212.087Z" stroke="#263238" strokeWidth="0.256521" strokeLinecap="round" strokeLinejoin="round"/>
<path d="M1010.1 212.087H993.052V220.246H1010.1V212.087Z" stroke="#263238" strokeWidth="0.256521" strokeLinecap="round" strokeLinejoin="round"/>
<path d="M1026.78 212.087H1009.73V220.246H1026.78V212.087Z" stroke="#263238" strokeWidth="0.256521" strokeLinecap="round" strokeLinejoin="round"/>
<path d="M1043.47 212.087H1026.42V220.246H1043.47V212.087Z" stroke="#263238" strokeWidth="0.256521" strokeLinecap="round" strokeLinejoin="round"/>
<path d="M1060.16 212.087H1043.11V220.246H1060.16V212.087Z" stroke="#263238" strokeWidth="0.256521" strokeLinecap="round" strokeLinejoin="round"/>
<path d="M1060.14 220.231H926.096V306.473H1060.14V220.231Z" stroke="#263238" strokeWidth="0.256521" strokeLinecap="round" strokeLinejoin="round"/>
<path d="M943.145 220.231V306.459" stroke="#263238" strokeWidth="0.256521" strokeLinecap="round" strokeLinejoin="round"/>
<path d="M959.835 220.231V306.459" stroke="#263238" strokeWidth="0.256521" strokeLinecap="round" strokeLinejoin="round"/>
<path d="M976.526 220.231V306.459" stroke="#263238" strokeWidth="0.256521" strokeLinecap="round" strokeLinejoin="round"/>
<path d="M993.216 220.231V306.459" stroke="#263238" strokeWidth="0.256521" strokeLinecap="round" strokeLinejoin="round"/>
<path d="M1009.89 220.231V306.459" stroke="#263238" strokeWidth="0.256521" strokeLinecap="round" strokeLinejoin="round"/>
<path d="M1026.58 220.231V306.459" stroke="#263238" strokeWidth="0.256521" strokeLinecap="round" strokeLinejoin="round"/>
<path d="M1043.27 220.231V306.459" stroke="#263238" strokeWidth="0.256521" strokeLinecap="round" strokeLinejoin="round"/>
<path d="M926.096 228.076H1060.05" stroke="#263238" strokeWidth="0.256521" strokeLinecap="round" strokeLinejoin="round"/>
<path d="M926.096 235.892H1060.05" stroke="#263238" strokeWidth="0.256521" strokeLinecap="round" strokeLinejoin="round"/>
<path d="M926.096 243.708H1060.05" stroke="#263238" strokeWidth="0.256521" strokeLinecap="round" strokeLinejoin="round"/>
<path d="M926.096 251.524H1060.05" stroke="#263238" strokeWidth="0.256521" strokeLinecap="round" strokeLinejoin="round"/>
<path d="M926.096 259.34H1060.05" stroke="#263238" strokeWidth="0.256521" strokeLinecap="round" strokeLinejoin="round"/>
<path d="M926.096 267.141H1060.05" stroke="#263238" strokeWidth="0.256521" strokeLinecap="round" strokeLinejoin="round"/>
<path d="M926.096 274.957H1060.05" stroke="#263238" strokeWidth="0.256521" strokeLinecap="round" strokeLinejoin="round"/>
<path d="M926.096 282.772H1060.05" stroke="#263238" strokeWidth="0.256521" strokeLinecap="round" strokeLinejoin="round"/>
<path d="M926.096 290.588H1060.05" stroke="#263238" strokeWidth="0.256521" strokeLinecap="round" strokeLinejoin="round"/>
<path d="M926.096 298.404H1060.05" stroke="#263238" strokeWidth="0.256521" strokeLinecap="round" strokeLinejoin="round"/>
<path d="M840.644 412.092H696.931L706.85 404.559H850.563L840.644 412.092Z" fill="#4470C7"/>
<path d="M620.876 472.56H617.355L706.85 404.559H710.385L620.876 472.56Z" fill="#4470C7"/>
<path d="M808.978 436.106H665.28L676.511 427.693H820.209L808.978 436.106Z" fill="#263238"/>
<path d="M760.606 472.903H616.893L706.85 404.559H850.563L760.606 472.903Z" stroke="#263238" strokeWidth="0.256521" strokeLinecap="round" strokeLinejoin="round"/>
<path d="M721.661 404.813L632.092 472.858" stroke="#263238" strokeWidth="0.256521" strokeLinecap="round" strokeLinejoin="round"/>
<path d="M736.1 404.813L646.531 472.858" stroke="#263238" strokeWidth="0.256521" strokeLinecap="round" strokeLinejoin="round"/>
<path d="M750.523 404.813L660.954 472.858" stroke="#263238" strokeWidth="0.256521" strokeLinecap="round" strokeLinejoin="round"/>
<path d="M764.961 404.813L675.392 472.858" stroke="#263238" strokeWidth="0.256521" strokeLinecap="round" strokeLinejoin="round"/>
<path d="M779.4 404.813L689.831 472.858" stroke="#263238" strokeWidth="0.256521" strokeLinecap="round" strokeLinejoin="round"/>
<path d="M793.838 404.813L704.254 472.858" stroke="#263238" strokeWidth="0.256521" strokeLinecap="round" strokeLinejoin="round"/>
<path d="M808.262 404.813L718.693 472.858" stroke="#263238" strokeWidth="0.256521" strokeLinecap="round" strokeLinejoin="round"/>
<path d="M822.7 404.813L733.131 472.858" stroke="#263238" strokeWidth="0.256521" strokeLinecap="round" strokeLinejoin="round"/>
<path d="M837.138 404.813L747.555 472.858" stroke="#263238" strokeWidth="0.256521" strokeLinecap="round" strokeLinejoin="round"/>
<path d="M688.13 418.968H831.411" stroke="#263238" strokeWidth="0.256521" strokeLinecap="round" strokeLinejoin="round"/>
<path d="M676.69 427.664H819.971" stroke="#263238" strokeWidth="0.256521" strokeLinecap="round" strokeLinejoin="round"/>
<path d="M665.25 436.359H808.53" stroke="#263238" strokeWidth="0.256521" strokeLinecap="round" strokeLinejoin="round"/>
<path d="M653.809 445.04H797.09" stroke="#263238" strokeWidth="0.256521" strokeLinecap="round" strokeLinejoin="round"/>
<path d="M642.369 453.736H785.65" stroke="#263238" strokeWidth="0.256521" strokeLinecap="round" strokeLinejoin="round"/>
<path d="M630.929 462.432H774.209" stroke="#263238" strokeWidth="0.256521" strokeLinecap="round" strokeLinejoin="round"/>
<path d="M1060.38 313.066H908.913V318.63H1060.38V313.066Z" fill="#4470C7"/>
<path d="M912.627 313.066H908.913V384.721H912.627V313.066Z" fill="#4470C7"/>
<path d="M1060.38 313.066H908.913V385.094H1060.38V313.066Z" stroke="#263238" strokeWidth="0.256521" strokeLinecap="round" strokeLinejoin="round"/>
<path d="M924.873 313.335V385.049" stroke="#263238" strokeWidth="0.256521" strokeLinecap="round" strokeLinejoin="round"/>
<path d="M940.087 313.335V385.049" stroke="#263238" strokeWidth="0.256521" strokeLinecap="round" strokeLinejoin="round"/>
<path d="M955.301 313.335V385.049" stroke="#263238" strokeWidth="0.256521" strokeLinecap="round" strokeLinejoin="round"/>
<path d="M970.515 313.335V385.049" stroke="#263238" strokeWidth="0.256521" strokeLinecap="round" strokeLinejoin="round"/>
<path d="M985.729 313.335V385.049" stroke="#263238" strokeWidth="0.256521" strokeLinecap="round" strokeLinejoin="round"/>
<path d="M1000.94 313.335V385.049" stroke="#263238" strokeWidth="0.256521" strokeLinecap="round" strokeLinejoin="round"/>
<path d="M1016.16 313.335V385.049" stroke="#263238" strokeWidth="0.256521" strokeLinecap="round" strokeLinejoin="round"/>
<path d="M1031.36 313.335V385.049" stroke="#263238" strokeWidth="0.256521" strokeLinecap="round" strokeLinejoin="round"/>
<path d="M1046.57 313.335V385.049" stroke="#263238" strokeWidth="0.256521" strokeLinecap="round" strokeLinejoin="round"/>
<path d="M909.166 328.25H1060.19" stroke="#263238" strokeWidth="0.256521" strokeLinecap="round" strokeLinejoin="round"/>
<path d="M909.166 337.424H1060.19" stroke="#263238" strokeWidth="0.256521" strokeLinecap="round" strokeLinejoin="round"/>
<path d="M909.166 346.582H1060.19" stroke="#263238" strokeWidth="0.256521" strokeLinecap="round" strokeLinejoin="round"/>
<path d="M909.166 355.74H1060.19" stroke="#263238" strokeWidth="0.256521" strokeLinecap="round" strokeLinejoin="round"/>
<path d="M909.166 364.898H1060.19" stroke="#263238" strokeWidth="0.256521" strokeLinecap="round" strokeLinejoin="round"/>
<path d="M909.166 374.057H1060.19" stroke="#263238" strokeWidth="0.256521" strokeLinecap="round" strokeLinejoin="round"/>
<path d="M1010.24 359.036H1003.93V373.773H1010.24V359.036Z" fill="#263238" stroke="#263238" strokeWidth="0.513043" strokeMiterlimit="10"/>
<path d="M1020.35 350.206H1014.04V373.788H1020.35V350.206Z" fill="#4470C7" stroke="#263238" strokeWidth="0.513043" strokeMiterlimit="10"/>
<path d="M1030.45 335.47H1024.14V373.788H1030.45V335.47Z" fill="#263238" stroke="#263238" strokeWidth="0.513043" strokeMiterlimit="10"/>
<path d="M1040.56 349.774H1034.25V373.773H1040.56V349.774Z" fill="#4470C7" stroke="#263238" strokeWidth="0.513043" strokeMiterlimit="10"/>
<path d="M1050.66 335.47H1044.35V373.788H1050.66V335.47Z" fill="#263238" stroke="#263238" strokeWidth="0.513043" strokeMiterlimit="10"/>
<path d="M945.277 356.068V373.579C940.633 373.579 936.179 371.734 932.895 368.45C929.611 365.166 927.766 360.712 927.766 356.068C927.766 351.424 929.611 346.97 932.895 343.686C936.179 340.402 940.633 338.557 945.277 338.557V356.068Z" fill="#4470C7" stroke="#263238" strokeWidth="0.513043" strokeMiterlimit="10"/>
<path d="M945.277 356.068L961.923 350.654C962.64 352.842 962.918 355.149 962.741 357.445C962.564 359.74 961.936 361.978 960.893 364.03C959.849 366.082 958.411 367.908 956.661 369.404C954.91 370.899 952.882 372.034 950.692 372.744C948.947 373.328 947.118 373.621 945.277 373.609V356.068Z" fill="white" stroke="#263238" strokeWidth="0.513043" strokeMiterlimit="10"/>
<path d="M945.277 356.068V338.557C948.984 338.514 952.606 339.668 955.605 341.847C958.604 344.026 960.82 347.115 961.923 350.654L945.277 356.068Z" fill="#263238" stroke="#263238" strokeWidth="0.513043" strokeMiterlimit="10"/>
<path d="M56.5789 205.078V193.526H56.1607L48.4766 212.292L40.7925 193.526H40.3744V205.078V223.374H36.3494V186.887H41.9948L48.4244 202.987H48.738L55.1675 186.887H60.6039V223.374H56.5789V205.078ZM85.528 218.983H85.3189C85.0402 219.645 84.6917 220.29 84.2735 220.917C83.8553 221.509 83.3326 222.032 82.7053 222.485C82.1129 222.938 81.3985 223.304 80.5621 223.583C79.7258 223.862 78.75 224.001 77.6349 224.001C74.8121 224.001 72.547 223.112 70.8394 221.335C69.1318 219.523 68.278 216.979 68.278 213.703V196.401H72.4599V212.972C72.4599 215.446 73 217.293 74.0803 218.512C75.1606 219.697 76.7462 220.29 78.8371 220.29C79.6735 220.29 80.4924 220.185 81.2939 219.976C82.0955 219.767 82.8099 219.453 83.4371 219.035C84.0644 218.617 84.5697 218.094 84.953 217.467C85.3364 216.805 85.528 216.021 85.528 215.115V196.401H89.7099V223.374H85.528V218.983ZM111.498 190.442C110.278 190.442 109.424 190.198 108.936 189.71C108.448 189.187 108.204 188.543 108.204 187.776V186.94C108.204 186.173 108.448 185.546 108.936 185.058C109.424 184.535 110.278 184.274 111.498 184.274C112.717 184.274 113.571 184.535 114.059 185.058C114.547 185.546 114.791 186.173 114.791 186.94V187.776C114.791 188.543 114.547 189.187 114.059 189.71C113.571 190.198 112.717 190.442 111.498 190.442ZM99.684 219.819H109.407V199.956H99.684V196.401H113.589V219.819H122.684V223.374H99.684V219.819ZM141.806 223.374C139.75 223.374 138.234 222.799 137.258 221.649C136.317 220.499 135.847 219.018 135.847 217.206V199.956H126.856V196.401H133.547C134.453 196.401 135.08 196.227 135.429 195.878C135.812 195.495 136.004 194.85 136.004 193.944V186.887H140.029V196.401H152.313V199.956H140.029V219.819H152.313V223.374H141.806ZM171.173 224.001C169.291 224.001 167.584 223.67 166.05 223.008C164.552 222.346 163.263 221.405 162.182 220.185C161.137 218.931 160.335 217.45 159.778 215.742C159.22 214 158.941 212.048 158.941 209.887C158.941 207.762 159.22 205.828 159.778 204.085C160.335 202.343 161.137 200.862 162.182 199.642C163.263 198.387 164.552 197.429 166.05 196.767C167.584 196.105 169.291 195.774 171.173 195.774C173.055 195.774 174.745 196.105 176.244 196.767C177.777 197.429 179.066 198.387 180.112 199.642C181.192 200.862 182.011 202.343 182.569 204.085C183.126 205.828 183.405 207.762 183.405 209.887C183.405 212.048 183.126 214 182.569 215.742C182.011 217.45 181.192 218.931 180.112 220.185C179.066 221.405 177.777 222.346 176.244 223.008C174.745 223.67 173.055 224.001 171.173 224.001ZM171.173 220.394C173.508 220.394 175.39 219.697 176.819 218.303C178.247 216.909 178.962 214.749 178.962 211.822V207.953C178.962 205.026 178.247 202.865 176.819 201.472C175.39 200.078 173.508 199.381 171.173 199.381C168.838 199.381 166.956 200.078 165.528 201.472C164.099 202.865 163.385 205.026 163.385 207.953V211.822C163.385 214.749 164.099 216.909 165.528 218.303C166.956 219.697 168.838 220.394 171.173 220.394ZM219.662 223.374V196.401H223.53V199.537H223.74C224.158 198.492 224.75 197.603 225.517 196.872C226.284 196.14 227.416 195.774 228.915 195.774C230.483 195.774 231.65 196.175 232.417 196.976C233.184 197.743 233.654 198.753 233.828 200.008H233.985C234.473 198.788 235.17 197.778 236.076 196.976C236.982 196.175 238.237 195.774 239.84 195.774C242.035 195.774 243.499 196.54 244.23 198.074C244.997 199.607 245.38 201.803 245.38 204.66V223.374H241.512V205.34C241.512 203.04 241.268 201.454 240.78 200.583C240.327 199.677 239.474 199.224 238.219 199.224C237.104 199.224 236.198 199.59 235.501 200.322C234.804 201.018 234.455 202.099 234.455 203.562V223.374H230.587V205.34C230.587 203.04 230.343 201.454 229.855 200.583C229.402 199.677 228.566 199.224 227.346 199.224C226.231 199.224 225.308 199.59 224.576 200.322C223.879 201.018 223.53 202.099 223.53 203.562V223.374H219.662ZM273.389 223.374C271.751 223.374 270.583 222.956 269.886 222.119C269.189 221.283 268.754 220.237 268.58 218.983H268.318C267.726 220.551 266.768 221.788 265.443 222.694C264.154 223.565 262.411 224.001 260.216 224.001C257.393 224.001 255.146 223.269 253.473 221.806C251.8 220.342 250.964 218.338 250.964 215.794C250.964 213.285 251.87 211.351 253.682 209.992C255.529 208.633 258.491 207.953 262.568 207.953H268.318V205.287C268.318 203.301 267.761 201.82 266.646 200.844C265.53 199.834 263.945 199.328 261.889 199.328C260.077 199.328 258.596 199.694 257.446 200.426C256.296 201.123 255.372 202.081 254.675 203.301L251.852 201.21C252.201 200.513 252.671 199.834 253.264 199.172C253.856 198.509 254.588 197.934 255.459 197.447C256.33 196.924 257.324 196.523 258.439 196.244C259.554 195.931 260.791 195.774 262.15 195.774C265.321 195.774 267.83 196.575 269.677 198.178C271.559 199.781 272.5 202.012 272.5 204.869V219.715H276.264V223.374H273.389ZM260.948 220.499C262.028 220.499 263.004 220.377 263.875 220.133C264.781 219.854 265.565 219.506 266.227 219.087C266.889 218.634 267.395 218.112 267.743 217.519C268.127 216.892 268.318 216.23 268.318 215.533V211.09H262.568C260.059 211.09 258.23 211.438 257.08 212.135C255.93 212.832 255.355 213.843 255.355 215.167V216.265C255.355 217.659 255.843 218.722 256.818 219.453C257.829 220.15 259.205 220.499 260.948 220.499ZM295.542 190.442C294.323 190.442 293.469 190.198 292.981 189.71C292.493 189.187 292.249 188.543 292.249 187.776V186.94C292.249 186.173 292.493 185.546 292.981 185.058C293.469 184.535 294.323 184.274 295.542 184.274C296.762 184.274 297.616 184.535 298.104 185.058C298.592 185.546 298.836 186.173 298.836 186.94V187.776C298.836 188.543 298.592 189.187 298.104 189.71C297.616 190.198 296.762 190.442 295.542 190.442ZM283.729 219.819H293.452V199.956H283.729V196.401H297.633V219.819H306.729V223.374H283.729V219.819ZM324.857 224.001C322.035 224.001 319.595 223.531 317.539 222.59C315.518 221.614 313.793 220.325 312.364 218.722L315.187 216.265C316.476 217.624 317.888 218.669 319.421 219.401C320.954 220.133 322.801 220.499 324.962 220.499C327.053 220.499 328.76 220.133 330.085 219.401C331.444 218.634 332.123 217.45 332.123 215.847C332.123 215.15 331.984 214.575 331.705 214.122C331.461 213.634 331.113 213.25 330.66 212.972C330.207 212.693 329.701 212.484 329.144 212.344C328.586 212.17 327.994 212.031 327.367 211.926L323.132 211.299C322.192 211.159 321.164 210.968 320.048 210.724C318.968 210.48 317.975 210.097 317.069 209.574C316.163 209.016 315.396 208.284 314.769 207.378C314.176 206.472 313.88 205.287 313.88 203.824C313.88 202.465 314.142 201.297 314.664 200.322C315.222 199.311 315.989 198.475 316.964 197.812C317.94 197.115 319.09 196.61 320.414 196.297C321.739 195.948 323.185 195.774 324.753 195.774C327.192 195.774 329.301 196.157 331.078 196.924C332.89 197.69 334.441 198.753 335.73 200.112L333.012 202.674C332.698 202.29 332.298 201.907 331.81 201.524C331.357 201.106 330.782 200.74 330.085 200.426C329.423 200.078 328.639 199.799 327.732 199.59C326.826 199.381 325.781 199.276 324.596 199.276C322.47 199.276 320.832 199.642 319.682 200.374C318.567 201.106 318.01 202.168 318.01 203.562C318.01 204.259 318.132 204.852 318.376 205.34C318.654 205.793 319.02 206.159 319.473 206.437C319.926 206.716 320.432 206.943 320.989 207.117C321.582 207.256 322.174 207.378 322.767 207.483L327.001 208.11C327.976 208.25 329.004 208.441 330.085 208.685C331.165 208.929 332.158 209.33 333.064 209.887C333.97 210.41 334.72 211.125 335.312 212.031C335.939 212.937 336.253 214.122 336.253 215.585C336.253 218.268 335.207 220.342 333.117 221.806C331.06 223.269 328.307 224.001 324.857 224.001Z" fill="#373D3F"/>
<path d="M38.9215 259.586H53.7753V269.02H54.4778C55.7491 265.942 57.5891 263.4 59.9978 261.393C62.4065 259.385 65.6851 258.382 69.8335 258.382C72.7106 258.382 75.32 258.917 77.6618 259.988C80.0706 261.058 82.1113 262.697 83.784 264.905C85.5236 267.113 86.8618 269.924 87.7986 273.336C88.8022 276.748 89.304 280.796 89.304 285.48C89.304 290.164 88.8022 294.212 87.7986 297.624C86.8618 301.036 85.5236 303.847 83.784 306.055C82.1113 308.263 80.0706 309.902 77.6618 310.972C75.32 312.043 72.7106 312.578 69.8335 312.578C65.6851 312.578 62.4065 311.608 59.9978 309.668C57.5891 307.66 55.7491 305.084 54.4778 301.94H53.7753V331.447H38.9215V259.586ZM63.4102 301.036C66.7556 301.036 69.3316 300.033 71.1382 298.025C72.9447 295.951 73.848 293.108 73.848 289.495V281.465C73.848 277.852 72.9447 275.042 71.1382 273.035C69.3316 270.961 66.7556 269.924 63.4102 269.924C60.8007 269.924 58.5258 270.559 56.5855 271.83C54.712 273.102 53.7753 275.109 53.7753 277.852V293.108C53.7753 295.851 54.712 297.858 56.5855 299.129C58.5258 300.401 60.8007 301.036 63.4102 301.036ZM99.9368 299.832H111.88V271.128H99.9368V259.586H126.734V274.239H127.436C127.905 272.366 128.54 270.559 129.343 268.82C130.213 267.013 131.284 265.441 132.555 264.102C133.893 262.697 135.499 261.593 137.372 260.791C139.246 259.988 141.454 259.586 143.996 259.586H148.914V273.236H137.874C134.194 273.236 131.418 274.34 129.544 276.548C127.671 278.689 126.734 281.332 126.734 284.476V299.832H143.796V311.374H99.9368V299.832ZM200.897 311.374C197.819 311.374 195.343 310.604 193.47 309.065C191.597 307.46 190.493 305.185 190.158 302.241H189.656C188.719 305.653 186.846 308.229 184.036 309.969C181.293 311.708 177.914 312.578 173.899 312.578C168.881 312.578 164.833 311.24 161.755 308.564C158.744 305.82 157.239 302.007 157.239 297.122C157.239 291.703 159.213 287.688 163.16 285.079C167.108 282.469 172.895 281.164 180.523 281.164H188.853V278.555C188.853 275.477 188.117 273.169 186.645 271.63C185.24 270.024 182.831 269.221 179.419 269.221C176.274 269.221 173.732 269.823 171.791 271.028C169.851 272.232 168.178 273.804 166.773 275.745L158.644 268.519C160.383 265.574 163.093 263.166 166.773 261.292C170.52 259.352 175.304 258.382 181.125 258.382C188.218 258.382 193.738 260.021 197.685 263.3C201.7 266.511 203.707 271.396 203.707 277.953V300.635H209.428V311.374H200.897ZM179.519 302.843C182.129 302.843 184.337 302.207 186.143 300.936C187.95 299.665 188.853 297.825 188.853 295.416V289.193H180.925C174.836 289.193 171.791 291.234 171.791 295.316V297.323C171.791 299.129 172.494 300.501 173.899 301.438C175.304 302.375 177.178 302.843 179.519 302.843ZM245.653 311.374C240.301 311.374 236.32 309.969 233.71 307.159C231.101 304.348 229.796 300.769 229.796 296.42V271.128H215.745V259.586H224.878C227.086 259.586 228.658 259.151 229.595 258.281C230.532 257.412 231 255.806 231 253.464V241.32H244.65V259.586H264.823V271.128H244.65V299.832H264.823V311.374H245.653ZM304.36 252.962C301.015 252.962 298.673 252.293 297.335 250.955C296.064 249.55 295.428 247.877 295.428 245.937V243.026C295.428 241.019 296.064 239.346 297.335 238.008C298.673 236.67 301.015 236.001 304.36 236.001C307.706 236.001 310.014 236.67 311.285 238.008C312.624 239.346 313.293 241.019 313.293 243.026V245.937C313.293 247.877 312.624 249.55 311.285 250.955C310.014 252.293 307.706 252.962 304.36 252.962ZM280.474 299.832H296.933V271.128H280.474V259.586H311.787V299.832H327.042V311.374H280.474V299.832ZM362.766 312.578C358.685 312.578 355.005 311.976 351.726 310.772C348.515 309.5 345.771 307.694 343.496 305.352C341.288 303.01 339.582 300.167 338.378 296.821C337.173 293.476 336.571 289.695 336.571 285.48C336.571 281.265 337.173 277.484 338.378 274.139C339.582 270.793 341.288 267.95 343.496 265.608C345.771 263.266 348.515 261.493 351.726 260.289C355.005 259.017 358.651 258.382 362.666 258.382C368.353 258.382 372.903 259.553 376.315 261.894C379.795 264.169 382.437 267.214 384.244 271.028L372.803 277.25C371.866 275.243 370.628 273.57 369.089 272.232C367.617 270.894 365.476 270.225 362.666 270.225C359.253 270.225 356.611 271.228 354.737 273.236C352.931 275.176 352.027 277.852 352.027 281.265V289.695C352.027 293.108 352.931 295.817 354.737 297.825C356.611 299.765 359.32 300.735 362.867 300.735C365.744 300.735 367.985 300.066 369.591 298.728C371.264 297.39 372.669 295.65 373.806 293.509L385.047 299.932C383.173 303.746 380.43 306.824 376.817 309.166C373.271 311.441 368.587 312.578 362.766 312.578ZM423.38 252.962C420.035 252.962 417.693 252.293 416.355 250.955C415.083 249.55 414.448 247.877 414.448 245.937V243.026C414.448 241.019 415.083 239.346 416.355 238.008C417.693 236.67 420.035 236.001 423.38 236.001C426.726 236.001 429.034 236.67 430.305 238.008C431.643 239.346 432.312 241.019 432.312 243.026V245.937C432.312 247.877 431.643 249.55 430.305 250.955C429.034 252.293 426.726 252.962 423.38 252.962ZM399.494 299.832H415.953V271.128H399.494V259.586H430.807V299.832H446.062V311.374H399.494V299.832ZM489.012 301.94H488.31C486.971 305.084 485.098 307.66 482.689 309.668C480.347 311.608 477.102 312.578 472.954 312.578C470.077 312.578 467.434 312.043 465.025 310.972C462.683 309.902 460.643 308.263 458.903 306.055C457.23 303.847 455.892 301.036 454.889 297.624C453.952 294.212 453.483 290.164 453.483 285.48C453.483 280.796 453.952 276.748 454.889 273.336C455.892 269.924 457.23 267.113 458.903 264.905C460.643 262.697 462.683 261.058 465.025 259.988C467.434 258.917 470.077 258.382 472.954 258.382C475.028 258.382 476.868 258.649 478.474 259.185C480.08 259.72 481.485 260.456 482.689 261.393C483.961 262.329 485.031 263.467 485.901 264.805C486.838 266.076 487.641 267.481 488.31 269.02H489.012V237.105H503.866V311.374H489.012V301.94ZM479.377 301.036C481.987 301.036 484.228 300.401 486.102 299.129C488.042 297.858 489.012 295.851 489.012 293.108V277.852C489.012 275.109 488.042 273.102 486.102 271.83C484.228 270.559 481.987 269.924 479.377 269.924C476.032 269.924 473.456 270.961 471.649 273.035C469.843 275.042 468.939 277.852 468.939 281.465V289.495C468.939 293.108 469.843 295.951 471.649 298.025C473.456 300.033 476.032 301.036 479.377 301.036ZM557.956 311.374C554.878 311.374 552.403 310.604 550.529 309.065C548.656 307.46 547.552 305.185 547.217 302.241H546.716C545.779 305.653 543.905 308.229 541.095 309.969C538.352 311.708 534.973 312.578 530.958 312.578C525.94 312.578 521.892 311.24 518.814 308.564C515.804 305.82 514.298 302.007 514.298 297.122C514.298 291.703 516.272 287.688 520.22 285.079C524.167 282.469 529.955 281.164 537.582 281.164H545.913V278.555C545.913 275.477 545.177 273.169 543.705 271.63C542.3 270.024 539.891 269.221 536.478 269.221C533.334 269.221 530.791 269.823 528.851 271.028C526.91 272.232 525.238 273.804 523.833 275.745L515.703 268.519C517.443 265.574 520.153 263.166 523.833 261.292C527.58 259.352 532.364 258.382 538.185 258.382C545.277 258.382 550.797 260.021 554.745 263.3C558.759 266.511 560.766 271.396 560.766 277.953V300.635H566.487V311.374H557.956ZM536.579 302.843C539.188 302.843 541.396 302.207 543.203 300.936C545.009 299.665 545.913 297.825 545.913 295.416V289.193H537.984C531.895 289.193 528.851 291.234 528.851 295.316V297.323C528.851 299.129 529.553 300.501 530.958 301.438C532.364 302.375 534.237 302.843 536.579 302.843ZM608.032 301.94H607.329C605.991 305.084 604.118 307.66 601.709 309.668C599.367 311.608 596.122 312.578 591.974 312.578C589.097 312.578 586.454 312.043 584.045 310.972C581.703 309.902 579.663 308.263 577.923 306.055C576.25 303.847 574.912 301.036 573.908 297.624C572.972 294.212 572.503 290.164 572.503 285.48C572.503 280.796 572.972 276.748 573.908 273.336C574.912 269.924 576.25 267.113 577.923 264.905C579.663 262.697 581.703 261.058 584.045 259.988C586.454 258.917 589.097 258.382 591.974 258.382C594.048 258.382 595.888 258.649 597.494 259.185C599.1 259.72 600.505 260.456 601.709 261.393C602.98 262.329 604.051 263.467 604.921 264.805C605.857 266.076 606.66 267.481 607.329 269.02H608.032V237.105H622.886V311.374H608.032V301.94ZM598.397 301.036C601.007 301.036 603.248 300.401 605.121 299.129C607.062 297.858 608.032 295.851 608.032 293.108V277.852C608.032 275.109 607.062 273.102 605.121 271.83C603.248 270.559 601.007 269.924 598.397 269.924C595.052 269.924 592.476 270.961 590.669 273.035C588.863 275.042 587.959 277.852 587.959 281.465V289.495C587.959 293.108 588.863 295.951 590.669 298.025C592.476 300.033 595.052 301.036 598.397 301.036ZM659.613 312.578C650.915 312.578 644.324 310.169 639.841 305.352C635.359 300.535 633.117 293.977 633.117 285.681C633.117 281.465 633.686 277.685 634.823 274.34C636.028 270.927 637.7 268.05 639.841 265.708C642.049 263.3 644.692 261.493 647.77 260.289C650.915 259.017 654.428 258.382 658.308 258.382C662.189 258.382 665.668 259.017 668.746 260.289C671.824 261.493 674.433 263.233 676.575 265.508C678.716 267.783 680.355 270.559 681.492 273.838C682.697 277.049 683.299 280.663 683.299 284.677V289.093H647.871V289.996C647.871 293.342 648.908 296.052 650.982 298.126C653.056 300.133 656.1 301.137 660.115 301.137C663.193 301.137 665.836 300.568 668.044 299.431C670.252 298.226 672.159 296.654 673.764 294.713L681.793 303.445C679.786 305.921 676.976 308.062 673.363 309.868C669.75 311.675 665.167 312.578 659.613 312.578ZM658.409 269.02C655.197 269.02 652.621 270.024 650.681 272.031C648.807 273.972 647.871 276.615 647.871 279.96V280.763H668.746V279.96C668.746 276.548 667.809 273.871 665.936 271.931C664.129 269.991 661.62 269.02 658.409 269.02Z" fill="#373D3F"/>
<path d="M37.9659 354.401H42.1477V358.792H42.3568C44.0992 355.447 46.8697 353.774 50.6682 353.774C53.9788 353.774 56.5576 355.011 58.4045 357.485C60.2864 359.959 61.2273 363.427 61.2273 367.887C61.2273 372.348 60.2864 375.815 58.4045 378.29C56.5576 380.764 53.9788 382.001 50.6682 382.001C46.8697 382.001 44.0992 380.328 42.3568 376.983H42.1477V391.828H37.9659V354.401ZM49.0477 378.29C51.4871 378.29 53.3689 377.558 54.6932 376.094C56.0523 374.596 56.7318 372.627 56.7318 370.187V365.587C56.7318 363.148 56.0523 361.197 54.6932 359.733C53.3689 358.234 51.4871 357.485 49.0477 357.485C48.1068 357.485 47.2182 357.607 46.3818 357.851C45.5455 358.095 44.8136 358.461 44.1864 358.949C43.5591 359.402 43.0538 359.977 42.6705 360.674C42.322 361.336 42.1477 362.12 42.1477 363.026V372.749C42.1477 373.655 42.322 374.456 42.6705 375.153C43.0538 375.815 43.5591 376.39 44.1864 376.878C44.8136 377.331 45.5455 377.68 46.3818 377.924C47.2182 378.168 48.1068 378.29 49.0477 378.29ZM89.5491 381.374C87.9113 381.374 86.7438 380.956 86.0469 380.119C85.3499 379.283 84.9143 378.237 84.74 376.983H84.4787C83.8863 378.551 82.9279 379.788 81.6037 380.694C80.3143 381.565 78.5719 382.001 76.3764 382.001C73.5537 382.001 71.3059 381.269 69.6332 379.806C67.9605 378.342 67.1241 376.338 67.1241 373.794C67.1241 371.285 68.0302 369.351 69.8423 367.992C71.6893 366.633 74.6514 365.953 78.7287 365.953H84.4787V363.287C84.4787 361.301 83.9211 359.82 82.806 358.844C81.6908 357.834 80.1052 357.328 78.0491 357.328C76.237 357.328 74.7559 357.694 73.6059 358.426C72.4559 359.123 71.5325 360.081 70.8355 361.301L68.0128 359.21C68.3613 358.513 68.8317 357.834 69.4241 357.172C70.0166 356.509 70.7484 355.934 71.6196 355.447C72.4908 354.924 73.484 354.523 74.5991 354.244C75.7143 353.931 76.9514 353.774 78.3105 353.774C81.4817 353.774 83.9908 354.575 85.8378 356.178C87.7196 357.781 88.6605 360.012 88.6605 362.869V377.715H92.4241V381.374H89.5491ZM77.1082 378.499C78.1885 378.499 79.1643 378.377 80.0355 378.133C80.9416 377.854 81.7256 377.506 82.3878 377.087C83.0499 376.634 83.5552 376.112 83.9037 375.519C84.287 374.892 84.4787 374.23 84.4787 373.533V369.09H78.7287C76.2196 369.09 74.39 369.438 73.24 370.135C72.09 370.832 71.515 371.843 71.515 373.167V374.265C71.515 375.659 72.0029 376.722 72.9787 377.453C73.9893 378.15 75.3658 378.499 77.1082 378.499ZM98.3733 377.819H106.266V357.956H98.3733V354.401H110.448V361.197H110.71C111.267 359.071 112.313 357.415 113.846 356.231C115.414 355.011 117.401 354.401 119.805 354.401H123.569V358.583H118.498C116.094 358.583 114.142 359.28 112.644 360.674C111.18 362.068 110.448 363.897 110.448 366.162V377.819H120.903V381.374H98.3733V377.819ZM150.897 381.374C149.26 381.374 148.092 380.956 147.395 380.119C146.698 379.283 146.263 378.237 146.088 376.983H145.827C145.235 378.551 144.276 379.788 142.952 380.694C141.663 381.565 139.92 382.001 137.725 382.001C134.902 382.001 132.654 381.269 130.981 379.806C129.309 378.342 128.472 376.338 128.472 373.794C128.472 371.285 129.378 369.351 131.191 367.992C133.038 366.633 136 365.953 140.077 365.953H145.827V363.287C145.827 361.301 145.269 359.82 144.154 358.844C143.039 357.834 141.453 357.328 139.397 357.328C137.585 357.328 136.104 357.694 134.954 358.426C133.804 359.123 132.881 360.081 132.184 361.301L129.361 359.21C129.71 358.513 130.18 357.834 130.772 357.172C131.365 356.509 132.097 355.934 132.968 355.447C133.839 354.924 134.832 354.523 135.947 354.244C137.063 353.931 138.3 353.774 139.659 353.774C142.83 353.774 145.339 354.575 147.186 356.178C149.068 357.781 150.009 360.012 150.009 362.869V377.715H153.772V381.374H150.897ZM138.456 378.499C139.537 378.499 140.513 378.377 141.384 378.133C142.29 377.854 143.074 377.506 143.736 377.087C144.398 376.634 144.903 376.112 145.252 375.519C145.635 374.892 145.827 374.23 145.827 373.533V369.09H140.077C137.568 369.09 135.738 369.438 134.588 370.135C133.438 370.832 132.863 371.843 132.863 373.167V374.265C132.863 375.659 133.351 376.722 134.327 377.453C135.338 378.15 136.714 378.499 138.456 378.499ZM202.052 382.001C200.171 382.001 198.463 381.67 196.93 381.008C195.431 380.346 194.142 379.405 193.062 378.185C192.016 376.931 191.215 375.45 190.657 373.742C190.099 372 189.821 370.048 189.821 367.887C189.821 365.762 190.099 363.828 190.657 362.085C191.215 360.343 192.016 358.862 193.062 357.642C194.142 356.387 195.431 355.429 196.93 354.767C198.463 354.105 200.171 353.774 202.052 353.774C203.934 353.774 205.624 354.105 207.123 354.767C208.656 355.429 209.946 356.387 210.991 357.642C212.071 358.862 212.89 360.343 213.448 362.085C214.006 363.828 214.284 365.762 214.284 367.887C214.284 370.048 214.006 372 213.448 373.742C212.89 375.45 212.071 376.931 210.991 378.185C209.946 379.405 208.656 380.346 207.123 381.008C205.624 381.67 203.934 382.001 202.052 382.001ZM202.052 378.394C204.387 378.394 206.269 377.697 207.698 376.303C209.127 374.909 209.841 372.749 209.841 369.822V365.953C209.841 363.026 209.127 360.865 207.698 359.472C206.269 358.078 204.387 357.381 202.052 357.381C199.718 357.381 197.836 358.078 196.407 359.472C194.978 360.865 194.264 363.026 194.264 365.953V369.822C194.264 372.749 194.978 374.909 196.407 376.303C197.836 377.697 199.718 378.394 202.052 378.394ZM221.07 377.819H228.963V357.956H221.07V354.401H233.145V361.197H233.406C233.964 359.071 235.009 357.415 236.542 356.231C238.111 355.011 240.097 354.401 242.502 354.401H246.265V358.583H241.195C238.79 358.583 236.839 359.28 235.34 360.674C233.877 362.068 233.145 363.897 233.145 366.162V377.819H243.599V381.374H221.07V377.819ZM277.044 384.458C277.044 387.176 275.911 389.18 273.646 390.469C271.381 391.793 267.983 392.456 263.453 392.456C259.097 392.456 255.961 391.881 254.044 390.731C252.162 389.581 251.221 387.925 251.221 385.765C251.221 384.301 251.605 383.168 252.371 382.367C253.138 381.565 254.218 380.973 255.612 380.59V379.962C254.845 379.579 254.253 379.091 253.835 378.499C253.417 377.906 253.208 377.157 253.208 376.251C253.208 374.857 253.661 373.812 254.567 373.115C255.508 372.418 256.675 371.895 258.069 371.547V371.337C256.396 370.606 255.089 369.525 254.148 368.097C253.242 366.668 252.789 364.995 252.789 363.078C252.789 361.719 253.033 360.465 253.521 359.315C254.009 358.165 254.706 357.189 255.612 356.387C256.553 355.551 257.668 354.906 258.958 354.453C260.247 354 261.676 353.774 263.244 353.774C265.265 353.774 267.042 354.14 268.576 354.872V354.401C268.576 353.356 268.82 352.484 269.308 351.787C269.795 351.09 270.632 350.742 271.817 350.742H276.783V354.401H270.719V356.231C271.695 357.067 272.444 358.06 272.967 359.21C273.489 360.36 273.751 361.65 273.751 363.078C273.751 364.437 273.489 365.692 272.967 366.842C272.479 367.992 271.782 368.985 270.876 369.822C269.97 370.623 268.855 371.25 267.53 371.703C266.241 372.156 264.812 372.383 263.244 372.383C262.791 372.383 262.355 372.365 261.937 372.331C261.519 372.296 261.101 372.243 260.683 372.174C260.264 372.243 259.829 372.365 259.376 372.54C258.923 372.679 258.505 372.888 258.121 373.167C257.738 373.411 257.424 373.707 257.18 374.056C256.936 374.404 256.814 374.805 256.814 375.258C256.814 376.059 257.215 376.6 258.017 376.878C258.818 377.122 259.864 377.244 261.153 377.244H267.112C270.597 377.244 273.123 377.906 274.692 379.231C276.26 380.52 277.044 382.262 277.044 384.458ZM273.123 384.667C273.123 383.587 272.688 382.715 271.817 382.053C270.945 381.426 269.43 381.112 267.269 381.112H257.912C256.1 381.844 255.194 383.064 255.194 384.772C255.194 385.956 255.664 386.967 256.605 387.803C257.546 388.675 259.114 389.11 261.31 389.11H265.387C267.826 389.11 269.726 388.727 271.085 387.96C272.444 387.228 273.123 386.131 273.123 384.667ZM263.244 369.142C265.335 369.142 266.868 368.654 267.844 367.678C268.855 366.703 269.36 365.413 269.36 363.81V362.294C269.36 360.691 268.855 359.419 267.844 358.478C266.868 357.503 265.335 357.015 263.244 357.015C261.153 357.015 259.62 357.503 258.644 358.478C257.668 359.419 257.18 360.691 257.18 362.294V363.81C257.18 365.413 257.668 366.703 258.644 367.678C259.62 368.654 261.153 369.142 263.244 369.142ZM304.268 381.374C302.63 381.374 301.463 380.956 300.766 380.119C300.069 379.283 299.633 378.237 299.459 376.983H299.198C298.605 378.551 297.647 379.788 296.323 380.694C295.033 381.565 293.291 382.001 291.095 382.001C288.273 382.001 286.025 381.269 284.352 379.806C282.679 378.342 281.843 376.338 281.843 373.794C281.843 371.285 282.749 369.351 284.561 367.992C286.408 366.633 289.37 365.953 293.448 365.953H299.198V363.287C299.198 361.301 298.64 359.82 297.525 358.844C296.41 357.834 294.824 357.328 292.768 357.328C290.956 357.328 289.475 357.694 288.325 358.426C287.175 359.123 286.251 360.081 285.554 361.301L282.732 359.21C283.08 358.513 283.551 357.834 284.143 357.172C284.735 356.509 285.467 355.934 286.338 355.447C287.21 354.924 288.203 354.523 289.318 354.244C290.433 353.931 291.67 353.774 293.029 353.774C296.201 353.774 298.71 354.575 300.557 356.178C302.438 357.781 303.379 360.012 303.379 362.869V377.715H307.143V381.374H304.268ZM291.827 378.499C292.907 378.499 293.883 378.377 294.754 378.133C295.66 377.854 296.445 377.506 297.107 377.087C297.769 376.634 298.274 376.112 298.623 375.519C299.006 374.892 299.198 374.23 299.198 373.533V369.09H293.448C290.938 369.09 289.109 369.438 287.959 370.135C286.809 370.832 286.234 371.843 286.234 373.167V374.265C286.234 375.659 286.722 376.722 287.698 377.453C288.708 378.15 290.085 378.499 291.827 378.499ZM314.19 381.374V354.401H318.372V358.792H318.581C318.86 358.13 319.208 357.503 319.626 356.91C320.044 356.283 320.55 355.743 321.142 355.29C321.769 354.837 322.501 354.471 323.338 354.192C324.174 353.913 325.15 353.774 326.265 353.774C329.088 353.774 331.353 354.68 333.06 356.492C334.768 358.269 335.622 360.796 335.622 364.072V381.374H331.44V364.803C331.44 362.329 330.9 360.5 329.819 359.315C328.739 358.095 327.154 357.485 325.063 357.485C324.226 357.485 323.407 357.59 322.606 357.799C321.804 358.008 321.09 358.322 320.463 358.74C319.835 359.158 319.33 359.698 318.947 360.36C318.563 361.022 318.372 361.789 318.372 362.66V381.374H314.19ZM357.096 348.442C355.876 348.442 355.022 348.198 354.534 347.71C354.047 347.187 353.803 346.543 353.803 345.776V344.94C353.803 344.173 354.047 343.546 354.534 343.058C355.022 342.535 355.876 342.274 357.096 342.274C358.316 342.274 359.169 342.535 359.657 343.058C360.145 343.546 360.389 344.173 360.389 344.94V345.776C360.389 346.543 360.145 347.187 359.657 347.71C359.169 348.198 358.316 348.442 357.096 348.442ZM345.282 377.819H355.005V357.956H345.282V354.401H359.187V377.819H368.282V381.374H345.282V377.819ZM374.859 381.374V377.349L392.265 357.956H375.434V354.401H396.813V358.426L379.406 377.819H397.336V381.374H374.859ZM426.965 381.374C425.327 381.374 424.159 380.956 423.462 380.119C422.765 379.283 422.33 378.237 422.155 376.983H421.894C421.302 378.551 420.343 379.788 419.019 380.694C417.73 381.565 415.987 382.001 413.792 382.001C410.969 382.001 408.721 381.269 407.049 379.806C405.376 378.342 404.54 376.338 404.54 373.794C404.54 371.285 405.446 369.351 407.258 367.992C409.105 366.633 412.067 365.953 416.144 365.953H421.894V363.287C421.894 361.301 421.337 359.82 420.221 358.844C419.106 357.834 417.521 357.328 415.465 357.328C413.652 357.328 412.171 357.694 411.021 358.426C409.871 359.123 408.948 360.081 408.251 361.301L405.428 359.21C405.777 358.513 406.247 357.834 406.84 357.172C407.432 356.509 408.164 355.934 409.035 355.447C409.906 354.924 410.899 354.523 412.015 354.244C413.13 353.931 414.367 353.774 415.726 353.774C418.897 353.774 421.406 354.575 423.253 356.178C425.135 357.781 426.076 360.012 426.076 362.869V377.715H429.84V381.374H426.965ZM414.524 378.499C415.604 378.499 416.58 378.377 417.451 378.133C418.357 377.854 419.141 377.506 419.803 377.087C420.465 376.634 420.971 376.112 421.319 375.519C421.702 374.892 421.894 374.23 421.894 373.533V369.09H416.144C413.635 369.09 411.805 369.438 410.655 370.135C409.505 370.832 408.93 371.843 408.93 373.167V374.265C408.93 375.659 409.418 376.722 410.394 377.453C411.405 378.15 412.781 378.499 414.524 378.499ZM435.789 377.819H443.682V357.956H435.789V354.401H447.864V361.197H448.125C448.683 359.071 449.728 357.415 451.261 356.231C452.83 355.011 454.816 354.401 457.22 354.401H460.984V358.583H455.914C453.509 358.583 451.558 359.28 450.059 360.674C448.595 362.068 447.864 363.897 447.864 366.162V377.819H458.318V381.374H435.789V377.819Z" fill="#373D3F"/>
<path d="M48.9955 446.001C46.1727 446.001 43.7333 445.531 41.6773 444.59C39.6561 443.614 37.9311 442.325 36.5023 440.722L39.325 438.265C40.6144 439.624 42.0258 440.669 43.5591 441.401C45.0924 442.133 46.9394 442.499 49.1 442.499C51.1909 442.499 52.8985 442.133 54.2227 441.401C55.5818 440.634 56.2614 439.45 56.2614 437.847C56.2614 437.15 56.122 436.575 55.8432 436.122C55.5992 435.634 55.2508 435.25 54.7977 434.972C54.3447 434.693 53.8394 434.484 53.2818 434.344C52.7242 434.17 52.1318 434.031 51.5045 433.926L47.2705 433.299C46.3295 433.159 45.3015 432.968 44.1864 432.724C43.1061 432.48 42.1129 432.097 41.2068 431.574C40.3008 431.016 39.5341 430.284 38.9068 429.378C38.3144 428.472 38.0182 427.287 38.0182 425.824C38.0182 424.465 38.2795 423.297 38.8023 422.322C39.3598 421.311 40.1265 420.475 41.1023 419.812C42.078 419.115 43.228 418.61 44.5523 418.297C45.8765 417.948 47.3227 417.774 48.8909 417.774C51.3303 417.774 53.4386 418.157 55.2159 418.924C57.028 419.69 58.5788 420.753 59.8682 422.112L57.15 424.674C56.8364 424.29 56.4356 423.907 55.9477 423.524C55.4947 423.106 54.9197 422.74 54.2227 422.426C53.5606 422.078 52.7765 421.799 51.8705 421.59C50.9644 421.381 49.9189 421.276 48.7341 421.276C46.6083 421.276 44.9705 421.642 43.8205 422.374C42.7053 423.106 42.1477 424.168 42.1477 425.562C42.1477 426.259 42.2697 426.852 42.5136 427.34C42.7924 427.793 43.1583 428.159 43.6114 428.437C44.0644 428.716 44.5697 428.943 45.1273 429.117C45.7197 429.256 46.3121 429.378 46.9045 429.483L51.1386 430.11C52.1144 430.25 53.1424 430.441 54.2227 430.685C55.303 430.929 56.2962 431.33 57.2023 431.887C58.1083 432.41 58.8576 433.125 59.45 434.031C60.0773 434.937 60.3909 436.122 60.3909 437.585C60.3909 440.268 59.3455 442.342 57.2545 443.806C55.1985 445.269 52.4455 446.001 48.9955 446.001ZM79.8264 446.001C77.8749 446.001 76.115 445.67 74.5469 445.008C73.0135 444.346 71.6893 443.405 70.5741 442.185C69.4938 440.931 68.6575 439.45 68.065 437.742C67.4726 436 67.1764 434.065 67.1764 431.94C67.1764 429.779 67.4726 427.828 68.065 426.085C68.6923 424.343 69.5461 422.862 70.6264 421.642C71.7067 420.387 72.9961 419.429 74.4946 418.767C76.0279 418.105 77.7181 417.774 79.565 417.774C81.3772 417.774 83.015 418.105 84.4787 418.767C85.9772 419.429 87.2491 420.353 88.2946 421.537C89.34 422.687 90.1416 424.064 90.6991 425.667C91.2567 427.27 91.5355 429.03 91.5355 430.947V432.933H71.5673V434.187C71.5673 435.372 71.759 436.47 72.1423 437.481C72.5256 438.491 73.0658 439.362 73.7628 440.094C74.4946 440.826 75.3658 441.401 76.3764 441.819C77.4219 442.203 78.5719 442.394 79.8264 442.394C81.6385 442.394 83.2067 441.976 84.531 441.14C85.8552 440.303 86.8658 439.153 87.5628 437.69L90.6469 439.781C89.8453 441.593 88.5037 443.091 86.6219 444.276C84.7749 445.426 82.5097 446.001 79.8264 446.001ZM79.565 421.224C78.415 421.224 77.3522 421.433 76.3764 421.851C75.4006 422.269 74.5469 422.844 73.815 423.576C73.1181 424.308 72.5605 425.179 72.1423 426.19C71.759 427.165 71.5673 428.246 71.5673 429.431V429.797H87.04V429.222C87.04 428.037 86.8484 426.956 86.465 425.981C86.1166 425.005 85.6113 424.168 84.9491 423.472C84.3219 422.74 83.5378 422.182 82.5969 421.799C81.6908 421.415 80.6802 421.224 79.565 421.224ZM116.407 440.983H116.198C115.919 441.645 115.571 442.29 115.153 442.917C114.735 443.509 114.212 444.032 113.585 444.485C112.992 444.938 112.278 445.304 111.441 445.583C110.605 445.862 109.629 446.001 108.514 446.001C105.691 446.001 103.426 445.112 101.719 443.335C100.011 441.523 99.1574 438.979 99.1574 435.703V418.401H103.339V434.972C103.339 437.446 103.879 439.293 104.96 440.512C106.04 441.697 107.626 442.29 109.716 442.29C110.553 442.29 111.372 442.185 112.173 441.976C112.975 441.767 113.689 441.453 114.316 441.035C114.944 440.617 115.449 440.094 115.832 439.467C116.216 438.805 116.407 438.021 116.407 437.115V418.401H120.589V445.374H116.407V440.983ZM171.849 446.001C169.897 446.001 168.137 445.67 166.569 445.008C165.036 444.346 163.712 443.405 162.597 442.185C161.516 440.931 160.68 439.45 160.087 437.742C159.495 436 159.199 434.065 159.199 431.94C159.199 429.779 159.495 427.828 160.087 426.085C160.715 424.343 161.568 422.862 162.649 421.642C163.729 420.387 165.018 419.429 166.517 418.767C168.05 418.105 169.74 417.774 171.587 417.774C173.4 417.774 175.037 418.105 176.501 418.767C178 419.429 179.272 420.353 180.317 421.537C181.362 422.687 182.164 424.064 182.722 425.667C183.279 427.27 183.558 429.03 183.558 430.947V432.933H163.59V434.187C163.59 435.372 163.781 436.47 164.165 437.481C164.548 438.491 165.088 439.362 165.785 440.094C166.517 440.826 167.388 441.401 168.399 441.819C169.444 442.203 170.594 442.394 171.849 442.394C173.661 442.394 175.229 441.976 176.553 441.14C177.878 440.303 178.888 439.153 179.585 437.69L182.669 439.781C181.868 441.593 180.526 443.091 178.644 444.276C176.797 445.426 174.532 446.001 171.849 446.001ZM171.587 421.224C170.437 421.224 169.375 421.433 168.399 421.851C167.423 422.269 166.569 422.844 165.837 423.576C165.14 424.308 164.583 425.179 164.165 426.19C163.781 427.165 163.59 428.246 163.59 429.431V429.797H179.062V429.222C179.062 428.037 178.871 426.956 178.487 425.981C178.139 425.005 177.634 424.168 176.972 423.472C176.344 422.74 175.56 422.182 174.619 421.799C173.713 421.415 172.703 421.224 171.587 421.224ZM202.366 446.001C199.543 446.001 197.104 445.531 195.048 444.59C193.027 443.614 191.302 442.325 189.873 440.722L192.696 438.265C193.985 439.624 195.396 440.669 196.93 441.401C198.463 442.133 200.31 442.499 202.471 442.499C204.562 442.499 206.269 442.133 207.593 441.401C208.952 440.634 209.632 439.45 209.632 437.847C209.632 437.15 209.493 436.575 209.214 436.122C208.97 435.634 208.621 435.25 208.168 434.972C207.715 434.693 207.21 434.484 206.652 434.344C206.095 434.17 205.502 434.031 204.875 433.926L200.641 433.299C199.7 433.159 198.672 432.968 197.557 432.724C196.477 432.48 195.484 432.097 194.577 431.574C193.671 431.016 192.905 430.284 192.277 429.378C191.685 428.472 191.389 427.287 191.389 425.824C191.389 424.465 191.65 423.297 192.173 422.322C192.731 421.311 193.497 420.475 194.473 419.812C195.449 419.115 196.599 418.61 197.923 418.297C199.247 417.948 200.693 417.774 202.262 417.774C204.701 417.774 206.809 418.157 208.587 418.924C210.399 419.69 211.949 420.753 213.239 422.112L210.521 424.674C210.207 424.29 209.806 423.907 209.318 423.524C208.865 423.106 208.29 422.74 207.593 422.426C206.931 422.078 206.147 421.799 205.241 421.59C204.335 421.381 203.29 421.276 202.105 421.276C199.979 421.276 198.341 421.642 197.191 422.374C196.076 423.106 195.518 424.168 195.518 425.562C195.518 426.259 195.64 426.852 195.884 427.34C196.163 427.793 196.529 428.159 196.982 428.437C197.435 428.716 197.94 428.943 198.498 429.117C199.09 429.256 199.683 429.378 200.275 429.483L204.509 430.11C205.485 430.25 206.513 430.441 207.593 430.685C208.674 430.929 209.667 431.33 210.573 431.887C211.479 432.41 212.228 433.125 212.821 434.031C213.448 434.937 213.762 436.122 213.762 437.585C213.762 440.268 212.716 442.342 210.625 443.806C208.569 445.269 205.816 446.001 202.366 446.001ZM234.033 445.374C231.977 445.374 230.461 444.799 229.486 443.649C228.545 442.499 228.074 441.018 228.074 439.206V421.956H219.083V418.401H225.774C226.68 418.401 227.308 418.227 227.656 417.878C228.039 417.495 228.231 416.85 228.231 415.944V408.887H232.256V418.401H244.54V421.956H232.256V441.819H244.54V445.374H234.033ZM263.401 446.001C261.519 446.001 259.811 445.67 258.278 445.008C256.78 444.346 255.49 443.405 254.41 442.185C253.364 440.931 252.563 439.45 252.005 437.742C251.448 436 251.169 434.048 251.169 431.887C251.169 429.762 251.448 427.828 252.005 426.085C252.563 424.343 253.364 422.862 254.41 421.642C255.49 420.387 256.78 419.429 258.278 418.767C259.811 418.105 261.519 417.774 263.401 417.774C265.283 417.774 266.973 418.105 268.471 418.767C270.005 419.429 271.294 420.387 272.339 421.642C273.42 422.862 274.239 424.343 274.796 426.085C275.354 427.828 275.633 429.762 275.633 431.887C275.633 434.048 275.354 436 274.796 437.742C274.239 439.45 273.42 440.931 272.339 442.185C271.294 443.405 270.005 444.346 268.471 445.008C266.973 445.67 265.283 446.001 263.401 446.001ZM263.401 442.394C265.736 442.394 267.617 441.697 269.046 440.303C270.475 438.909 271.189 436.749 271.189 433.822V429.953C271.189 427.026 270.475 424.865 269.046 423.472C267.617 422.078 265.736 421.381 263.401 421.381C261.066 421.381 259.184 422.078 257.755 423.472C256.326 424.865 255.612 427.026 255.612 429.953V433.822C255.612 436.749 256.326 438.909 257.755 440.303C259.184 441.697 261.066 442.394 263.401 442.394ZM300.609 440.983H300.4C298.657 444.328 295.887 446.001 292.088 446.001C288.778 446.001 286.182 444.764 284.3 442.29C282.453 439.815 281.529 436.348 281.529 431.887C281.529 427.427 282.453 423.959 284.3 421.485C286.182 419.011 288.778 417.774 292.088 417.774C295.887 417.774 298.657 419.447 300.4 422.792H300.609V418.401H304.791V455.828H300.609V440.983ZM293.709 442.29C294.65 442.29 295.538 442.168 296.375 441.924C297.211 441.68 297.943 441.331 298.57 440.878C299.198 440.39 299.685 439.815 300.034 439.153C300.417 438.456 300.609 437.655 300.609 436.749V427.026C300.609 426.12 300.417 425.336 300.034 424.674C299.685 423.977 299.198 423.402 298.57 422.949C297.943 422.461 297.211 422.095 296.375 421.851C295.538 421.607 294.65 421.485 293.709 421.485C291.27 421.485 289.37 422.234 288.011 423.733C286.687 425.197 286.025 427.148 286.025 429.587V434.187C286.025 436.627 286.687 438.596 288.011 440.094C289.37 441.558 291.27 442.29 293.709 442.29ZM331.126 440.983H330.917C330.638 441.645 330.29 442.29 329.872 442.917C329.454 443.509 328.931 444.032 328.304 444.485C327.711 444.938 326.997 445.304 326.16 445.583C325.324 445.862 324.348 446.001 323.233 446.001C320.41 446.001 318.145 445.112 316.438 443.335C314.73 441.523 313.876 438.979 313.876 435.703V418.401H318.058V434.972C318.058 437.446 318.598 439.293 319.679 440.512C320.759 441.697 322.344 442.29 324.435 442.29C325.272 442.29 326.091 442.185 326.892 441.976C327.694 441.767 328.408 441.453 329.035 441.035C329.663 440.617 330.168 440.094 330.551 439.467C330.935 438.805 331.126 438.021 331.126 437.115V418.401H335.308V445.374H331.126V440.983ZM355.894 446.001C353.942 446.001 352.182 445.67 350.614 445.008C349.081 444.346 347.756 443.405 346.641 442.185C345.561 440.931 344.725 439.45 344.132 437.742C343.54 436 343.244 434.065 343.244 431.94C343.244 429.779 343.54 427.828 344.132 426.085C344.759 424.343 345.613 422.862 346.694 421.642C347.774 420.387 349.063 419.429 350.562 418.767C352.095 418.105 353.785 417.774 355.632 417.774C357.444 417.774 359.082 418.105 360.546 418.767C362.044 419.429 363.316 420.353 364.362 421.537C365.407 422.687 366.209 424.064 366.766 425.667C367.324 427.27 367.603 429.03 367.603 430.947V432.933H347.634V434.187C347.634 435.372 347.826 436.47 348.209 437.481C348.593 438.491 349.133 439.362 349.83 440.094C350.562 440.826 351.433 441.401 352.444 441.819C353.489 442.203 354.639 442.394 355.894 442.394C357.706 442.394 359.274 441.976 360.598 441.14C361.922 440.303 362.933 439.153 363.63 437.69L366.714 439.781C365.913 441.593 364.571 443.091 362.689 444.276C360.842 445.426 358.577 446.001 355.894 446.001ZM355.632 421.224C354.482 421.224 353.419 421.433 352.444 421.851C351.468 422.269 350.614 422.844 349.882 423.576C349.185 424.308 348.628 425.179 348.209 426.19C347.826 427.165 347.634 428.246 347.634 429.431V429.797H363.107V429.222C363.107 428.037 362.916 426.956 362.532 425.981C362.184 425.005 361.678 424.168 361.016 423.472C360.389 422.74 359.605 422.182 358.664 421.799C357.758 421.415 356.747 421.224 355.632 421.224ZM386.097 445.844C384.668 445.844 383.658 445.548 383.065 444.956C382.508 444.363 382.229 443.614 382.229 442.708V441.767C382.229 440.861 382.508 440.112 383.065 439.519C383.658 438.927 384.668 438.631 386.097 438.631C387.526 438.631 388.519 438.927 389.077 439.519C389.669 440.112 389.965 440.861 389.965 441.767V442.708C389.965 443.614 389.669 444.363 389.077 444.956C388.519 445.548 387.526 445.844 386.097 445.844Z" fill="#373D3F"/>
<rect y="186.374" width="5" height="268" fill="#373D3F"/>
</svg>
