<svg width="318" height="313" viewBox="0 0 318 313" fill="none" xmlns="http://www.w3.org/2000/svg">
<path d="M15.8638 10.25V4.725H15.6638L11.9888 13.7L8.31383 4.725H8.11383V10.25V19H6.18883V1.55H8.88883L11.9638 9.25H12.1138L15.1888 1.55H17.7888V19H15.8638V10.25ZM29.7091 16.9H29.6091C29.4757 17.2167 29.3091 17.525 29.1091 17.825C28.9091 18.1083 28.6591 18.3583 28.3591 18.575C28.0757 18.7917 27.7341 18.9667 27.3341 19.1C26.9341 19.2333 26.4674 19.3 25.9341 19.3C24.5841 19.3 23.5007 18.875 22.6841 18.025C21.8674 17.1583 21.4591 15.9417 21.4591 14.375V6.1H23.4591V14.025C23.4591 15.2083 23.7174 16.0917 24.2341 16.675C24.7507 17.2417 25.5091 17.525 26.5091 17.525C26.9091 17.525 27.3007 17.475 27.6841 17.375C28.0674 17.275 28.4091 17.125 28.7091 16.925C29.0091 16.725 29.2507 16.475 29.4341 16.175C29.6174 15.8583 29.7091 15.4833 29.7091 15.05V6.1H31.7091V19H29.7091V16.9ZM42.1293 3.25C41.546 3.25 41.1376 3.13333 40.9043 2.9C40.671 2.65 40.5543 2.34167 40.5543 1.975V1.575C40.5543 1.20833 40.671 0.908332 40.9043 0.674999C41.1376 0.424999 41.546 0.299999 42.1293 0.299999C42.7126 0.299999 43.121 0.424999 43.3543 0.674999C43.5876 0.908332 43.7043 1.20833 43.7043 1.575V1.975C43.7043 2.34167 43.5876 2.65 43.3543 2.9C43.121 3.13333 42.7126 3.25 42.1293 3.25ZM36.4793 17.3H41.1293V7.8H36.4793V6.1H43.1293V17.3H47.4793V19H36.4793V17.3ZM56.6245 19C55.6412 19 54.9162 18.725 54.4495 18.175C53.9995 17.625 53.7745 16.9167 53.7745 16.05V7.8H49.4745V6.1H52.6745C53.1079 6.1 53.4079 6.01667 53.5745 5.85C53.7579 5.66667 53.8495 5.35833 53.8495 4.925V1.55H55.7745V6.1H61.6495V7.8H55.7745V17.3H61.6495V19H56.6245ZM70.6698 19.3C69.7698 19.3 68.9531 19.1417 68.2198 18.825C67.5031 18.5083 66.8864 18.0583 66.3698 17.475C65.8698 16.875 65.4864 16.1667 65.2198 15.35C64.9531 14.5167 64.8198 13.5833 64.8198 12.55C64.8198 11.5333 64.9531 10.6083 65.2198 9.775C65.4864 8.94167 65.8698 8.23333 66.3698 7.65C66.8864 7.05 67.5031 6.59167 68.2198 6.275C68.9531 5.95833 69.7698 5.8 70.6698 5.8C71.5698 5.8 72.3781 5.95833 73.0948 6.275C73.8281 6.59167 74.4448 7.05 74.9448 7.65C75.4614 8.23333 75.8531 8.94167 76.1198 9.775C76.3864 10.6083 76.5198 11.5333 76.5198 12.55C76.5198 13.5833 76.3864 14.5167 76.1198 15.35C75.8531 16.1667 75.4614 16.875 74.9448 17.475C74.4448 18.0583 73.8281 18.5083 73.0948 18.825C72.3781 19.1417 71.5698 19.3 70.6698 19.3ZM70.6698 17.575C71.7864 17.575 72.6864 17.2417 73.3698 16.575C74.0531 15.9083 74.3948 14.875 74.3948 13.475V11.625C74.3948 10.225 74.0531 9.19167 73.3698 8.525C72.6864 7.85833 71.7864 7.525 70.6698 7.525C69.5531 7.525 68.6531 7.85833 67.9698 8.525C67.2864 9.19167 66.9448 10.225 66.9448 11.625V13.475C66.9448 14.875 67.2864 15.9083 67.9698 16.575C68.6531 17.2417 69.5531 17.575 70.6698 17.575ZM93.8602 19V6.1H95.7102V7.6H95.8102C96.0102 7.1 96.2936 6.675 96.6602 6.325C97.0269 5.975 97.5686 5.8 98.2852 5.8C99.0352 5.8 99.5936 5.99167 99.9602 6.375C100.327 6.74167 100.552 7.225 100.635 7.825H100.71C100.944 7.24167 101.277 6.75833 101.71 6.375C102.144 5.99167 102.744 5.8 103.51 5.8C104.56 5.8 105.26 6.16667 105.61 6.9C105.977 7.63333 106.16 8.68333 106.16 10.05V19H104.31V10.375C104.31 9.275 104.194 8.51667 103.96 8.1C103.744 7.66667 103.335 7.45 102.735 7.45C102.202 7.45 101.769 7.625 101.435 7.975C101.102 8.30833 100.935 8.825 100.935 9.525V19H99.0852V10.375C99.0852 9.275 98.9686 8.51667 98.7352 8.1C98.5186 7.66667 98.1186 7.45 97.5352 7.45C97.0019 7.45 96.5602 7.625 96.2102 7.975C95.8769 8.30833 95.7102 8.825 95.7102 9.525V19H93.8602ZM119.555 19C118.772 19 118.214 18.8 117.88 18.4C117.547 18 117.339 17.5 117.255 16.9H117.13C116.847 17.65 116.389 18.2417 115.755 18.675C115.139 19.0917 114.305 19.3 113.255 19.3C111.905 19.3 110.83 18.95 110.03 18.25C109.23 17.55 108.83 16.5917 108.83 15.375C108.83 14.175 109.264 13.25 110.13 12.6C111.014 11.95 112.43 11.625 114.38 11.625H117.13V10.35C117.13 9.4 116.864 8.69167 116.33 8.225C115.797 7.74167 115.039 7.5 114.055 7.5C113.189 7.5 112.48 7.675 111.93 8.025C111.38 8.35833 110.939 8.81667 110.605 9.4L109.255 8.4C109.422 8.06667 109.647 7.74167 109.93 7.425C110.214 7.10833 110.564 6.83333 110.98 6.6C111.397 6.35 111.872 6.15833 112.405 6.025C112.939 5.875 113.53 5.8 114.18 5.8C115.697 5.8 116.897 6.18333 117.78 6.95C118.68 7.71667 119.13 8.78333 119.13 10.15V17.25H120.93V19H119.555ZM113.605 17.625C114.122 17.625 114.589 17.5667 115.005 17.45C115.439 17.3167 115.814 17.15 116.13 16.95C116.447 16.7333 116.689 16.4833 116.855 16.2C117.039 15.9 117.13 15.5833 117.13 15.25V13.125H114.38C113.18 13.125 112.305 13.2917 111.755 13.625C111.205 13.9583 110.93 14.4417 110.93 15.075V15.6C110.93 16.2667 111.164 16.775 111.63 17.125C112.114 17.4583 112.772 17.625 113.605 17.625ZM130.151 3.25C129.567 3.25 129.159 3.13333 128.926 2.9C128.692 2.65 128.576 2.34167 128.576 1.975V1.575C128.576 1.20833 128.692 0.908332 128.926 0.674999C129.159 0.424999 129.567 0.299999 130.151 0.299999C130.734 0.299999 131.142 0.424999 131.376 0.674999C131.609 0.908332 131.726 1.20833 131.726 1.575V1.975C131.726 2.34167 131.609 2.65 131.376 2.9C131.142 3.13333 130.734 3.25 130.151 3.25ZM124.501 17.3H129.151V7.8H124.501V6.1H131.151V17.3H135.501V19H124.501V17.3ZM144.171 19.3C142.821 19.3 141.654 19.075 140.671 18.625C139.704 18.1583 138.879 17.5417 138.196 16.775L139.546 15.6C140.163 16.25 140.838 16.75 141.571 17.1C142.304 17.45 143.188 17.625 144.221 17.625C145.221 17.625 146.038 17.45 146.671 17.1C147.321 16.7333 147.646 16.1667 147.646 15.4C147.646 15.0667 147.579 14.7917 147.446 14.575C147.329 14.3417 147.163 14.1583 146.946 14.025C146.729 13.8917 146.488 13.7917 146.221 13.725C145.954 13.6417 145.671 13.575 145.371 13.525L143.346 13.225C142.896 13.1583 142.404 13.0667 141.871 12.95C141.354 12.8333 140.879 12.65 140.446 12.4C140.013 12.1333 139.646 11.7833 139.346 11.35C139.063 10.9167 138.921 10.35 138.921 9.65C138.921 9 139.046 8.44167 139.296 7.975C139.563 7.49167 139.929 7.09167 140.396 6.775C140.863 6.44167 141.413 6.2 142.046 6.05C142.679 5.88333 143.371 5.8 144.121 5.8C145.288 5.8 146.296 5.98333 147.146 6.35C148.013 6.71667 148.754 7.225 149.371 7.875L148.071 9.1C147.921 8.91667 147.729 8.73333 147.496 8.55C147.279 8.35 147.004 8.175 146.671 8.025C146.354 7.85833 145.979 7.725 145.546 7.625C145.113 7.525 144.613 7.475 144.046 7.475C143.029 7.475 142.246 7.65 141.696 8C141.163 8.35 140.896 8.85833 140.896 9.525C140.896 9.85833 140.954 10.1417 141.071 10.375C141.204 10.5917 141.379 10.7667 141.596 10.9C141.813 11.0333 142.054 11.1417 142.321 11.225C142.604 11.2917 142.888 11.35 143.171 11.4L145.196 11.7C145.663 11.7667 146.154 11.8583 146.671 11.975C147.188 12.0917 147.663 12.2833 148.096 12.55C148.529 12.8 148.888 13.1417 149.171 13.575C149.471 14.0083 149.621 14.575 149.621 15.275C149.621 16.5583 149.121 17.55 148.121 18.25C147.138 18.95 145.821 19.3 144.171 19.3Z" fill="#373D3F"/>
<path d="M6.13513 34.232H13.2391V38.744H13.5751C14.1831 37.272 15.0631 36.056 16.2151 35.096C17.3671 34.136 18.9351 33.656 20.9191 33.656C22.2951 33.656 23.5431 33.912 24.6631 34.424C25.8151 34.936 26.7911 35.72 27.5911 36.776C28.4231 37.832 29.0631 39.176 29.5111 40.808C29.9911 42.44 30.2311 44.376 30.2311 46.616C30.2311 48.856 29.9911 50.792 29.5111 52.424C29.0631 54.056 28.4231 55.4 27.5911 56.456C26.7911 57.512 25.8151 58.296 24.6631 58.808C23.5431 59.32 22.2951 59.576 20.9191 59.576C18.9351 59.576 17.3671 59.112 16.2151 58.184C15.0631 57.224 14.1831 55.992 13.5751 54.488H13.2391V68.6H6.13513V34.232ZM17.8471 54.056C19.4471 54.056 20.6791 53.576 21.5431 52.616C22.4071 51.624 22.8391 50.264 22.8391 48.536V44.696C22.8391 42.968 22.4071 41.624 21.5431 40.664C20.6791 39.672 19.4471 39.176 17.8471 39.176C16.5991 39.176 15.5111 39.48 14.5831 40.088C13.6871 40.696 13.2391 41.656 13.2391 42.968V50.264C13.2391 51.576 13.6871 52.536 14.5831 53.144C15.5111 53.752 16.5991 54.056 17.8471 54.056ZM35.3164 53.48H41.0284V39.752H35.3164V34.232H48.1324V41.24H48.4684C48.6924 40.344 48.9964 39.48 49.3804 38.648C49.7964 37.784 50.3084 37.032 50.9164 36.392C51.5564 35.72 52.3244 35.192 53.2204 34.808C54.1164 34.424 55.1724 34.232 56.3884 34.232H58.7404V40.76H53.4604C51.7004 40.76 50.3724 41.288 49.4764 42.344C48.5804 43.368 48.1324 44.632 48.1324 46.136V53.48H56.2924V59H35.3164V53.48ZM83.6016 59C82.1296 59 80.9456 58.632 80.0496 57.896C79.1536 57.128 78.6256 56.04 78.4656 54.632H78.2256C77.7776 56.264 76.8816 57.496 75.5376 58.328C74.2256 59.16 72.6096 59.576 70.6896 59.576C68.2896 59.576 66.3536 58.936 64.8816 57.656C63.4416 56.344 62.7216 54.52 62.7216 52.184C62.7216 49.592 63.6656 47.672 65.5536 46.424C67.4416 45.176 70.2096 44.552 73.8576 44.552H77.8416V43.304C77.8416 41.832 77.4896 40.728 76.7856 39.992C76.1136 39.224 74.9616 38.84 73.3296 38.84C71.8256 38.84 70.6096 39.128 69.6816 39.704C68.7536 40.28 67.9536 41.032 67.2816 41.96L63.3936 38.504C64.2256 37.096 65.5216 35.944 67.2816 35.048C69.0736 34.12 71.3616 33.656 74.1456 33.656C77.5376 33.656 80.1776 34.44 82.0656 36.008C83.9856 37.544 84.9456 39.88 84.9456 43.016V53.864H87.6816V59H83.6016ZM73.3776 54.92C74.6256 54.92 75.6816 54.616 76.5456 54.008C77.4096 53.4 77.8416 52.52 77.8416 51.368V48.392H74.0496C71.1376 48.392 69.6816 49.368 69.6816 51.32V52.28C69.6816 53.144 70.0176 53.8 70.6896 54.248C71.3616 54.696 72.2576 54.92 73.3776 54.92ZM105.007 59C102.447 59 100.543 58.328 99.2949 56.984C98.0469 55.64 97.4229 53.928 97.4229 51.848V39.752H90.7029V34.232H95.0709C96.1269 34.232 96.8789 34.024 97.3269 33.608C97.7749 33.192 97.9989 32.424 97.9989 31.304V25.496H104.527V34.232H114.175V39.752H104.527V53.48H114.175V59H105.007ZM133.084 31.064C131.484 31.064 130.364 30.744 129.724 30.104C129.116 29.432 128.812 28.632 128.812 27.704V26.312C128.812 25.352 129.116 24.552 129.724 23.912C130.364 23.272 131.484 22.952 133.084 22.952C134.684 22.952 135.788 23.272 136.396 23.912C137.036 24.552 137.356 25.352 137.356 26.312V27.704C137.356 28.632 137.036 29.432 136.396 30.104C135.788 30.744 134.684 31.064 133.084 31.064ZM121.66 53.48H129.532V39.752H121.66V34.232H136.636V53.48H143.932V59H121.66V53.48ZM161.017 59.576C159.065 59.576 157.305 59.288 155.737 58.712C154.201 58.104 152.889 57.24 151.801 56.12C150.745 55 149.929 53.64 149.353 52.04C148.777 50.44 148.489 48.632 148.489 46.616C148.489 44.6 148.777 42.792 149.353 41.192C149.929 39.592 150.745 38.232 151.801 37.112C152.889 35.992 154.201 35.144 155.737 34.568C157.305 33.96 159.049 33.656 160.969 33.656C163.689 33.656 165.865 34.216 167.497 35.336C169.161 36.424 170.425 37.88 171.289 39.704L165.817 42.68C165.369 41.72 164.777 40.92 164.041 40.28C163.337 39.64 162.313 39.32 160.969 39.32C159.337 39.32 158.073 39.8 157.177 40.76C156.313 41.688 155.881 42.968 155.881 44.6V48.632C155.881 50.264 156.313 51.56 157.177 52.52C158.073 53.448 159.369 53.912 161.065 53.912C162.441 53.912 163.513 53.592 164.281 52.952C165.081 52.312 165.753 51.48 166.297 50.456L171.673 53.528C170.777 55.352 169.465 56.824 167.737 57.944C166.041 59.032 163.801 59.576 161.017 59.576ZM190.007 31.064C188.407 31.064 187.287 30.744 186.647 30.104C186.039 29.432 185.735 28.632 185.735 27.704V26.312C185.735 25.352 186.039 24.552 186.647 23.912C187.287 23.272 188.407 22.952 190.007 22.952C191.607 22.952 192.711 23.272 193.319 23.912C193.959 24.552 194.279 25.352 194.279 26.312V27.704C194.279 28.632 193.959 29.432 193.319 30.104C192.711 30.744 191.607 31.064 190.007 31.064ZM178.583 53.48H186.455V39.752H178.583V34.232H193.559V53.48H200.855V59H178.583V53.48ZM221.396 54.488H221.06C220.42 55.992 219.524 57.224 218.372 58.184C217.252 59.112 215.7 59.576 213.716 59.576C212.34 59.576 211.076 59.32 209.924 58.808C208.804 58.296 207.828 57.512 206.996 56.456C206.196 55.4 205.556 54.056 205.076 52.424C204.628 50.792 204.404 48.856 204.404 46.616C204.404 44.376 204.628 42.44 205.076 40.808C205.556 39.176 206.196 37.832 206.996 36.776C207.828 35.72 208.804 34.936 209.924 34.424C211.076 33.912 212.34 33.656 213.716 33.656C214.708 33.656 215.588 33.784 216.356 34.04C217.124 34.296 217.796 34.648 218.372 35.096C218.98 35.544 219.492 36.088 219.908 36.728C220.356 37.336 220.74 38.008 221.06 38.744H221.396V23.48H228.5V59H221.396V54.488ZM216.788 54.056C218.036 54.056 219.108 53.752 220.004 53.144C220.932 52.536 221.396 51.576 221.396 50.264V42.968C221.396 41.656 220.932 40.696 220.004 40.088C219.108 39.48 218.036 39.176 216.788 39.176C215.188 39.176 213.956 39.672 213.092 40.664C212.228 41.624 211.796 42.968 211.796 44.696V48.536C211.796 50.264 212.228 51.624 213.092 52.616C213.956 53.576 215.188 54.056 216.788 54.056ZM254.369 59C252.897 59 251.713 58.632 250.817 57.896C249.921 57.128 249.393 56.04 249.233 54.632H248.993C248.545 56.264 247.649 57.496 246.305 58.328C244.993 59.16 243.377 59.576 241.457 59.576C239.057 59.576 237.121 58.936 235.649 57.656C234.209 56.344 233.489 54.52 233.489 52.184C233.489 49.592 234.433 47.672 236.321 46.424C238.209 45.176 240.977 44.552 244.625 44.552H248.609V43.304C248.609 41.832 248.257 40.728 247.553 39.992C246.881 39.224 245.729 38.84 244.097 38.84C242.593 38.84 241.377 39.128 240.449 39.704C239.521 40.28 238.721 41.032 238.049 41.96L234.161 38.504C234.993 37.096 236.289 35.944 238.049 35.048C239.841 34.12 242.129 33.656 244.913 33.656C248.305 33.656 250.945 34.44 252.833 36.008C254.753 37.544 255.713 39.88 255.713 43.016V53.864H258.449V59H254.369ZM244.145 54.92C245.393 54.92 246.449 54.616 247.313 54.008C248.177 53.4 248.609 52.52 248.609 51.368V48.392H244.817C241.905 48.392 240.449 49.368 240.449 51.32V52.28C240.449 53.144 240.785 53.8 241.457 54.248C242.129 54.696 243.025 54.92 244.145 54.92ZM278.318 54.488H277.982C277.342 55.992 276.446 57.224 275.294 58.184C274.174 59.112 272.622 59.576 270.638 59.576C269.262 59.576 267.998 59.32 266.846 58.808C265.726 58.296 264.75 57.512 263.918 56.456C263.118 55.4 262.478 54.056 261.998 52.424C261.55 50.792 261.326 48.856 261.326 46.616C261.326 44.376 261.55 42.44 261.998 40.808C262.478 39.176 263.118 37.832 263.918 36.776C264.75 35.72 265.726 34.936 266.846 34.424C267.998 33.912 269.262 33.656 270.638 33.656C271.63 33.656 272.51 33.784 273.278 34.04C274.046 34.296 274.718 34.648 275.294 35.096C275.902 35.544 276.414 36.088 276.83 36.728C277.278 37.336 277.662 38.008 277.982 38.744H278.318V23.48H285.422V59H278.318V54.488ZM273.71 54.056C274.958 54.056 276.03 53.752 276.926 53.144C277.854 52.536 278.318 51.576 278.318 50.264V42.968C278.318 41.656 277.854 40.696 276.926 40.088C276.03 39.48 274.958 39.176 273.71 39.176C272.11 39.176 270.878 39.672 270.014 40.664C269.15 41.624 268.718 42.968 268.718 44.696V48.536C268.718 50.264 269.15 51.624 270.014 52.616C270.878 53.576 272.11 54.056 273.71 54.056ZM302.988 59.576C298.828 59.576 295.676 58.424 293.532 56.12C291.388 53.816 290.316 50.68 290.316 46.712C290.316 44.696 290.588 42.888 291.132 41.288C291.708 39.656 292.508 38.28 293.532 37.16C294.588 36.008 295.852 35.144 297.324 34.568C298.828 33.96 300.508 33.656 302.364 33.656C304.22 33.656 305.884 33.96 307.356 34.568C308.828 35.144 310.076 35.976 311.1 37.064C312.124 38.152 312.908 39.48 313.452 41.048C314.028 42.584 314.316 44.312 314.316 46.232V48.344H297.372V48.776C297.372 50.376 297.868 51.672 298.86 52.664C299.852 53.624 301.308 54.104 303.228 54.104C304.7 54.104 305.964 53.832 307.02 53.288C308.076 52.712 308.988 51.96 309.756 51.032L313.596 55.208C312.636 56.392 311.292 57.416 309.564 58.28C307.836 59.144 305.644 59.576 302.988 59.576ZM302.412 38.744C300.876 38.744 299.644 39.224 298.716 40.184C297.82 41.112 297.372 42.376 297.372 43.976V44.36H307.356V43.976C307.356 42.344 306.908 41.064 306.012 40.136C305.148 39.208 303.948 38.744 302.412 38.744Z" fill="#373D3F"/>
<path d="M6.375 76.1H8.375V78.2H8.475C9.30833 76.6 10.6333 75.8 12.45 75.8C14.0333 75.8 15.2667 76.3917 16.15 77.575C17.05 78.7583 17.5 80.4167 17.5 82.55C17.5 84.6833 17.05 86.3417 16.15 87.525C15.2667 88.7083 14.0333 89.3 12.45 89.3C10.6333 89.3 9.30833 88.5 8.475 86.9H8.375V94H6.375V76.1ZM11.675 87.525C12.8417 87.525 13.7417 87.175 14.375 86.475C15.025 85.7583 15.35 84.8167 15.35 83.65V81.45C15.35 80.2833 15.025 79.35 14.375 78.65C13.7417 77.9333 12.8417 77.575 11.675 77.575C11.225 77.575 10.8 77.6333 10.4 77.75C10 77.8667 9.65 78.0417 9.35 78.275C9.05 78.4917 8.80833 78.7667 8.625 79.1C8.45833 79.4167 8.375 79.7917 8.375 80.225V84.875C8.375 85.3083 8.45833 85.6917 8.625 86.025C8.80833 86.3417 9.05 86.6167 9.35 86.85C9.65 87.0667 10 87.2333 10.4 87.35C10.8 87.4667 11.225 87.525 11.675 87.525ZM31.0452 89C30.2619 89 29.7036 88.8 29.3702 88.4C29.0369 88 28.8286 87.5 28.7452 86.9H28.6202C28.3369 87.65 27.8786 88.2417 27.2452 88.675C26.6286 89.0917 25.7952 89.3 24.7452 89.3C23.3952 89.3 22.3202 88.95 21.5202 88.25C20.7202 87.55 20.3202 86.5917 20.3202 85.375C20.3202 84.175 20.7536 83.25 21.6202 82.6C22.5036 81.95 23.9202 81.625 25.8702 81.625H28.6202V80.35C28.6202 79.4 28.3536 78.6917 27.8202 78.225C27.2869 77.7417 26.5286 77.5 25.5452 77.5C24.6786 77.5 23.9702 77.675 23.4202 78.025C22.8702 78.3583 22.4286 78.8167 22.0952 79.4L20.7452 78.4C20.9119 78.0667 21.1369 77.7417 21.4202 77.425C21.7036 77.1083 22.0536 76.8333 22.4702 76.6C22.8869 76.35 23.3619 76.1583 23.8952 76.025C24.4286 75.875 25.0202 75.8 25.6702 75.8C27.1869 75.8 28.3869 76.1833 29.2702 76.95C30.1702 77.7167 30.6202 78.7833 30.6202 80.15V87.25H32.4202V89H31.0452ZM25.0952 87.625C25.6119 87.625 26.0786 87.5667 26.4952 87.45C26.9286 87.3167 27.3036 87.15 27.6202 86.95C27.9369 86.7333 28.1786 86.4833 28.3452 86.2C28.5286 85.9 28.6202 85.5833 28.6202 85.25V83.125H25.8702C24.6702 83.125 23.7952 83.2917 23.2452 83.625C22.6952 83.9583 22.4202 84.4417 22.4202 85.075V85.6C22.4202 86.2667 22.6536 86.775 23.1202 87.125C23.6036 87.4583 24.2619 87.625 25.0952 87.625ZM35.2655 87.3H39.0405V77.8H35.2655V76.1H41.0405V79.35H41.1655C41.4321 78.3333 41.9321 77.5417 42.6655 76.975C43.4155 76.3917 44.3655 76.1 45.5155 76.1H47.3155V78.1H44.8905C43.7405 78.1 42.8071 78.4333 42.0905 79.1C41.3905 79.7667 41.0405 80.6417 41.0405 81.725V87.3H46.0405V89H35.2655V87.3ZM60.3857 89C59.6024 89 59.044 88.8 58.7107 88.4C58.3774 88 58.169 87.5 58.0857 86.9H57.9607C57.6774 87.65 57.219 88.2417 56.5857 88.675C55.969 89.0917 55.1357 89.3 54.0857 89.3C52.7357 89.3 51.6607 88.95 50.8607 88.25C50.0607 87.55 49.6607 86.5917 49.6607 85.375C49.6607 84.175 50.094 83.25 50.9607 82.6C51.844 81.95 53.2607 81.625 55.2107 81.625H57.9607V80.35C57.9607 79.4 57.694 78.6917 57.1607 78.225C56.6274 77.7417 55.869 77.5 54.8857 77.5C54.019 77.5 53.3107 77.675 52.7607 78.025C52.2107 78.3583 51.769 78.8167 51.4357 79.4L50.0857 78.4C50.2524 78.0667 50.4774 77.7417 50.7607 77.425C51.044 77.1083 51.394 76.8333 51.8107 76.6C52.2274 76.35 52.7024 76.1583 53.2357 76.025C53.769 75.875 54.3607 75.8 55.0107 75.8C56.5274 75.8 57.7274 76.1833 58.6107 76.95C59.5107 77.7167 59.9607 78.7833 59.9607 80.15V87.25H61.7607V89H60.3857ZM54.4357 87.625C54.9524 87.625 55.419 87.5667 55.8357 87.45C56.269 87.3167 56.644 87.15 56.9607 86.95C57.2774 86.7333 57.519 86.4833 57.6857 86.2C57.869 85.9 57.9607 85.5833 57.9607 85.25V83.125H55.2107C54.0107 83.125 53.1357 83.2917 52.5857 83.625C52.0357 83.9583 51.7607 84.4417 51.7607 85.075V85.6C51.7607 86.2667 51.994 86.775 52.4607 87.125C52.944 87.4583 53.6024 87.625 54.4357 87.625ZM84.8512 89.3C83.9512 89.3 83.1345 89.1417 82.4012 88.825C81.6845 88.5083 81.0678 88.0583 80.5512 87.475C80.0512 86.875 79.6678 86.1667 79.4012 85.35C79.1345 84.5167 79.0012 83.5833 79.0012 82.55C79.0012 81.5333 79.1345 80.6083 79.4012 79.775C79.6678 78.9417 80.0512 78.2333 80.5512 77.65C81.0678 77.05 81.6845 76.5917 82.4012 76.275C83.1345 75.9583 83.9512 75.8 84.8512 75.8C85.7512 75.8 86.5595 75.9583 87.2762 76.275C88.0095 76.5917 88.6262 77.05 89.1262 77.65C89.6428 78.2333 90.0345 78.9417 90.3012 79.775C90.5678 80.6083 90.7012 81.5333 90.7012 82.55C90.7012 83.5833 90.5678 84.5167 90.3012 85.35C90.0345 86.1667 89.6428 86.875 89.1262 87.475C88.6262 88.0583 88.0095 88.5083 87.2762 88.825C86.5595 89.1417 85.7512 89.3 84.8512 89.3ZM84.8512 87.575C85.9678 87.575 86.8678 87.2417 87.5512 86.575C88.2345 85.9083 88.5762 84.875 88.5762 83.475V81.625C88.5762 80.225 88.2345 79.1917 87.5512 78.525C86.8678 77.8583 85.9678 77.525 84.8512 77.525C83.7345 77.525 82.8345 77.8583 82.1512 78.525C81.4678 79.1917 81.1262 80.225 81.1262 81.625V83.475C81.1262 84.875 81.4678 85.9083 82.1512 86.575C82.8345 87.2417 83.7345 87.575 84.8512 87.575ZM93.9464 87.3H97.7214V77.8H93.9464V76.1H99.7214V79.35H99.8464C100.113 78.3333 100.613 77.5417 101.346 76.975C102.096 76.3917 103.046 76.1 104.196 76.1H105.996V78.1H103.571C102.421 78.1 101.488 78.4333 100.771 79.1C100.071 79.7667 99.7214 80.6417 99.7214 81.725V87.3H104.721V89H93.9464V87.3ZM120.717 90.475C120.717 91.775 120.175 92.7333 119.092 93.35C118.008 93.9833 116.383 94.3 114.217 94.3C112.133 94.3 110.633 94.025 109.717 93.475C108.817 92.925 108.367 92.1333 108.367 91.1C108.367 90.4 108.55 89.8583 108.917 89.475C109.283 89.0917 109.8 88.8083 110.467 88.625V88.325C110.1 88.1417 109.817 87.9083 109.617 87.625C109.417 87.3417 109.317 86.9833 109.317 86.55C109.317 85.8833 109.533 85.3833 109.967 85.05C110.417 84.7167 110.975 84.4667 111.642 84.3V84.2C110.842 83.85 110.217 83.3333 109.767 82.65C109.333 81.9667 109.117 81.1667 109.117 80.25C109.117 79.6 109.233 79 109.467 78.45C109.7 77.9 110.033 77.4333 110.467 77.05C110.917 76.65 111.45 76.3417 112.067 76.125C112.683 75.9083 113.367 75.8 114.117 75.8C115.083 75.8 115.933 75.975 116.667 76.325V76.1C116.667 75.6 116.783 75.1833 117.017 74.85C117.25 74.5167 117.65 74.35 118.217 74.35H120.592V76.1H117.692V76.975C118.158 77.375 118.517 77.85 118.767 78.4C119.017 78.95 119.142 79.5667 119.142 80.25C119.142 80.9 119.017 81.5 118.767 82.05C118.533 82.6 118.2 83.075 117.767 83.475C117.333 83.8583 116.8 84.1583 116.167 84.375C115.55 84.5917 114.867 84.7 114.117 84.7C113.9 84.7 113.692 84.6917 113.492 84.675C113.292 84.6583 113.092 84.6333 112.892 84.6C112.692 84.6333 112.483 84.6917 112.267 84.775C112.05 84.8417 111.85 84.9417 111.667 85.075C111.483 85.1917 111.333 85.3333 111.217 85.5C111.1 85.6667 111.042 85.8583 111.042 86.075C111.042 86.4583 111.233 86.7167 111.617 86.85C112 86.9667 112.5 87.025 113.117 87.025H115.967C117.633 87.025 118.842 87.3417 119.592 87.975C120.342 88.5917 120.717 89.425 120.717 90.475ZM118.842 90.575C118.842 90.0583 118.633 89.6417 118.217 89.325C117.8 89.025 117.075 88.875 116.042 88.875H111.567C110.7 89.225 110.267 89.8083 110.267 90.625C110.267 91.1917 110.492 91.675 110.942 92.075C111.392 92.4917 112.142 92.7 113.192 92.7H115.142C116.308 92.7 117.217 92.5167 117.867 92.15C118.517 91.8 118.842 91.275 118.842 90.575ZM114.117 83.15C115.117 83.15 115.85 82.9167 116.317 82.45C116.8 81.9833 117.042 81.3667 117.042 80.6V79.875C117.042 79.1083 116.8 78.5 116.317 78.05C115.85 77.5833 115.117 77.35 114.117 77.35C113.117 77.35 112.383 77.5833 111.917 78.05C111.45 78.5 111.217 79.1083 111.217 79.875V80.6C111.217 81.3667 111.45 81.9833 111.917 82.45C112.383 82.9167 113.117 83.15 114.117 83.15ZM133.737 89C132.954 89 132.395 88.8 132.062 88.4C131.729 88 131.52 87.5 131.437 86.9H131.312C131.029 87.65 130.57 88.2417 129.937 88.675C129.32 89.0917 128.487 89.3 127.437 89.3C126.087 89.3 125.012 88.95 124.212 88.25C123.412 87.55 123.012 86.5917 123.012 85.375C123.012 84.175 123.445 83.25 124.312 82.6C125.195 81.95 126.612 81.625 128.562 81.625H131.312V80.35C131.312 79.4 131.045 78.6917 130.512 78.225C129.979 77.7417 129.22 77.5 128.237 77.5C127.37 77.5 126.662 77.675 126.112 78.025C125.562 78.3583 125.12 78.8167 124.787 79.4L123.437 78.4C123.604 78.0667 123.829 77.7417 124.112 77.425C124.395 77.1083 124.745 76.8333 125.162 76.6C125.579 76.35 126.054 76.1583 126.587 76.025C127.12 75.875 127.712 75.8 128.362 75.8C129.879 75.8 131.079 76.1833 131.962 76.95C132.862 77.7167 133.312 78.7833 133.312 80.15V87.25H135.112V89H133.737ZM127.787 87.625C128.304 87.625 128.77 87.5667 129.187 87.45C129.62 87.3167 129.995 87.15 130.312 86.95C130.629 86.7333 130.87 86.4833 131.037 86.2C131.22 85.9 131.312 85.5833 131.312 85.25V83.125H128.562C127.362 83.125 126.487 83.2917 125.937 83.625C125.387 83.9583 125.112 84.4417 125.112 85.075V85.6C125.112 86.2667 125.345 86.775 125.812 87.125C126.295 87.4583 126.954 87.625 127.787 87.625ZM138.482 89V76.1H140.482V78.2H140.582C140.715 77.8833 140.882 77.5833 141.082 77.3C141.282 77 141.524 76.7417 141.807 76.525C142.107 76.3083 142.457 76.1333 142.857 76C143.257 75.8667 143.724 75.8 144.257 75.8C145.607 75.8 146.69 76.2333 147.507 77.1C148.324 77.95 148.732 79.1583 148.732 80.725V89H146.732V81.075C146.732 79.8917 146.474 79.0167 145.957 78.45C145.44 77.8667 144.682 77.575 143.682 77.575C143.282 77.575 142.89 77.625 142.507 77.725C142.124 77.825 141.782 77.975 141.482 78.175C141.182 78.375 140.94 78.6333 140.757 78.95C140.574 79.2667 140.482 79.6333 140.482 80.05V89H138.482ZM159.002 73.25C158.419 73.25 158.011 73.1333 157.777 72.9C157.544 72.65 157.427 72.3417 157.427 71.975V71.575C157.427 71.2083 157.544 70.9083 157.777 70.675C158.011 70.425 158.419 70.3 159.002 70.3C159.586 70.3 159.994 70.425 160.227 70.675C160.461 70.9083 160.577 71.2083 160.577 71.575V71.975C160.577 72.3417 160.461 72.65 160.227 72.9C159.994 73.1333 159.586 73.25 159.002 73.25ZM153.352 87.3H158.002V77.8H153.352V76.1H160.002V87.3H164.352V89H153.352V87.3ZM167.498 89V87.075L175.823 77.8H167.773V76.1H177.998V78.025L169.673 87.3H178.248V89H167.498ZM192.418 89C191.634 89 191.076 88.8 190.743 88.4C190.409 88 190.201 87.5 190.118 86.9H189.993C189.709 87.65 189.251 88.2417 188.618 88.675C188.001 89.0917 187.168 89.3 186.118 89.3C184.768 89.3 183.693 88.95 182.893 88.25C182.093 87.55 181.693 86.5917 181.693 85.375C181.693 84.175 182.126 83.25 182.993 82.6C183.876 81.95 185.293 81.625 187.243 81.625H189.993V80.35C189.993 79.4 189.726 78.6917 189.193 78.225C188.659 77.7417 187.901 77.5 186.918 77.5C186.051 77.5 185.343 77.675 184.793 78.025C184.243 78.3583 183.801 78.8167 183.468 79.4L182.118 78.4C182.284 78.0667 182.509 77.7417 182.793 77.425C183.076 77.1083 183.426 76.8333 183.843 76.6C184.259 76.35 184.734 76.1583 185.268 76.025C185.801 75.875 186.393 75.8 187.043 75.8C188.559 75.8 189.759 76.1833 190.643 76.95C191.543 77.7167 191.993 78.7833 191.993 80.15V87.25H193.793V89H192.418ZM186.468 87.625C186.984 87.625 187.451 87.5667 187.868 87.45C188.301 87.3167 188.676 87.15 188.993 86.95C189.309 86.7333 189.551 86.4833 189.718 86.2C189.901 85.9 189.993 85.5833 189.993 85.25V83.125H187.243C186.043 83.125 185.168 83.2917 184.618 83.625C184.068 83.9583 183.793 84.4417 183.793 85.075V85.6C183.793 86.2667 184.026 86.775 184.493 87.125C184.976 87.4583 185.634 87.625 186.468 87.625ZM196.638 87.3H200.413V77.8H196.638V76.1H202.413V79.35H202.538C202.805 78.3333 203.305 77.5417 204.038 76.975C204.788 76.3917 205.738 76.1 206.888 76.1H208.688V78.1H206.263C205.113 78.1 204.18 78.4333 203.463 79.1C202.763 79.7667 202.413 80.6417 202.413 81.725V87.3H207.413V89H196.638V87.3Z" fill="#373D3F"/>
<path d="M11.65 120.3C10.3 120.3 9.13333 120.075 8.15 119.625C7.18333 119.158 6.35833 118.542 5.675 117.775L7.025 116.6C7.64167 117.25 8.31667 117.75 9.05 118.1C9.78333 118.45 10.6667 118.625 11.7 118.625C12.7 118.625 13.5167 118.45 14.15 118.1C14.8 117.733 15.125 117.167 15.125 116.4C15.125 116.067 15.0583 115.792 14.925 115.575C14.8083 115.342 14.6417 115.158 14.425 115.025C14.2083 114.892 13.9667 114.792 13.7 114.725C13.4333 114.642 13.15 114.575 12.85 114.525L10.825 114.225C10.375 114.158 9.88333 114.067 9.35 113.95C8.83333 113.833 8.35833 113.65 7.925 113.4C7.49167 113.133 7.125 112.783 6.825 112.35C6.54167 111.917 6.4 111.35 6.4 110.65C6.4 110 6.525 109.442 6.775 108.975C7.04167 108.492 7.40833 108.092 7.875 107.775C8.34167 107.442 8.89167 107.2 9.525 107.05C10.1583 106.883 10.85 106.8 11.6 106.8C12.7667 106.8 13.775 106.983 14.625 107.35C15.4917 107.717 16.2333 108.225 16.85 108.875L15.55 110.1C15.4 109.917 15.2083 109.733 14.975 109.55C14.7583 109.35 14.4833 109.175 14.15 109.025C13.8333 108.858 13.4583 108.725 13.025 108.625C12.5917 108.525 12.0917 108.475 11.525 108.475C10.5083 108.475 9.725 108.65 9.175 109C8.64167 109.35 8.375 109.858 8.375 110.525C8.375 110.858 8.43333 111.142 8.55 111.375C8.68333 111.592 8.85833 111.767 9.075 111.9C9.29167 112.033 9.53333 112.142 9.8 112.225C10.0833 112.292 10.3667 112.35 10.65 112.4L12.675 112.7C13.1417 112.767 13.6333 112.858 14.15 112.975C14.6667 113.092 15.1417 113.283 15.575 113.55C16.0083 113.8 16.3667 114.142 16.65 114.575C16.95 115.008 17.1 115.575 17.1 116.275C17.1 117.558 16.6 118.55 15.6 119.25C14.6167 119.95 13.3 120.3 11.65 120.3ZM26.3952 120.3C25.4619 120.3 24.6202 120.142 23.8702 119.825C23.1369 119.508 22.5036 119.058 21.9702 118.475C21.4536 117.875 21.0536 117.167 20.7702 116.35C20.4869 115.517 20.3452 114.592 20.3452 113.575C20.3452 112.542 20.4869 111.608 20.7702 110.775C21.0702 109.942 21.4786 109.233 21.9952 108.65C22.5119 108.05 23.1286 107.592 23.8452 107.275C24.5786 106.958 25.3869 106.8 26.2702 106.8C27.1369 106.8 27.9202 106.958 28.6202 107.275C29.3369 107.592 29.9452 108.033 30.4452 108.6C30.9452 109.15 31.3286 109.808 31.5952 110.575C31.8619 111.342 31.9952 112.183 31.9952 113.1V114.05H22.4452V114.65C22.4452 115.217 22.5369 115.742 22.7202 116.225C22.9036 116.708 23.1619 117.125 23.4952 117.475C23.8452 117.825 24.2619 118.1 24.7452 118.3C25.2452 118.483 25.7952 118.575 26.3952 118.575C27.2619 118.575 28.0119 118.375 28.6452 117.975C29.2786 117.575 29.7619 117.025 30.0952 116.325L31.5702 117.325C31.1869 118.192 30.5452 118.908 29.6452 119.475C28.7619 120.025 27.6786 120.3 26.3952 120.3ZM26.2702 108.45C25.7202 108.45 25.2119 108.55 24.7452 108.75C24.2786 108.95 23.8702 109.225 23.5202 109.575C23.1869 109.925 22.9202 110.342 22.7202 110.825C22.5369 111.292 22.4452 111.808 22.4452 112.375V112.55H29.8452V112.275C29.8452 111.708 29.7536 111.192 29.5702 110.725C29.4036 110.258 29.1619 109.858 28.8452 109.525C28.5452 109.175 28.1702 108.908 27.7202 108.725C27.2869 108.542 26.8036 108.45 26.2702 108.45ZM43.8905 117.9H43.7905C43.6571 118.217 43.4905 118.525 43.2905 118.825C43.0905 119.108 42.8405 119.358 42.5405 119.575C42.2571 119.792 41.9155 119.967 41.5155 120.1C41.1155 120.233 40.6488 120.3 40.1155 120.3C38.7655 120.3 37.6821 119.875 36.8655 119.025C36.0488 118.158 35.6405 116.942 35.6405 115.375V107.1H37.6405V115.025C37.6405 116.208 37.8988 117.092 38.4155 117.675C38.9321 118.242 39.6905 118.525 40.6905 118.525C41.0905 118.525 41.4821 118.475 41.8655 118.375C42.2488 118.275 42.5905 118.125 42.8905 117.925C43.1905 117.725 43.4321 117.475 43.6155 117.175C43.7988 116.858 43.8905 116.483 43.8905 116.05V107.1H45.8905V120H43.8905V117.9ZM70.4059 120.3C69.4726 120.3 68.6309 120.142 67.8809 119.825C67.1476 119.508 66.5143 119.058 65.9809 118.475C65.4643 117.875 65.0643 117.167 64.7809 116.35C64.4976 115.517 64.3559 114.592 64.3559 113.575C64.3559 112.542 64.4976 111.608 64.7809 110.775C65.0809 109.942 65.4893 109.233 66.0059 108.65C66.5226 108.05 67.1393 107.592 67.8559 107.275C68.5893 106.958 69.3976 106.8 70.2809 106.8C71.1476 106.8 71.9309 106.958 72.6309 107.275C73.3476 107.592 73.9559 108.033 74.4559 108.6C74.9559 109.15 75.3393 109.808 75.6059 110.575C75.8726 111.342 76.0059 112.183 76.0059 113.1V114.05H66.4559V114.65C66.4559 115.217 66.5476 115.742 66.7309 116.225C66.9143 116.708 67.1726 117.125 67.5059 117.475C67.8559 117.825 68.2726 118.1 68.7559 118.3C69.2559 118.483 69.8059 118.575 70.4059 118.575C71.2726 118.575 72.0226 118.375 72.6559 117.975C73.2893 117.575 73.7726 117.025 74.1059 116.325L75.5809 117.325C75.1976 118.192 74.5559 118.908 73.6559 119.475C72.7726 120.025 71.6893 120.3 70.4059 120.3ZM70.2809 108.45C69.7309 108.45 69.2226 108.55 68.7559 108.75C68.2893 108.95 67.8809 109.225 67.5309 109.575C67.1976 109.925 66.9309 110.342 66.7309 110.825C66.5476 111.292 66.4559 111.808 66.4559 112.375V112.55H73.8559V112.275C73.8559 111.708 73.7643 111.192 73.5809 110.725C73.4143 110.258 73.1726 109.858 72.8559 109.525C72.5559 109.175 72.1809 108.908 71.7309 108.725C71.2976 108.542 70.8143 108.45 70.2809 108.45ZM85.0012 120.3C83.6512 120.3 82.4845 120.075 81.5012 119.625C80.5345 119.158 79.7095 118.542 79.0262 117.775L80.3762 116.6C80.9928 117.25 81.6678 117.75 82.4012 118.1C83.1345 118.45 84.0178 118.625 85.0512 118.625C86.0512 118.625 86.8678 118.45 87.5012 118.1C88.1512 117.733 88.4762 117.167 88.4762 116.4C88.4762 116.067 88.4095 115.792 88.2762 115.575C88.1595 115.342 87.9928 115.158 87.7762 115.025C87.5595 114.892 87.3178 114.792 87.0512 114.725C86.7845 114.642 86.5012 114.575 86.2012 114.525L84.1762 114.225C83.7262 114.158 83.2345 114.067 82.7012 113.95C82.1845 113.833 81.7095 113.65 81.2762 113.4C80.8428 113.133 80.4762 112.783 80.1762 112.35C79.8928 111.917 79.7512 111.35 79.7512 110.65C79.7512 110 79.8762 109.442 80.1262 108.975C80.3928 108.492 80.7595 108.092 81.2262 107.775C81.6928 107.442 82.2428 107.2 82.8762 107.05C83.5095 106.883 84.2012 106.8 84.9512 106.8C86.1178 106.8 87.1262 106.983 87.9762 107.35C88.8428 107.717 89.5845 108.225 90.2012 108.875L88.9012 110.1C88.7512 109.917 88.5595 109.733 88.3262 109.55C88.1095 109.35 87.8345 109.175 87.5012 109.025C87.1845 108.858 86.8095 108.725 86.3762 108.625C85.9428 108.525 85.4428 108.475 84.8762 108.475C83.8595 108.475 83.0762 108.65 82.5262 109C81.9928 109.35 81.7262 109.858 81.7262 110.525C81.7262 110.858 81.7845 111.142 81.9012 111.375C82.0345 111.592 82.2095 111.767 82.4262 111.9C82.6428 112.033 82.8845 112.142 83.1512 112.225C83.4345 112.292 83.7178 112.35 84.0012 112.4L86.0262 112.7C86.4928 112.767 86.9845 112.858 87.5012 112.975C88.0178 113.092 88.4928 113.283 88.9262 113.55C89.3595 113.8 89.7178 114.142 90.0012 114.575C90.3012 115.008 90.4512 115.575 90.4512 116.275C90.4512 117.558 89.9512 118.55 88.9512 119.25C87.9678 119.95 86.6512 120.3 85.0012 120.3ZM100.146 120C99.1631 120 98.4381 119.725 97.9714 119.175C97.5214 118.625 97.2964 117.917 97.2964 117.05V108.8H92.9964V107.1H96.1964C96.6297 107.1 96.9297 107.017 97.0964 106.85C97.2797 106.667 97.3714 106.358 97.3714 105.925V102.55H99.2964V107.1H105.171V108.8H99.2964V118.3H105.171V120H100.146ZM114.192 120.3C113.292 120.3 112.475 120.142 111.742 119.825C111.025 119.508 110.408 119.058 109.892 118.475C109.392 117.875 109.008 117.167 108.742 116.35C108.475 115.517 108.342 114.583 108.342 113.55C108.342 112.533 108.475 111.608 108.742 110.775C109.008 109.942 109.392 109.233 109.892 108.65C110.408 108.05 111.025 107.592 111.742 107.275C112.475 106.958 113.292 106.8 114.192 106.8C115.092 106.8 115.9 106.958 116.617 107.275C117.35 107.592 117.967 108.05 118.467 108.65C118.983 109.233 119.375 109.942 119.642 110.775C119.908 111.608 120.042 112.533 120.042 113.55C120.042 114.583 119.908 115.517 119.642 116.35C119.375 117.167 118.983 117.875 118.467 118.475C117.967 119.058 117.35 119.508 116.617 119.825C115.9 120.142 115.092 120.3 114.192 120.3ZM114.192 118.575C115.308 118.575 116.208 118.242 116.892 117.575C117.575 116.908 117.917 115.875 117.917 114.475V112.625C117.917 111.225 117.575 110.192 116.892 109.525C116.208 108.858 115.308 108.525 114.192 108.525C113.075 108.525 112.175 108.858 111.492 109.525C110.808 110.192 110.467 111.225 110.467 112.625V114.475C110.467 115.875 110.808 116.908 111.492 117.575C112.175 118.242 113.075 118.575 114.192 118.575ZM131.987 117.9H131.887C131.054 119.5 129.729 120.3 127.912 120.3C126.329 120.3 125.087 119.708 124.187 118.525C123.304 117.342 122.862 115.683 122.862 113.55C122.862 111.417 123.304 109.758 124.187 108.575C125.087 107.392 126.329 106.8 127.912 106.8C129.729 106.8 131.054 107.6 131.887 109.2H131.987V107.1H133.987V125H131.987V117.9ZM128.687 118.525C129.137 118.525 129.562 118.467 129.962 118.35C130.362 118.233 130.712 118.067 131.012 117.85C131.312 117.617 131.545 117.342 131.712 117.025C131.895 116.692 131.987 116.308 131.987 115.875V111.225C131.987 110.792 131.895 110.417 131.712 110.1C131.545 109.767 131.312 109.492 131.012 109.275C130.712 109.042 130.362 108.867 129.962 108.75C129.562 108.633 129.137 108.575 128.687 108.575C127.52 108.575 126.612 108.933 125.962 109.65C125.329 110.35 125.012 111.283 125.012 112.45V114.65C125.012 115.817 125.329 116.758 125.962 117.475C126.612 118.175 127.52 118.525 128.687 118.525ZM146.582 117.9H146.482C146.349 118.217 146.182 118.525 145.982 118.825C145.782 119.108 145.532 119.358 145.232 119.575C144.949 119.792 144.607 119.967 144.207 120.1C143.807 120.233 143.34 120.3 142.807 120.3C141.457 120.3 140.374 119.875 139.557 119.025C138.74 118.158 138.332 116.942 138.332 115.375V107.1H140.332V115.025C140.332 116.208 140.59 117.092 141.107 117.675C141.624 118.242 142.382 118.525 143.382 118.525C143.782 118.525 144.174 118.475 144.557 118.375C144.94 118.275 145.282 118.125 145.582 117.925C145.882 117.725 146.124 117.475 146.307 117.175C146.49 116.858 146.582 116.483 146.582 116.05V107.1H148.582V120H146.582V117.9ZM158.427 120.3C157.494 120.3 156.652 120.142 155.902 119.825C155.169 119.508 154.536 119.058 154.002 118.475C153.486 117.875 153.086 117.167 152.802 116.35C152.519 115.517 152.377 114.592 152.377 113.575C152.377 112.542 152.519 111.608 152.802 110.775C153.102 109.942 153.511 109.233 154.027 108.65C154.544 108.05 155.161 107.592 155.877 107.275C156.611 106.958 157.419 106.8 158.302 106.8C159.169 106.8 159.952 106.958 160.652 107.275C161.369 107.592 161.977 108.033 162.477 108.6C162.977 109.15 163.361 109.808 163.627 110.575C163.894 111.342 164.027 112.183 164.027 113.1V114.05H154.477V114.65C154.477 115.217 154.569 115.742 154.752 116.225C154.936 116.708 155.194 117.125 155.527 117.475C155.877 117.825 156.294 118.1 156.777 118.3C157.277 118.483 157.827 118.575 158.427 118.575C159.294 118.575 160.044 118.375 160.677 117.975C161.311 117.575 161.794 117.025 162.127 116.325L163.602 117.325C163.219 118.192 162.577 118.908 161.677 119.475C160.794 120.025 159.711 120.3 158.427 120.3ZM158.302 108.45C157.752 108.45 157.244 108.55 156.777 108.75C156.311 108.95 155.902 109.225 155.552 109.575C155.219 109.925 154.952 110.342 154.752 110.825C154.569 111.292 154.477 111.808 154.477 112.375V112.55H161.877V112.275C161.877 111.708 161.786 111.192 161.602 110.725C161.436 110.258 161.194 109.858 160.877 109.525C160.577 109.175 160.202 108.908 159.752 108.725C159.319 108.542 158.836 108.45 158.302 108.45Z" fill="#373D3F"/>
<rect x="6.84746" y="134.237" width="2.84746" height="153.763" fill="#373D3F"/>
<path d="M174.902 126.964H219.389V139.616H174.902C173.949 139.616 173.035 139.238 172.361 138.564C171.687 137.89 171.309 136.976 171.309 136.022V130.551C171.31 129.599 171.69 128.687 172.364 128.014C173.037 127.342 173.951 126.964 174.902 126.964V126.964Z" fill="#4470C7"/>
<path d="M219.389 111.18H177.635C175.962 111.18 174.359 111.845 173.176 113.027C171.994 114.209 171.33 115.813 171.33 117.485V117.485C171.33 119.158 171.994 120.761 173.176 121.944C174.359 123.126 175.962 123.791 177.635 123.791H219.389V111.18Z" fill="#4470C7"/>
<path d="M238.367 96.6295H223.186V139.014H238.367V96.6295Z" fill="#4470C7"/>
<path d="M257.345 96.6295H242.164V139.014H257.345V96.6295Z" fill="#4470C7"/>
<path d="M276.324 96.6295H261.142V139.014H276.324V96.6295Z" fill="#4470C7"/>
<path opacity="0.4" d="M174.902 126.964H219.389V139.616H174.902C173.949 139.616 173.035 139.238 172.361 138.564C171.687 137.89 171.309 136.976 171.309 136.022V130.551C171.31 129.599 171.69 128.687 172.364 128.014C173.037 127.342 173.951 126.964 174.902 126.964V126.964Z" fill="white"/>
<path opacity="0.4" d="M219.389 111.18H177.635C175.962 111.18 174.359 111.845 173.176 113.027C171.994 114.209 171.33 115.813 171.33 117.485V117.485C171.33 119.158 171.994 120.761 173.176 121.944C174.359 123.126 175.962 123.791 177.635 123.791H219.389V111.18Z" fill="white"/>
<path opacity="0.4" d="M238.367 96.6295H223.186V139.014H238.367V96.6295Z" fill="white"/>
<path opacity="0.4" d="M257.345 96.6295H242.164V139.014H257.345V96.6295Z" fill="white"/>
<path opacity="0.4" d="M276.324 96.6295H261.142V139.014H276.324V96.6295Z" fill="white"/>
<path d="M285.494 140.149H166.271V147.211H175.946V164.725H181.705V147.211H267.251V164.725H273.01V147.211H285.494V140.149Z" fill="#4470C7"/>
<path opacity="0.1" d="M285.494 140.149H166.271V147.211H175.946V164.725H181.705V147.211H267.251V164.725H273.01V147.211H285.494V140.149Z" fill="black"/>
<path d="M140.028 174.645C138.837 175.031 137.669 175.485 136.53 176.003C137.144 175.542 137.759 175.075 138.374 174.589C141.153 172.364 143.796 169.972 146.286 167.427C143.355 170.271 140.224 172.901 136.917 175.296C137.37 174.504 137.771 173.682 138.116 172.837C138.731 171.288 138.847 169.763 137.366 168.897C135.521 167.876 133.339 169.407 133.923 172.032C134.272 173.489 134.958 174.843 135.927 175.985C133.779 177.475 131.534 178.823 129.208 180.018L128.987 180.128C129.479 179.278 129.912 178.394 130.284 177.485C130.898 175.936 131.021 174.38 129.54 173.544C127.696 172.518 125.507 174.048 126.097 176.679C126.441 178.118 127.114 179.456 128.064 180.589C125.267 181.966 122.378 183.135 119.501 184.407L119.083 184.598C119.644 183.993 120.166 183.352 120.644 182.68C121.579 181.309 122.083 179.827 120.835 178.671C119.304 177.251 116.796 178.229 116.753 180.921C116.755 182.415 117.103 183.887 117.767 185.225C115.079 186.47 112.525 187.986 110.144 189.749L110.07 189.805C110.396 189.297 110.689 188.769 110.949 188.225C111.656 186.725 111.914 185.151 110.5 184.241C110.212 184.041 109.882 183.909 109.535 183.855C109.188 183.801 108.834 183.827 108.498 183.931C108.163 184.034 107.856 184.213 107.6 184.453C107.344 184.694 107.146 184.989 107.021 185.317C106.837 185.022 106.581 184.779 106.277 184.61C104.851 183.786 103.449 184.678 102.25 185.938C101.937 186.264 101.636 186.614 101.359 186.971C102.288 184.394 103.455 181.91 104.845 179.55C106.164 180.133 107.589 180.439 109.031 180.448C111.871 180.448 113.07 178.081 111.675 176.612C110.544 175.419 108.945 175.874 107.439 176.741C106.941 177.03 106.455 177.356 106 177.688C107.45 175.513 109.096 173.475 110.919 171.601C112.106 172.561 113.485 173.255 114.964 173.636C117.724 174.319 119.458 172.315 118.456 170.563C117.644 169.13 115.996 169.185 114.312 169.665C113.525 169.903 112.753 170.188 112.001 170.52C112.751 169.788 113.531 169.081 114.318 168.386C115.357 167.501 116.427 166.646 117.515 165.817C118.689 166.751 120.046 167.427 121.499 167.802C124.253 168.485 125.986 166.48 124.991 164.728C124.179 163.296 122.531 163.357 120.847 163.837C120.46 163.948 120.066 164.083 119.685 164.224C121.124 163.198 122.587 162.196 124.05 161.194L125.402 160.271C126.624 161.289 128.056 162.024 129.595 162.423C132.355 163.105 134.083 161.101 133.087 159.349C132.276 157.911 130.628 157.972 128.943 158.452C128.289 158.644 127.647 158.874 127.019 159.14V159.14C127.302 158.943 127.579 158.741 127.855 158.525C128.372 158.157 128.876 157.782 129.38 157.394C129.995 156.927 130.609 156.404 131.224 155.913C131.569 155.636 131.901 155.341 132.232 155.04C133.452 156.076 134.893 156.821 136.444 157.216C139.204 157.898 140.938 155.9 139.942 154.142C139.13 152.71 137.483 152.765 135.792 153.245C134.868 153.53 133.962 153.873 133.081 154.271V154.271C134.206 153.226 135.294 152.138 136.327 151.001C136.401 150.921 136.462 150.841 136.53 150.761C136.978 150.269 137.415 149.771 137.839 149.261C138.263 148.751 138.804 148.031 139.272 147.417C141.165 144.934 142.722 142.211 143.901 139.32C142.67 142.187 141.059 144.875 139.112 147.312C137.194 149.759 135.053 152.022 132.718 154.075L132.466 154.29C133.001 153.369 133.473 152.414 133.88 151.431C134.495 149.882 134.618 148.326 133.136 147.49C131.292 146.47 129.103 147.994 129.693 150.626C130.069 152.173 130.818 153.604 131.876 154.794L131.329 155.261C131.114 155.439 130.892 155.624 130.671 155.796C130.308 156.091 129.939 156.374 129.571 156.65L128.956 157.105C128.427 157.493 127.886 157.88 127.345 158.255L126.503 158.771L125.618 159.386C126.133 158.502 126.587 157.584 126.976 156.638C127.591 155.089 127.714 153.534 126.232 152.697C124.388 151.671 122.199 153.202 122.784 155.833C123.148 157.33 123.864 158.719 124.874 159.884L124.216 160.308L121.757 161.894L121.283 162.208C120.829 162.503 120.38 162.823 119.931 163.112C119.734 163.241 119.538 163.37 119.347 163.505C118.732 163.935 118.087 164.372 117.466 164.821C117.988 163.922 118.45 162.989 118.849 162.03C119.464 160.48 119.587 158.919 118.105 158.089C116.261 157.062 114.072 158.593 114.656 161.218C115.025 162.739 115.757 164.149 116.79 165.325C115.732 166.099 114.687 166.899 113.667 167.728C112.929 168.343 112.197 168.995 111.484 169.647C111.795 169.071 112.072 168.478 112.314 167.87C112.929 166.321 113.052 164.796 111.57 163.929C109.726 162.909 107.537 164.433 108.121 167.065C108.471 168.504 109.146 169.843 110.095 170.981C108.076 172.986 106.258 175.182 104.666 177.54C104.848 176.861 104.986 176.171 105.078 175.475C105.281 173.827 105.041 172.278 103.406 171.829C101.39 171.276 99.613 173.292 100.818 175.702C101.509 177.025 102.498 178.17 103.707 179.046C102.141 181.604 100.831 184.309 99.7974 187.124C99.7715 186.535 99.712 185.948 99.6191 185.366C99.3425 183.731 98.6785 182.292 96.9818 182.348C94.8916 182.385 93.7604 184.807 95.5985 186.792C96.5801 187.814 97.7773 188.604 99.1027 189.104C98.3948 191.283 97.8159 193.502 97.3691 195.75C97.3015 196.106 97.24 196.463 97.1785 196.819C97.0989 196.882 97.0249 196.952 96.9572 197.028C96.8834 196.721 96.7973 196.413 96.699 196.112C96.1703 194.538 95.2973 193.241 93.6252 193.536C91.5657 193.899 90.828 196.481 92.9428 198.141C94.0205 198.966 95.2643 199.547 96.5883 199.844C96.6076 199.905 96.6323 199.965 96.6621 200.022C96.4346 201.713 96.2625 203.41 96.158 205.119C96.0801 206.389 96.0289 207.666 96.0043 208.949C94.2215 208.949 92.9305 210.897 94.1969 213.018C94.712 213.896 95.3731 214.68 96.1518 215.336C96.3055 217.734 96.5391 220.131 96.8588 222.51C96.6068 222.278 96.2983 222.115 95.964 222.039C95.6297 221.962 95.2812 221.974 94.953 222.074C93.828 222.375 93.3239 223.303 93.1456 224.391C92.7538 224.805 92.534 225.352 92.5309 225.922C91.6948 224.693 90.9079 223.408 90.1456 222.117C91.313 221.22 92.2803 220.089 92.9858 218.797C94.326 216.295 92.8198 214.119 90.8648 214.654C89.2726 215.084 88.9222 216.707 88.9714 218.447C88.9981 219.105 89.0597 219.762 89.1558 220.414L88.3873 218.92C87.6988 217.691 87.1148 216.461 86.4693 215.182C86.3033 214.881 86.1619 214.568 86.0266 214.254C87.3406 213.593 88.5026 212.665 89.4386 211.531C91.2214 209.324 90.1456 206.901 88.1291 207.061C86.4816 207.184 85.8361 208.715 85.5594 210.43C85.4477 211.18 85.38 211.935 85.3565 212.692L84.7418 211.34C83.4929 208.276 82.4657 205.127 81.6679 201.916C83.1477 201.395 84.495 200.555 85.6147 199.457C87.6127 197.434 86.7889 194.92 84.7602 194.87C83.1126 194.834 82.3012 196.291 81.8647 197.944C81.6447 198.847 81.4805 199.763 81.3729 200.686C80.9364 198.842 80.5614 196.997 80.254 195.11C80.0388 193.948 79.9036 192.774 79.756 191.6C81.3556 191.29 82.862 190.614 84.1577 189.626C86.4016 187.887 85.9037 185.286 83.8995 184.973C82.2766 184.721 81.2929 186.061 80.629 187.671C80.2404 188.693 79.916 189.738 79.6577 190.801C79.5286 189.436 79.3872 188.077 79.3257 186.712C79.1474 183.895 79.1597 181.069 79.3626 178.253C79.0737 181.067 78.9751 183.898 79.0675 186.725C79.0675 188.028 79.1781 189.325 79.2581 190.629C78.9092 189.742 78.4983 188.881 78.0285 188.053C77.1802 186.626 76.0428 185.551 74.4752 186.208C72.5387 187.001 72.3727 189.688 74.7949 190.856C76.2228 191.51 77.7881 191.807 79.3564 191.723C79.4671 192.885 79.5654 194.047 79.7376 195.196C79.9835 197.041 80.297 198.885 80.6597 200.674C80.2638 199.979 79.8222 199.312 79.338 198.676C78.3052 197.373 77.0449 196.45 75.5695 197.293C73.7252 198.332 73.9342 201.012 76.4916 201.854C77.9408 202.307 79.4765 202.41 80.9733 202.155C81.6784 205.404 82.6131 208.599 83.7704 211.715L84.1393 212.649C83.8073 212.225 83.4508 211.789 83.0758 211.42C81.92 210.227 80.5737 209.44 79.1904 210.424C77.4875 211.654 77.9609 214.291 80.5614 214.875C82.0169 215.172 83.5213 215.127 84.9569 214.746C85.086 215.065 85.2151 215.361 85.3688 215.699C85.9836 216.977 86.5492 218.293 87.2131 219.553C87.3976 219.916 87.5881 220.273 87.7787 220.629C87.4529 220.352 87.1148 220.082 86.7644 219.836C85.4119 218.877 83.9364 218.354 82.7622 219.584C81.3237 221.096 82.2581 223.617 84.9508 223.697C86.3373 223.715 87.7114 223.432 88.9775 222.867C89.746 224.262 90.5452 225.639 91.3997 226.992C91.7194 227.508 92.0513 228.019 92.3833 228.529C91.8955 228.074 91.3802 227.649 90.8403 227.256C89.4816 226.297 88.0062 225.775 86.8381 227.004C85.3934 228.517 86.3279 231.037 89.0205 231.117C90.5602 231.135 92.082 230.785 93.4592 230.097C93.9018 230.711 94.3629 231.326 94.8424 231.941C93.8403 233.103 94.1661 235.076 96.201 235.949C97.1993 236.362 98.2629 236.595 99.3425 236.638C99.4654 236.742 99.5945 236.841 99.7236 236.933L99.7913 236.982C100.265 238.752 100.781 240.511 101.322 242.257H92.1989V271.218H115.044V242.238H104.402C103.486 239.109 102.718 236.386 102.558 236.312L102.238 236.158C103.437 235.748 104.552 235.123 105.527 234.314C107.691 232.47 107.076 229.894 105.066 229.678C103.425 229.494 102.502 230.877 101.918 232.519C101.75 232.986 101.606 233.462 101.488 233.945C101.371 233.508 101.254 233.072 101.144 232.635C100.812 231.344 100.529 230.041 100.222 228.744C101.524 228.327 102.733 227.661 103.781 226.783C105.945 224.939 105.33 222.369 103.32 222.148C101.679 221.969 100.763 223.377 100.172 224.988C100.003 225.464 99.8571 225.948 99.7359 226.439C99.5454 225.492 99.3671 224.545 99.2011 223.592C99.0781 222.879 98.9675 222.172 98.863 221.465C98.8199 220.457 98.8076 219.443 98.8199 218.434C98.8199 217.875 98.8199 217.322 98.8691 216.762C100.088 217.157 101.37 217.321 102.65 217.248C105.49 217.063 106.535 214.635 105.054 213.252C103.824 212.133 102.281 212.686 100.83 213.645C100.188 214.089 99.5726 214.569 98.9859 215.084C99.1602 212.707 99.5219 210.347 100.068 208.026C100.391 206.665 100.79 205.323 101.261 204.006C102.563 204.456 103.942 204.649 105.318 204.571C108.152 204.393 109.203 201.959 107.722 200.582C106.492 199.457 104.949 200.016 103.498 200.975C102.983 201.324 102.487 201.7 102.011 202.1C102.557 200.813 103.194 199.566 103.916 198.368C105.365 195.959 107.177 193.787 109.289 191.932C110.377 192.929 111.661 193.689 113.058 194.163C115.763 195.049 117.638 193.18 116.747 191.348C116.046 189.86 114.386 189.792 112.677 190.118C112.031 190.262 111.393 190.438 110.765 190.647H110.808C113.126 188.834 115.625 187.264 118.265 185.962C119.199 187.183 120.386 188.187 121.745 188.907C124.271 190.21 126.423 188.674 125.863 186.725C125.409 185.139 123.779 184.813 122.04 184.88C121.358 184.918 120.678 184.994 120.005 185.108C122.814 183.78 125.679 182.526 128.446 181.063L128.507 181.032C129.75 182.1 131.223 182.868 132.81 183.276C135.571 183.958 137.304 181.954 136.302 180.202C135.497 178.764 133.843 178.825 132.159 179.305C131.691 179.434 131.23 179.606 130.775 179.778C132.62 178.703 134.41 177.536 136.136 176.28L136.284 176.434C136.28 176.411 136.28 176.388 136.284 176.366C137.526 177.443 138.998 178.221 140.587 178.641C143.347 179.317 145.081 177.319 144.085 175.567C143.335 174.14 141.675 174.14 140.028 174.645ZM96.4715 231.086C95.9121 230.428 95.3711 229.74 94.8485 229.045C94.9776 228.928 95.1129 228.799 95.2481 228.664C96.0259 228.909 96.8315 229.053 97.6457 229.094V229.224L98.0269 229.15C98.2236 230.127 98.4326 231.111 98.6416 232.088C98.3854 231.755 98.0514 231.489 97.6689 231.314C97.2863 231.14 96.8668 231.061 96.4469 231.086H96.4715ZM98.5064 207.639C98.3158 208.371 98.1498 209.108 97.9961 209.846L97.9039 209.717C97.9039 208.201 97.9265 206.686 97.9715 205.174C98.0146 204.11 98.0945 203.053 98.1867 202.002C98.6944 202.526 99.2571 202.994 99.865 203.397C99.3273 204.785 98.8656 206.201 98.4818 207.639H98.5064ZM101.064 200.662C101.064 200.385 101.125 200.102 101.144 199.832C101.144 199.69 101.144 199.549 101.144 199.414C101.365 199.346 101.593 199.266 101.82 199.174C101.537 199.666 101.297 200.157 101.039 200.662H101.064ZM104.304 195.393C104.196 195.147 104.039 194.926 103.844 194.742C103.648 194.559 103.418 194.416 103.166 194.323C101.629 193.708 100.381 194.827 99.3917 196.254L99.3425 196.327L99.2441 196.297L98.9244 196.254C98.9244 196.168 98.9552 196.081 98.9675 195.995C99.3628 193.748 99.8946 191.527 100.56 189.344C101.99 189.522 103.441 189.409 104.826 189.012C105.674 188.796 106.415 188.284 106.916 187.567C107.195 188.82 107.717 190.007 108.453 191.059C106.918 192.357 105.519 193.81 104.279 195.393H104.304Z" fill="#4470C7"/>
<path d="M157.57 172.683H282.111C283.597 172.683 285.022 173.274 286.074 174.325C287.125 175.376 287.715 176.801 287.715 178.288V265.677H151.987V178.267C151.992 176.788 152.582 175.371 153.628 174.325C154.674 173.279 156.091 172.689 157.57 172.683Z" fill="#263238" stroke="#263238" strokeLinecap="round" strokeLinejoin="round"/>
<path d="M308.053 306.779H131.628L151.987 265.67H287.694L308.053 306.779Z" fill="white" stroke="#263238" strokeLinecap="round" strokeLinejoin="round"/>
<path d="M279.476 180.046H160.205V258.307H279.476V180.046Z" fill="#4470C7" stroke="#263238" strokeLinecap="round" strokeLinejoin="round"/>
<path d="M214.176 278.679L214.415 273.67H207.241L206.764 278.679H214.176Z" fill="#263238" stroke="white" strokeLinecap="round" strokeLinejoin="round"/>
<path d="M229 278.679L228.755 273.67H221.581L221.588 278.679H229Z" fill="#263238" stroke="white" strokeLinecap="round" strokeLinejoin="round"/>
<path d="M267.595 284.039H275.259L273.458 278.679H266.054L267.595 284.039Z" fill="#263238" stroke="white" strokeLinecap="round" strokeLinejoin="round"/>
<path d="M206.764 278.679L207.241 273.67H200.074L199.359 278.679H206.764Z" fill="#263238" stroke="white" strokeLinecap="round" strokeLinejoin="round"/>
<path d="M191.947 278.679L192.9 273.67H185.733L184.535 278.679H191.947Z" fill="#263238" stroke="white" strokeLinecap="round" strokeLinejoin="round"/>
<path d="M258.641 278.679L257.437 273.67H250.27L251.229 278.679H258.641Z" fill="#263238" stroke="white" strokeLinecap="round" strokeLinejoin="round"/>
<path d="M266.054 278.679L264.61 273.67H257.437L258.641 278.679H266.054Z" fill="#263238" stroke="white" strokeLinecap="round" strokeLinejoin="round"/>
<path d="M184.535 278.679L185.733 273.67H178.559L177.123 278.679H184.535Z" fill="#263238" stroke="white" strokeLinecap="round" strokeLinejoin="round"/>
<path d="M236.405 278.679L235.922 273.67H228.755L229 278.679H236.405Z" fill="#263238" stroke="white" strokeLinecap="round" strokeLinejoin="round"/>
<path d="M273.459 278.679L271.777 273.67H264.61L266.054 278.679H273.459Z" fill="#263238" stroke="white" strokeLinecap="round" strokeLinejoin="round"/>
<path d="M251.229 278.679L250.27 273.67H243.096L243.817 278.679H251.229Z" fill="#263238" stroke="white" strokeLinecap="round" strokeLinejoin="round"/>
<path d="M243.817 278.679L243.096 273.67H235.922L236.405 278.679H243.817Z" fill="#263238" stroke="white" strokeLinecap="round" strokeLinejoin="round"/>
<path d="M221.588 278.679L221.581 273.67H214.415L214.176 278.679H221.588Z" fill="#263238" stroke="white" strokeLinecap="round" strokeLinejoin="round"/>
<path d="M169.718 278.679H162.306L160.261 284.039H167.925L169.718 278.679Z" fill="#263238" stroke="white" strokeLinecap="round" strokeLinejoin="round"/>
<path d="M171.386 273.67H164.219L162.306 278.679H169.718L171.386 273.67Z" fill="#263238" stroke="white" strokeLinecap="round" strokeLinejoin="round"/>
<path d="M177.123 278.679L178.559 273.67H171.386L169.718 278.679H177.123Z" fill="#263238" stroke="white" strokeLinecap="round" strokeLinejoin="round"/>
<path d="M158.068 289.776L155.707 295.941H163.946L166.005 289.776H158.068Z" fill="#263238" stroke="white" strokeLinecap="round" strokeLinejoin="round"/>
<path d="M167.925 284.039H160.261L158.068 289.776H166.005L167.925 284.039Z" fill="#263238" stroke="white" strokeLinecap="round" strokeLinejoin="round"/>
<path d="M166.005 289.776L163.946 295.941H172.184L173.95 289.776H166.005Z" fill="#263238" stroke="white" strokeLinecap="round" strokeLinejoin="round"/>
<path d="M199.359 278.679L200.074 273.67H192.9L191.947 278.679H199.359Z" fill="#263238" stroke="white" strokeLinecap="round" strokeLinejoin="round"/>
<path d="M198.589 284.039L199.359 278.679H191.947L190.925 284.039H198.589Z" fill="#263238" stroke="white" strokeLinecap="round" strokeLinejoin="round"/>
<path d="M190.925 284.039L191.947 278.679H184.535L183.26 284.039H190.925Z" fill="#263238" stroke="white" strokeLinecap="round" strokeLinejoin="round"/>
<path d="M206.26 284.039L206.764 278.679H199.359L198.589 284.039H206.26Z" fill="#263238" stroke="white" strokeLinecap="round" strokeLinejoin="round"/>
<path d="M177.123 278.679H169.718L167.925 284.039H175.589L177.123 278.679Z" fill="#263238" stroke="white" strokeLinecap="round" strokeLinejoin="round"/>
<path d="M269.248 289.776H277.193L275.259 284.039H267.595L269.248 289.776Z" fill="#263238" stroke="white" strokeLinecap="round" strokeLinejoin="round"/>
<path d="M183.26 284.039L184.535 278.679H177.123L175.589 284.039H183.26Z" fill="#263238" stroke="white" strokeLinecap="round" strokeLinejoin="round"/>
<path d="M167.925 284.039L166.005 289.776H173.95L175.589 284.039H167.925Z" fill="#263238" stroke="white" strokeLinecap="round" strokeLinejoin="round"/>
<path d="M252.259 284.039L251.229 278.679H243.817L244.595 284.039H252.259Z" fill="#263238" stroke="white" strokeLinecap="round" strokeLinejoin="round"/>
<path d="M244.595 284.039L243.817 278.679H236.405L236.924 284.039H244.595Z" fill="#263238" stroke="white" strokeLinecap="round" strokeLinejoin="round"/>
<path d="M267.595 284.039L266.054 278.679H258.641L259.924 284.039H267.595Z" fill="#263238" stroke="white" strokeLinecap="round" strokeLinejoin="round"/>
<path d="M221.595 284.039L221.588 278.679H214.176L213.924 284.039H221.595Z" fill="#263238" stroke="white" strokeLinecap="round" strokeLinejoin="round"/>
<path d="M236.924 284.039L236.405 278.679H229L229.26 284.039H236.924Z" fill="#263238" stroke="white" strokeLinecap="round" strokeLinejoin="round"/>
<path d="M229.26 284.039L229 278.679H221.588L221.595 284.039H229.26Z" fill="#263238" stroke="white" strokeLinecap="round" strokeLinejoin="round"/>
<path d="M213.924 284.039L214.176 278.679H206.764L206.26 284.039H213.924Z" fill="#263238" stroke="white" strokeLinecap="round" strokeLinejoin="round"/>
<path d="M236.924 284.039L237.484 289.776H245.422L244.595 284.039H236.924Z" fill="#263238" stroke="white" strokeLinecap="round" strokeLinejoin="round"/>
<path d="M244.595 284.039L245.422 289.776H253.366L252.259 284.039H244.595Z" fill="#263238" stroke="white" strokeLinecap="round" strokeLinejoin="round"/>
<path d="M175.589 284.039L173.95 289.776H181.894L183.26 284.039H175.589Z" fill="#263238" stroke="white" strokeLinecap="round" strokeLinejoin="round"/>
<path d="M252.259 284.039L253.366 289.776H261.304L259.924 284.039H252.259Z" fill="#263238" stroke="white" strokeLinecap="round" strokeLinejoin="round"/>
<path d="M221.595 284.039V289.776H229.54L229.26 284.039H221.595Z" fill="#263238" stroke="white" strokeLinecap="round" strokeLinejoin="round"/>
<path d="M259.924 284.039L261.304 289.776H269.248L267.595 284.039H259.924Z" fill="#263238" stroke="white" strokeLinecap="round" strokeLinejoin="round"/>
<path d="M229.26 284.039L229.54 289.776H237.484L236.924 284.039H229.26Z" fill="#263238" stroke="white" strokeLinecap="round" strokeLinejoin="round"/>
<path d="M190.925 284.039L189.832 289.776H197.776L198.589 284.039H190.925Z" fill="#263238" stroke="white" strokeLinecap="round" strokeLinejoin="round"/>
<path d="M183.26 284.039L181.894 289.776H189.832L190.925 284.039H183.26Z" fill="#263238" stroke="white" strokeLinecap="round" strokeLinejoin="round"/>
<path d="M213.924 284.039L213.658 289.776H221.595V284.039H213.924Z" fill="#263238" stroke="white" strokeLinecap="round" strokeLinejoin="round"/>
<path d="M206.26 284.039L205.714 289.776H213.658L213.924 284.039H206.26Z" fill="#263238" stroke="white" strokeLinecap="round" strokeLinejoin="round"/>
<path d="M198.589 284.039L197.776 289.776H205.714L206.26 284.039H198.589Z" fill="#263238" stroke="white" strokeLinecap="round" strokeLinejoin="round"/>
<path d="M259.924 284.039L258.641 278.679H251.229L252.259 284.039H259.924Z" fill="#263238" stroke="white" strokeLinecap="round" strokeLinejoin="round"/>
<path d="M171.386 273.67L173.102 268.542H166.173L164.219 273.67H171.386Z" fill="#263238" stroke="white" strokeLinecap="round" strokeLinejoin="round"/>
<path d="M164.219 273.67H157.598L155.462 278.679H162.306L164.219 273.67Z" fill="#263238" stroke="white" strokeLinecap="round" strokeLinejoin="round"/>
<path d="M166.173 268.542H159.784L157.598 273.67H164.219L166.173 268.542Z" fill="#263238" stroke="white" strokeLinecap="round" strokeLinejoin="round"/>
<path d="M162.306 278.679H155.462L153.185 284.039H160.261L162.306 278.679Z" fill="#263238" stroke="white" strokeLinecap="round" strokeLinejoin="round"/>
<path d="M160.261 284.039H153.185L150.733 289.776H158.068L160.261 284.039Z" fill="#263238" stroke="white" strokeLinecap="round" strokeLinejoin="round"/>
<path d="M158.068 289.776H150.733L148.106 295.941H155.707L158.068 289.776Z" fill="#263238" stroke="white" strokeLinecap="round" strokeLinejoin="round"/>
<path d="M280.871 278.679L282.93 284.039H289.712L287.428 278.679H280.871Z" fill="#263238" stroke="white" strokeLinecap="round" strokeLinejoin="round"/>
<path d="M285.13 289.776H292.157L289.712 284.039H282.93L285.13 289.776Z" fill="#263238" stroke="white" strokeLinecap="round" strokeLinejoin="round"/>
<path d="M287.498 295.941H294.784L292.157 289.776H285.13L287.498 295.941Z" fill="#263238" stroke="white" strokeLinecap="round" strokeLinejoin="round"/>
<path d="M228.755 273.67L228.503 268.542H221.581V273.67H228.755Z" fill="#263238" stroke="white" strokeLinecap="round" strokeLinejoin="round"/>
<path d="M280.871 278.679H287.428L285.291 273.67H278.951L280.871 278.679Z" fill="#263238" stroke="white" strokeLinecap="round" strokeLinejoin="round"/>
<path d="M277.193 289.776H285.13L282.93 284.039H275.259L277.193 289.776Z" fill="#263238" stroke="white" strokeLinecap="round" strokeLinejoin="round"/>
<path d="M178.559 273.67L180.024 268.542H173.102L171.386 273.67H178.559Z" fill="#263238" stroke="white" strokeLinecap="round" strokeLinejoin="round"/>
<path d="M271.777 273.67L273.459 278.679H280.871L278.951 273.67H271.777Z" fill="#263238" stroke="white" strokeLinecap="round" strokeLinejoin="round"/>
<path d="M285.291 273.67L283.105 268.542H276.982L278.951 273.67H285.291Z" fill="#263238" stroke="white" strokeLinecap="round" strokeLinejoin="round"/>
<path d="M278.951 273.67L276.982 268.542H270.054L271.777 273.67H278.951Z" fill="#263238" stroke="white" strokeLinecap="round" strokeLinejoin="round"/>
<path d="M253.366 289.776L254.55 295.941H262.789L261.304 289.776H253.366Z" fill="#263238" stroke="white" strokeLinecap="round" strokeLinejoin="round"/>
<path d="M279.259 295.941H287.498L285.13 289.776H277.193L279.259 295.941Z" fill="#263238" stroke="white" strokeLinecap="round" strokeLinejoin="round"/>
<path d="M271.777 273.67L270.054 268.542H263.132L264.61 273.67H271.777Z" fill="#263238" stroke="white" strokeLinecap="round" strokeLinejoin="round"/>
<path d="M269.248 289.776L271.028 295.941H279.259L277.193 289.776H269.248Z" fill="#263238" stroke="white" strokeLinecap="round" strokeLinejoin="round"/>
<path d="M261.304 289.776L262.789 295.941H271.028L269.248 289.776H261.304Z" fill="#263238" stroke="white" strokeLinecap="round" strokeLinejoin="round"/>
<path d="M275.259 284.039H282.93L280.871 278.679H273.459L275.259 284.039Z" fill="#263238" stroke="white" strokeLinecap="round" strokeLinejoin="round"/>
<path d="M207.241 273.67L207.731 268.542H200.803L200.074 273.67H207.241Z" fill="#263238" stroke="white" strokeLinecap="round" strokeLinejoin="round"/>
<path d="M264.61 273.67L263.132 268.542H256.204L257.437 273.67H264.61Z" fill="#263238" stroke="white" strokeLinecap="round" strokeLinejoin="round"/>
<path d="M200.074 273.67L200.803 268.542H193.881L192.9 273.67H200.074Z" fill="#263238" stroke="white" strokeLinecap="round" strokeLinejoin="round"/>
<path d="M221.581 273.67V268.542H214.653L214.415 273.67H221.581Z" fill="#263238" stroke="white" strokeLinecap="round" strokeLinejoin="round"/>
<path d="M192.9 273.67L193.881 268.542H186.952L185.733 273.67H192.9Z" fill="#263238" stroke="white" strokeLinecap="round" strokeLinejoin="round"/>
<path d="M185.733 273.67L186.952 268.542H180.024L178.559 273.67H185.733Z" fill="#263238" stroke="white" strokeLinecap="round" strokeLinejoin="round"/>
<path d="M214.415 273.67L214.653 268.542H207.731L207.241 273.67H214.415Z" fill="#263238" stroke="white" strokeLinecap="round" strokeLinejoin="round"/>
<path d="M257.437 273.67L256.204 268.542H249.282L250.27 273.67H257.437Z" fill="#263238" stroke="white" strokeLinecap="round" strokeLinejoin="round"/>
<path d="M250.27 273.67L249.282 268.542H242.353L243.096 273.67H250.27Z" fill="#263238" stroke="white" strokeLinecap="round" strokeLinejoin="round"/>
<path d="M235.922 273.67L235.432 268.542H228.503L228.755 273.67H235.922Z" fill="#263238" stroke="white" strokeLinecap="round" strokeLinejoin="round"/>
<path d="M253.366 289.776H245.422H237.484H229.54H221.595H213.658H205.714H197.776H189.832H181.894H173.95L172.184 295.941H180.423H188.655H196.893H205.132H213.371H221.602H229.841H238.08H246.311H254.55L253.366 289.776Z" fill="#263238" stroke="white" strokeLinecap="round" strokeLinejoin="round"/>
<path d="M243.096 273.67L242.353 268.542H235.432L235.922 273.67H243.096Z" fill="#263238" stroke="white" strokeLinecap="round" strokeLinejoin="round"/>
<path d="M308.13 306.772H131.628V309.273H308.13V306.772Z" fill="#263238" stroke="#263238" strokeLinecap="round" strokeLinejoin="round"/>
<path opacity="0.15" d="M267.034 197.897V265.214L247.467 290.722L244.175 291.955L143.797 306.765V310.058L107.031 312.033V275.912H169.718V197.574L267.034 197.897Z" fill="black"/>
<path d="M84.4871 268.689C79.9684 268.913 75.0715 272.36 75.0715 272.36L24 312.033H107.031C107.031 312.033 159.455 272.472 161.024 271.337C163.511 269.544 168.443 268.633 168.443 268.633L166.11 268.689H84.4871Z" fill="white" stroke="#263238" strokeLinecap="round" strokeLinejoin="round"/>
<path d="M275.504 197.96H164.387" stroke="#263238" strokeLinecap="round" strokeLinejoin="round"/>
<path d="M258.747 174.014C257.657 174.013 256.579 174.227 255.572 174.644C254.566 175.061 253.652 175.672 252.882 176.442C252.112 177.213 251.502 178.128 251.086 179.134C250.67 180.141 250.457 181.22 250.459 182.309V284.179C250.456 285.522 250.132 286.846 249.512 288.038C248.893 289.23 247.997 290.256 246.899 291.031C245.801 291.806 244.534 292.306 243.203 292.49C241.872 292.674 240.516 292.536 239.25 292.088L176.388 269.761C173.091 268.587 169.525 268.387 166.117 269.187V182.309C166.117 180.111 166.991 178.003 168.545 176.449C170.099 174.895 172.207 174.021 174.405 174.021L258.747 174.014Z" fill="white"/>
<path d="M184.108 272.507L239.243 292.088C240.509 292.536 241.865 292.674 243.196 292.49C244.527 292.306 245.794 291.806 246.892 291.031C247.99 290.256 248.886 289.23 249.505 288.038C250.125 286.846 250.449 285.522 250.452 284.179V272.507H184.108Z" fill="#4470C7"/>
<path opacity="0.6" d="M184.108 272.507L239.243 292.088C240.509 292.536 241.865 292.674 243.196 292.49C244.527 292.306 245.794 291.806 246.892 291.031C247.99 290.256 248.886 289.23 249.505 288.038C250.125 286.846 250.449 285.522 250.452 284.179V272.507H184.108Z" fill="white"/>
<path d="M184.108 285.923L239.243 305.539C240.51 305.987 241.866 306.125 243.198 305.94C244.529 305.756 245.797 305.255 246.895 304.48C247.993 303.705 248.889 302.677 249.508 301.484C250.126 300.291 250.45 298.967 250.452 297.623V285.923H184.108Z" fill="#4470C7"/>
<path d="M258.747 174.014C257.657 174.013 256.579 174.227 255.572 174.644C254.566 175.061 253.652 175.672 252.882 176.442C252.112 177.213 251.502 178.128 251.086 179.134C250.67 180.141 250.457 181.22 250.459 182.309V284.179C250.456 285.522 250.132 286.846 249.512 288.038C248.893 289.23 247.997 290.256 246.899 291.031C245.801 291.806 244.534 292.306 243.203 292.49C241.872 292.674 240.516 292.536 239.25 292.088L176.388 269.761C173.091 268.587 169.525 268.387 166.117 269.187V182.309C166.117 180.111 166.991 178.003 168.545 176.449C170.099 174.895 172.207 174.021 174.405 174.021L258.747 174.014Z" stroke="#263238" strokeLinecap="round" strokeLinejoin="round"/>
<path d="M169.683 268.689H166.11" stroke="#263238" strokeLinecap="round" strokeLinejoin="round"/>
<path d="M242.066 292.586H157.718C156.762 292.581 155.814 292.413 154.915 292.088L140.35 286.967L158.46 273.026C160.905 270.965 163.847 269.579 166.993 269.006C170.139 268.434 173.38 268.694 176.395 269.761L239.257 292.088C240.158 292.414 241.108 292.582 242.066 292.586V292.586Z" fill="white"/>
<path d="M242.066 292.586H157.718C156.762 292.581 155.814 292.413 154.915 292.088L139.447 286.694L158.446 273.026C160.891 270.965 163.833 269.579 166.979 269.006C170.125 268.434 173.366 268.694 176.381 269.761L239.243 292.088C240.148 292.415 241.103 292.583 242.066 292.586V292.586Z" fill="#4470C7"/>
<path opacity="0.2" d="M242.066 292.586H157.718C156.762 292.581 155.814 292.413 154.915 292.088L139.447 286.694L158.446 273.026C160.891 270.965 163.833 269.579 166.979 269.006C170.125 268.434 173.366 268.694 176.381 269.761L239.243 292.088C240.148 292.415 241.103 292.583 242.066 292.586V292.586Z" fill="black"/>
<path d="M242.066 292.586H157.718C156.762 292.581 155.814 292.413 154.915 292.088L140.35 286.967L158.46 273.026C160.905 270.965 163.847 269.579 166.993 269.006C170.139 268.434 173.38 268.694 176.395 269.761L239.257 292.088C240.158 292.414 241.108 292.582 242.066 292.586V292.586Z" stroke="#263238" strokeLinecap="round" strokeLinejoin="round"/>
<path d="M157.718 292.586H157.535" stroke="#263238" strokeLinecap="round" strokeLinejoin="round"/>
<path d="M242.227 292.586H242.066" stroke="#263238" strokeLinecap="round" strokeLinejoin="round"/>
<path d="M264.603 176.445C263.837 175.673 262.924 175.06 261.919 174.643C260.913 174.225 259.835 174.012 258.747 174.014C250.116 174.014 250.459 182.302 250.459 182.302V197.897H267.034V182.309C267.037 181.219 266.823 180.14 266.406 179.134C265.989 178.127 265.376 177.213 264.603 176.445V176.445Z" fill="white"/>
<path d="M264.603 176.445C263.837 175.673 262.924 175.06 261.919 174.643C260.913 174.225 259.835 174.012 258.747 174.014C250.116 174.014 250.459 182.302 250.459 182.302V197.897H267.034V182.309C267.037 181.219 266.823 180.14 266.406 179.134C265.989 178.127 265.376 177.213 264.603 176.445V176.445Z" fill="#4470C7"/>
<path opacity="0.2" d="M264.603 176.445C263.837 175.673 262.924 175.06 261.919 174.643C260.913 174.225 259.835 174.012 258.747 174.014C250.116 174.014 250.459 182.302 250.459 182.302V197.897H267.034V182.309C267.037 181.219 266.823 180.14 266.406 179.134C265.989 178.127 265.376 177.213 264.603 176.445V176.445Z" fill="black"/>
<path d="M264.603 176.445C263.837 175.673 262.924 175.06 261.919 174.643C260.913 174.225 259.835 174.012 258.747 174.014C250.116 174.014 250.459 182.302 250.459 182.302V197.897H267.034V182.309C267.037 181.219 266.823 180.14 266.406 179.134C265.989 178.127 265.376 177.213 264.603 176.445V176.445Z" stroke="#263238" strokeLinecap="round" strokeLinejoin="round"/>
<g opacity="0.15">
<path opacity="0.15" d="M173.852 188.292V188.439V191.977V192.124V195.662V195.809V199.34V199.487V203.025V203.172V206.71V206.857V210.388V210.535V214.073V214.22V217.758V217.905V221.436V221.583V225.121V225.268V228.953H181.859V225.268V225.121V221.583V221.436V217.905V217.758V214.22V214.073V210.535V210.388V206.857V206.71V203.172V203.025V199.487V199.34V195.809V195.662V192.124V191.977V188.439V188.292V184.614H173.852V188.292Z" fill="black"/>
<path opacity="0.15" d="M236.987 184.614H236.819H229.155H228.979H221.315H221.14H213.483H213.308H205.643H205.468H197.811H197.636H189.972H189.797H181.964V188.439H189.797H189.972H197.636H197.811H205.468H205.643H213.308H213.483H221.14H221.315H228.979H229.155H236.819H236.987H244.826V184.614H236.987Z" fill="black"/>
</g>
<path d="M181.859 184.614H173.852V188.446H181.859V184.614Z" stroke="#263238" strokeWidth="0.25" strokeLinecap="round" strokeLinejoin="round"/>
<path d="M181.859 188.292H173.852V192.124H181.859V188.292Z" stroke="#263238" strokeWidth="0.25" strokeLinecap="round" strokeLinejoin="round"/>
<path d="M181.859 191.977H173.852V195.809H181.859V191.977Z" stroke="#263238" strokeWidth="0.25" strokeLinecap="round" strokeLinejoin="round"/>
<path d="M181.859 195.662H173.852V199.494H181.859V195.662Z" stroke="#263238" strokeWidth="0.25" strokeLinecap="round" strokeLinejoin="round"/>
<path d="M181.859 199.34H173.852V203.172H181.859V199.34Z" stroke="#263238" strokeWidth="0.25" strokeLinecap="round" strokeLinejoin="round"/>
<path d="M181.859 203.025H173.852V206.857H181.859V203.025Z" stroke="#263238" strokeWidth="0.25" strokeLinecap="round" strokeLinejoin="round"/>
<path d="M181.859 206.71H173.852V210.542H181.859V206.71Z" stroke="#263238" strokeWidth="0.25" strokeLinecap="round" strokeLinejoin="round"/>
<path d="M181.859 210.388H173.852V214.22H181.859V210.388Z" stroke="#263238" strokeWidth="0.25" strokeLinecap="round" strokeLinejoin="round"/>
<path d="M181.859 214.073H173.852V217.905H181.859V214.073Z" stroke="#263238" strokeWidth="0.25" strokeLinecap="round" strokeLinejoin="round"/>
<path d="M181.859 217.758H173.852V221.59H181.859V217.758Z" stroke="#263238" strokeWidth="0.25" strokeLinecap="round" strokeLinejoin="round"/>
<path d="M181.859 221.436H173.852V225.268H181.859V221.436Z" stroke="#263238" strokeWidth="0.25" strokeLinecap="round" strokeLinejoin="round"/>
<path d="M181.859 225.121H173.852V228.953H181.859V225.121Z" stroke="#263238" strokeWidth="0.25" strokeLinecap="round" strokeLinejoin="round"/>
<path d="M189.972 184.614H181.964V188.446H189.972V184.614Z" stroke="#263238" strokeWidth="0.25" strokeLinecap="round" strokeLinejoin="round"/>
<path d="M197.804 184.614H189.797V188.446H197.804V184.614Z" stroke="#263238" strokeWidth="0.25" strokeLinecap="round" strokeLinejoin="round"/>
<path d="M205.643 184.614H197.636V188.446H205.643V184.614Z" stroke="#263238" strokeWidth="0.25" strokeLinecap="round" strokeLinejoin="round"/>
<path d="M213.476 184.614H205.468V188.446H213.476V184.614Z" stroke="#263238" strokeWidth="0.25" strokeLinecap="round" strokeLinejoin="round"/>
<path d="M221.315 184.614H213.308V188.446H221.315V184.614Z" stroke="#263238" strokeWidth="0.25" strokeLinecap="round" strokeLinejoin="round"/>
<path d="M229.148 184.614H221.14V188.446H229.148V184.614Z" stroke="#263238" strokeWidth="0.25" strokeLinecap="round" strokeLinejoin="round"/>
<path d="M236.987 184.614H228.979V188.446H236.987V184.614Z" stroke="#263238" strokeWidth="0.25" strokeLinecap="round" strokeLinejoin="round"/>
<path d="M244.826 184.614H236.819V188.446H244.826V184.614Z" stroke="#263238" strokeWidth="0.25" strokeLinecap="round" strokeLinejoin="round"/>
<path d="M244.819 188.439H181.859V228.946H244.819V188.439Z" stroke="#263238" strokeWidth="0.25" strokeLinecap="round" strokeLinejoin="round"/>
<path d="M189.867 188.439V228.939" stroke="#263238" strokeWidth="0.25" strokeLinecap="round" strokeLinejoin="round"/>
<path d="M197.706 188.439V228.939" stroke="#263238" strokeWidth="0.25" strokeLinecap="round" strokeLinejoin="round"/>
<path d="M205.545 188.439V228.939" stroke="#263238" strokeWidth="0.25" strokeLinecap="round" strokeLinejoin="round"/>
<path d="M213.385 188.439V228.939" stroke="#263238" strokeWidth="0.25" strokeLinecap="round" strokeLinejoin="round"/>
<path d="M221.217 188.439V228.939" stroke="#263238" strokeWidth="0.25" strokeLinecap="round" strokeLinejoin="round"/>
<path d="M229.056 188.439V228.939" stroke="#263238" strokeWidth="0.25" strokeLinecap="round" strokeLinejoin="round"/>
<path d="M236.896 188.439V228.939" stroke="#263238" strokeWidth="0.25" strokeLinecap="round" strokeLinejoin="round"/>
<path d="M181.859 192.124H244.777" stroke="#263238" strokeWidth="0.25" strokeLinecap="round" strokeLinejoin="round"/>
<path d="M181.859 195.795H244.777" stroke="#263238" strokeWidth="0.25" strokeLinecap="round" strokeLinejoin="round"/>
<path d="M181.859 199.466H244.777" stroke="#263238" strokeWidth="0.25" strokeLinecap="round" strokeLinejoin="round"/>
<path d="M181.859 203.137H244.777" stroke="#263238" strokeWidth="0.25" strokeLinecap="round" strokeLinejoin="round"/>
<path d="M181.859 206.808H244.777" stroke="#263238" strokeWidth="0.25" strokeLinecap="round" strokeLinejoin="round"/>
<path d="M181.859 210.472H244.777" stroke="#263238" strokeWidth="0.25" strokeLinecap="round" strokeLinejoin="round"/>
<path d="M181.859 214.143H244.777" stroke="#263238" strokeWidth="0.25" strokeLinecap="round" strokeLinejoin="round"/>
<path d="M181.859 217.814H244.777" stroke="#263238" strokeWidth="0.25" strokeLinecap="round" strokeLinejoin="round"/>
<path d="M181.859 221.485H244.777" stroke="#263238" strokeWidth="0.25" strokeLinecap="round" strokeLinejoin="round"/>
<path d="M181.859 225.156H244.777" stroke="#263238" strokeWidth="0.25" strokeLinecap="round" strokeLinejoin="round"/>
<path d="M141.724 278.553H74.2238L78.8826 275.015H146.382L141.724 278.553Z" fill="#4470C7"/>
<path d="M38.5018 306.954H36.8484L78.8826 275.015H80.5429L38.5018 306.954Z" fill="#4470C7"/>
<path d="M126.85 289.832H59.3577L64.633 285.881H132.126L126.85 289.832Z" fill="#263238"/>
<path d="M104.131 307.115H36.6312L78.8825 275.015H146.382L104.131 307.115Z" stroke="#263238" strokeWidth="0.25" strokeLinecap="round" strokeLinejoin="round"/>
<path d="M85.8392 275.134L43.77 307.094" stroke="#263238" strokeWidth="0.25" strokeLinecap="round" strokeLinejoin="round"/>
<path d="M92.6207 275.134L50.5516 307.094" stroke="#263238" strokeWidth="0.25" strokeLinecap="round" strokeLinejoin="round"/>
<path d="M99.3952 275.134L57.326 307.094" stroke="#263238" strokeWidth="0.25" strokeLinecap="round" strokeLinejoin="round"/>
<path d="M106.177 275.134L64.1075 307.094" stroke="#263238" strokeWidth="0.25" strokeLinecap="round" strokeLinejoin="round"/>
<path d="M112.958 275.134L70.8891 307.094" stroke="#263238" strokeWidth="0.25" strokeLinecap="round" strokeLinejoin="round"/>
<path d="M119.74 275.134L77.6636 307.094" stroke="#263238" strokeWidth="0.25" strokeLinecap="round" strokeLinejoin="round"/>
<path d="M126.514 275.134L84.445 307.094" stroke="#263238" strokeWidth="0.25" strokeLinecap="round" strokeLinejoin="round"/>
<path d="M133.296 275.134L91.2266 307.094" stroke="#263238" strokeWidth="0.25" strokeLinecap="round" strokeLinejoin="round"/>
<path d="M140.077 275.134L98.0011 307.094" stroke="#263238" strokeWidth="0.25" strokeLinecap="round" strokeLinejoin="round"/>
<path d="M70.0904 281.783H137.387" stroke="#263238" strokeWidth="0.25" strokeLinecap="round" strokeLinejoin="round"/>
<path d="M64.7171 285.867H132.014" stroke="#263238" strokeWidth="0.25" strokeLinecap="round" strokeLinejoin="round"/>
<path d="M59.3437 289.951H126.64" stroke="#263238" strokeWidth="0.25" strokeLinecap="round" strokeLinejoin="round"/>
<path d="M53.9703 294.029H121.267" stroke="#263238" strokeWidth="0.25" strokeLinecap="round" strokeLinejoin="round"/>
<path d="M48.597 298.113H115.894" stroke="#263238" strokeWidth="0.25" strokeLinecap="round" strokeLinejoin="round"/>
<path d="M43.2236 302.197H110.52" stroke="#263238" strokeWidth="0.25" strokeLinecap="round" strokeLinejoin="round"/>
<path d="M244.931 232.042H173.789V234.656H244.931V232.042Z" fill="#4470C7"/>
<path d="M175.533 232.042H173.789V265.698H175.533V232.042Z" fill="#4470C7"/>
<path d="M244.931 232.042H173.789V265.873H244.931V232.042Z" stroke="#263238" strokeWidth="0.25" strokeLinecap="round" strokeLinejoin="round"/>
<path d="M181.285 232.169V265.852" stroke="#263238" strokeWidth="0.25" strokeLinecap="round" strokeLinejoin="round"/>
<path d="M188.43 232.169V265.852" stroke="#263238" strokeWidth="0.25" strokeLinecap="round" strokeLinejoin="round"/>
<path d="M195.576 232.169V265.852" stroke="#263238" strokeWidth="0.25" strokeLinecap="round" strokeLinejoin="round"/>
<path d="M202.722 232.169V265.852" stroke="#263238" strokeWidth="0.25" strokeLinecap="round" strokeLinejoin="round"/>
<path d="M209.868 232.169V265.852" stroke="#263238" strokeWidth="0.25" strokeLinecap="round" strokeLinejoin="round"/>
<path d="M217.014 232.169V265.852" stroke="#263238" strokeWidth="0.25" strokeLinecap="round" strokeLinejoin="round"/>
<path d="M224.159 232.169V265.852" stroke="#263238" strokeWidth="0.25" strokeLinecap="round" strokeLinejoin="round"/>
<path d="M231.298 232.169V265.852" stroke="#263238" strokeWidth="0.25" strokeLinecap="round" strokeLinejoin="round"/>
<path d="M238.444 232.169V265.852" stroke="#263238" strokeWidth="0.25" strokeLinecap="round" strokeLinejoin="round"/>
<path d="M173.908 239.174H244.84" stroke="#263238" strokeWidth="0.25" strokeLinecap="round" strokeLinejoin="round"/>
<path d="M173.908 243.483H244.84" stroke="#263238" strokeWidth="0.25" strokeLinecap="round" strokeLinejoin="round"/>
<path d="M173.908 247.784H244.84" stroke="#263238" strokeWidth="0.25" strokeLinecap="round" strokeLinejoin="round"/>
<path d="M173.908 252.086H244.84" stroke="#263238" strokeWidth="0.25" strokeLinecap="round" strokeLinejoin="round"/>
<path d="M173.908 256.387H244.84" stroke="#263238" strokeWidth="0.25" strokeLinecap="round" strokeLinejoin="round"/>
<path d="M173.908 260.689H244.84" stroke="#263238" strokeWidth="0.25" strokeLinecap="round" strokeLinejoin="round"/>
<path d="M221.378 253.634H218.415V260.556H221.378V253.634Z" fill="#263238" stroke="#263238" strokeWidth="0.5" strokeMiterlimit="10"/>
<path d="M226.128 249.487H223.165V260.563H226.128V249.487Z" fill="#4470C7" stroke="#263238" strokeWidth="0.5" strokeMiterlimit="10"/>
<path d="M230.871 242.565H227.908V260.563H230.871V242.565Z" fill="#263238" stroke="#263238" strokeWidth="0.5" strokeMiterlimit="10"/>
<path d="M235.621 249.283H232.657V260.556H235.621V249.283Z" fill="#4470C7" stroke="#263238" strokeWidth="0.5" strokeMiterlimit="10"/>
<path d="M240.364 242.565H237.4V260.563H240.364V242.565Z" fill="#263238" stroke="#263238" strokeWidth="0.5" strokeMiterlimit="10"/>
<path d="M190.868 252.24V260.464C188.687 260.464 186.595 259.598 185.053 258.056C183.51 256.513 182.644 254.421 182.644 252.24C182.644 250.059 183.51 247.967 185.053 246.424C186.595 244.882 188.687 244.015 190.868 244.015V244.015V252.24Z" fill="#4470C7" stroke="#263238" strokeWidth="0.5" strokeMiterlimit="10"/>
<path d="M190.868 252.24L198.687 249.697C199.023 250.724 199.154 251.808 199.071 252.886C198.988 253.964 198.693 255.016 198.203 255.979C197.713 256.943 197.037 257.801 196.215 258.503C195.393 259.206 194.44 259.739 193.412 260.072C192.592 260.347 191.733 260.484 190.868 260.479V252.24Z" fill="white" stroke="#263238" strokeWidth="0.5" strokeMiterlimit="10"/>
<path d="M190.868 252.24V244.015C192.609 243.995 194.311 244.537 195.719 245.56C197.128 246.584 198.168 248.035 198.687 249.697L190.868 252.24Z" fill="#263238" stroke="#263238" strokeWidth="0.5" strokeMiterlimit="10"/>
</svg>
