<svg width="42" height="46" viewBox="0 0 42 46" fill="none" xmlns="http://www.w3.org/2000/svg">
<path fill-rule="evenodd" clip-rule="evenodd" d="M12.336 12.984C12.336 8.44201 16.018 4.75999 20.56 4.75999C25.102 4.75999 28.784 8.44201 28.784 12.984V15.04C28.784 16.1755 29.7045 17.096 30.84 17.096C31.9755 17.096 32.896 16.1755 32.896 15.04V12.984C32.896 6.17101 27.373 0.647995 20.56 0.647995C13.747 0.647995 8.224 6.17101 8.224 12.984V19.152H6.168C2.76151 19.152 0 21.9135 0 25.32V39.712C0 43.1185 2.76151 45.88 6.168 45.88H34.952C38.3585 45.88 41.12 43.1185 41.12 39.712V25.32C41.12 21.9135 38.3585 19.152 34.952 19.152H12.336V12.984ZM10.28 23.264H6.168C5.0325 23.264 4.112 24.1845 4.112 25.32V39.712C4.112 40.8475 5.0325 41.768 6.168 41.768H34.952C36.0875 41.768 37.008 40.8475 37.008 39.712V25.32C37.008 24.1845 36.0875 23.264 34.952 23.264H10.28Z" fill="#4470C7"/>
</svg>
